<svg xmlns="http://www.w3.org/2000/svg" width="366" height="338" fill="none" viewBox="0 0 366 338">
  <path fill="#0157E4" d="M270.241 296.88s44.95-2.802 75.854-57.915c30.903-55.113 25.284-139.184-13.111-185.89-38.395-46.706-98.329-62.586-155.453-47.64-27.832 7.277-46.393 26.155-62.434 48.929-13.972 19.84-29.686 38.953-50.832 51.507-20.94 12.424-42.468 22.345-53.041 45.959-25.734 57.504-6.94 124.387 53.93 146.918 65.554 24.287 175.12 11.21 205.087-1.868Z"/>
  <path fill="#fff" d="M270.241 296.88s44.95-2.802 75.854-57.915c30.903-55.113 25.284-139.184-13.111-185.89-38.395-46.706-98.329-62.586-155.453-47.64-27.832 7.277-46.393 26.155-62.434 48.929-13.972 19.84-29.686 38.953-50.832 51.507-20.94 12.424-42.468 22.345-53.041 45.959-25.734 57.504-6.94 124.387 53.93 146.918 65.554 24.287 175.12 11.21 205.087-1.868Z" opacity=".7"/>
  <path fill="#0157E4" d="M188.93 338c88.352 0 159.976-6.273 159.976-14.012 0-7.738-71.624-14.011-159.976-14.011-88.353 0-159.977 6.273-159.977 14.011 0 7.739 71.624 14.012 159.977 14.012Z"/>
  <path fill="#fff" d="M188.93 338c88.352 0 159.976-6.273 159.976-14.012 0-7.738-71.624-14.011-159.976-14.011-88.353 0-159.977 6.273-159.977 14.011 0 7.739 71.624 14.012 159.977 14.012Z" opacity=".5"/>
  <path stroke="#363636" stroke-linecap="round" stroke-linejoin="round" d="M25.797 146.767v8.286m4.158-4.138h-8.307m287.586-75.141v8.286m4.153-4.139h-8.307M191.241 11.637v8.286m4.15-4.148h-8.307M54.52 239.562v8.286m4.146-4.148H50.36M305.519 45.91a6.845 6.845 0 0 1-1.154 3.812 6.868 6.868 0 0 1-3.083 2.53 6.89 6.89 0 0 1-7.494-1.48 6.84 6.84 0 0 1-1.494-7.473 6.863 6.863 0 0 1 2.531-3.08 6.888 6.888 0 0 1 8.678.849 6.849 6.849 0 0 1 2.016 4.842ZM11.596 210.423c3.502-1.447 5.166-5.452 3.715-8.946-1.451-3.494-5.466-5.153-8.969-3.706-3.503 1.447-5.166 5.453-3.715 8.947 1.45 3.493 5.466 5.153 8.969 3.705Zm325.137-94.454a1.566 1.566 0 0 1-.933 1.55 1.572 1.572 0 0 1-1.775-.37 1.57 1.57 0 0 1-.411-1.18 1.563 1.563 0 0 1 2.622-1.025c.289.267.466.633.497 1.025ZM98.561 93.55a1.557 1.557 0 0 1-.959 1.448 1.567 1.567 0 0 1-2.138-1.13 1.557 1.557 0 0 1 .664-1.605 1.566 1.566 0 0 1 2.433 1.287v0Z"/>
  <path fill="#363636" d="M361.004 185.412v-.047h-.056v-.047c-1.302-.13-14.777-1.279-27.073 5.091a32.81 32.81 0 0 0 6.967-24.128c-2.968-29.612-30.978-46.556-33.141-47.827v.009h-.131c-2.164 1.271-30.173 18.216-33.142 47.827a32.888 32.888 0 0 0 2.566 16.814c-15.77-9.406-34.162-7.818-35.857-7.65v-.056.065h-.066v.047c-.833 1.915-11.359 27.164 1.283 48.621 11.313 19.187 35.033 14.115 41.476 12.312 5.413 5.67 15.283 18.579 19.666 40.606h-6.143l2.856 41.774h13.822l3.034-41.718h-7.239a127.37 127.37 0 0 1 17.662-41.961c6.453 1.607 23.908 4.316 32.514-10.275 10.227-17.421 1.686-37.897 1.002-39.457Zm-53.809-.159-14.609-20.242a.4.4 0 0 1-.073-.293.39.39 0 0 1 .157-.259.407.407 0 0 1 .562.085l13.991 19.382v-20.503l-14.609-20.233a.401.401 0 0 1 .085-.561.412.412 0 0 1 .561.094l13.991 19.382v-29.891a.409.409 0 0 1 .115-.278.409.409 0 0 1 .279-.115c.104 0 .204.042.278.115a.397.397 0 0 1 .115.278v28.855l15.171-19.187a.396.396 0 1 1 .627.486l-15.798 19.98v20.551l15.171-19.196a.403.403 0 0 1 .661.051.376.376 0 0 1 .036.298.396.396 0 0 1-.07.137l-15.798 19.99V201.6l15.171-19.187a.4.4 0 0 1 .557-.07.396.396 0 0 1 .07.556l-15.798 19.981v.383h-1.274l-14.131-19.617a.398.398 0 0 1 .084-.56.414.414 0 0 1 .562.093l13.944 19.355v-17.318l-.028.037Zm-23.215 49.406-1.433-1.962-20.602-5.717a.348.348 0 0 1-.225-.411.338.338 0 0 1 .412-.233l19.741 5.492-8.587-11.714-20.603-5.717a.336.336 0 0 1-.234-.411.348.348 0 0 1 .412-.224l19.75 5.493-10.151-13.862-20.602-5.717a.324.324 0 0 1-.199-.153.32.32 0 0 1-.026-.249.324.324 0 0 1 .153-.2.323.323 0 0 1 .25-.033l19.75 5.492-14.281-19.486a.333.333 0 0 1 .075-.467.329.329 0 0 1 .116-.056.296.296 0 0 1 .129-.005.313.313 0 0 1 .213.136l14.778 20.158-.066-19.98a.35.35 0 0 1 .337-.337.337.337 0 0 1 .328.337l.15 20.858 10.151 13.853-.149-19.98a.33.33 0 0 1 .075-.273.334.334 0 0 1 .399-.088.32.32 0 0 1 .115.088.33.33 0 0 1 .075.273l.15 20.868 8.578 11.704-.15-19.98a.338.338 0 0 1 .338-.327.326.326 0 0 1 .327.327l.15 20.868 1.227 1.672-.871-.037Zm2.341 0c2.997-4.55 11.65-19.486 6.481-33.862a65.386 65.386 0 0 0 12.82 6.539v64.865c-4.748-19.878-13.682-31.76-19.132-37.542h-.169Zm22.475 33.544v-60.569a64.949 64.949 0 0 0 12.259-5.959c-8.251 13.19.992 28.425 3.427 32.021a126.682 126.682 0 0 0-15.686 34.507Zm51.431-63.231-16.678 4.671-8.241 11.209 16.023-4.456a.274.274 0 0 1 .107-.012.277.277 0 0 1 .184.102.271.271 0 0 1 .018.299.268.268 0 0 1-.159.125l-16.679 4.671-6.967 9.5 16.023-4.456a.276.276 0 0 1 .201.027.265.265 0 0 1 .1.365.279.279 0 0 1-.161.131l-16.678 4.671-.881 1.195c-.159-.093-.309-.177-.458-.28l.496-.682.131-16.926a.277.277 0 0 1 .058-.223.276.276 0 0 1 .324-.072.275.275 0 0 1 .148.177c.01.039.011.079.004.118l-.113 16.216 6.893-9.546.122-16.927a.258.258 0 0 1 .271-.261c.036 0 .071.007.104.021a.26.26 0 0 1 .088.058.278.278 0 0 1 .08.192l-.122 16.207 8.241-11.21.122-16.926c0-.035.007-.071.02-.104a.285.285 0 0 1 .147-.146.265.265 0 0 1 .349.147.243.243 0 0 1 .017.103l-.112 16.207 11.987-16.356a.267.267 0 0 1 .176-.104.264.264 0 0 1 .198.048.253.253 0 0 1 .108.174.248.248 0 0 1-.005.105.275.275 0 0 1-.046.094l-11.585 15.815 16.023-4.456a.273.273 0 0 1 .328.187.256.256 0 0 1-.035.199.254.254 0 0 1-.171.109Z"/>
  <path fill="#363636" stroke="#363636" stroke-linecap="round" stroke-linejoin="round" d="M269.2 40.072H124.609c-3.491 0-6.321 2.823-6.321 6.305v270.045c0 3.482 2.83 6.305 6.321 6.305H269.2c3.491 0 6.321-2.823 6.321-6.305V46.377c0-3.482-2.83-6.305-6.321-6.305Z"/>
  <path fill="#fff" d="M264.21 40.072H119.62c-3.491 0-6.321 2.823-6.321 6.305v270.045c0 3.482 2.83 6.305 6.321 6.305h144.59c3.491 0 6.321-2.823 6.321-6.305V46.377c0-3.482-2.83-6.305-6.321-6.305Z"/>
  <path fill="#0157E4" d="m270.531 146.729-138.26 176.007H264.22a6.327 6.327 0 0 0 4.463-1.85 6.293 6.293 0 0 0 1.848-4.455V146.729Z"/>
  <path fill="#fff" d="m270.531 146.729-138.26 176.007H264.22a6.327 6.327 0 0 0 4.463-1.85 6.293 6.293 0 0 0 1.848-4.455V146.729Z" opacity=".5"/>
  <path stroke="#363636" stroke-linecap="round" stroke-linejoin="round" d="M264.21 40.072H119.62c-3.491 0-6.321 2.823-6.321 6.305v270.045c0 3.482 2.83 6.305 6.321 6.305h144.59c3.491 0 6.321-2.823 6.321-6.305V46.377c0-3.482-2.83-6.305-6.321-6.305Z"/>
  <path fill="#FFB100" stroke="#363636" stroke-linecap="round" stroke-linejoin="round" d="M202.815 56.961h-19.573a2.008 2.008 0 0 1-2.013-2.008v0a2 2 0 0 1 2.013-2h19.573c.531 0 1.041.211 1.417.586.376.375.587.883.587 1.414a2.002 2.002 0 0 1-2.004 2.008v0Z"/>
  <path fill="#fff" stroke="#363636" stroke-linecap="round" stroke-linejoin="round" d="M260.594 297.469H123.215V57.195h32.561l3.661 3.026a7.13 7.13 0 0 0 4.552 1.644h57.452a7.137 7.137 0 0 0 4.682-1.774l3.315-2.896h31.156v240.274Z"/>
  <path stroke="#FFB100" stroke-linecap="round" stroke-linejoin="round" d="M149.004 245.662h85.818m-85.818 11.266h85.818m-85.818 11.265h85.818"/>
  <path stroke="#fff" stroke-linecap="round" stroke-linejoin="round" d="M156.929 141.069a42.278 42.278 0 0 0 3.164 52.154 42.486 42.486 0 0 0 24.132 13.577 42.557 42.557 0 0 0 27.39-4.157 42.41 42.41 0 0 0 18.992-20.122 42.264 42.264 0 0 0 2.509-27.523 42.349 42.349 0 0 0-15.04-23.21 42.532 42.532 0 0 0-26.189-9.018c-2.604 0-5.202.234-7.763.7m-19.956 9.593a43.392 43.392 0 0 0-4.027 3.961"/>
  <path fill="#FFB100" d="M225.068 179.225c7.799-18.264-.723-39.376-19.033-47.155-18.31-7.779-39.475.721-47.274 18.985-7.798 18.264.723 39.376 19.033 47.155 18.31 7.779 39.475-.721 47.274-18.985Z"/>
  <path stroke="#fff" stroke-linecap="round" stroke-linejoin="round" stroke-width="6" d="m175.275 161.405 13.673 15.497 22.364-31.602"/>
  <path fill="#0157E4" stroke="#363636" stroke-linecap="round" stroke-linejoin="round" d="M226.161 60.09a7.14 7.14 0 0 1-4.683 1.775h-57.471a7.128 7.128 0 0 1-4.551-1.644l-3.662-3.026h-32.579v24.577h137.379V57.195h-31.118l-3.315 2.896Z"/>
  <path fill="#FFB100" stroke="#363636" stroke-linecap="round" stroke-linejoin="round" d="M196.308 304.876a3.128 3.128 0 0 0-5.339-2.215 3.113 3.113 0 0 0 .48 4.804 3.134 3.134 0 0 0 3.943-.392 3.11 3.11 0 0 0 .916-2.197v0Z"/>
  <path fill="#363636" stroke="#363636" stroke-linecap="round" stroke-linejoin="round" d="m74.125 209.315-12.25 109.292s-8.98 7.791-8.193 10.939c.786 3.148 11.153-1.868 12.586-4.465a26.911 26.911 0 0 0 2.154-6.801l25.79-82.202 19.834 88.153s8.428 6.903 13.111 6.669c4.682-.233 3.015-2.073.346-5.446-2.669-3.372-8.709-5.296-8.709-5.296l-2.978-113.617-41.691 2.774Z"/>
  <path fill="#363636" stroke="#363636" stroke-linecap="round" stroke-linejoin="round" d="m115.146 204.63-41.152 2.086.285 5.598 41.152-2.087-.285-5.597Z"/>
  <path fill="#fff" d="M99.522 208.185c.066 1.392-1.704 2.607-3.97 2.728-2.267.121-4.177-.906-4.177-2.307 0-1.402 1.714-2.607 3.97-2.719 2.258-.112 4.103.916 4.177 2.298Z"/>
  <path fill="#fff" stroke="#363636" stroke-linecap="round" stroke-linejoin="round" d="M92.47 150.755 77 155.277l1.92 51.582 36.288-.897-4.589-53.32-18.149-1.887Z"/>
  <path fill="#0157E4" stroke="#363636" stroke-linecap="round" stroke-linejoin="round" d="m85.698 151.334-2.079 88.023-19.703-9.519 8.662-27.8-5.909-46.939 19.03-3.765Zm15.669-.793 11.013 87.358 18.645-11.461-11.444-26.781 1.105-47.295-19.319-1.821Z"/>
  <path fill="#FFB100" stroke="#363636" stroke-linecap="round" stroke-linejoin="round" d="m89.643 161.19 3.071 4.988-2.453 34.73 5.825 6.875 3.015-8.257-4.664-33.283 2.875-4.82-4.176-5.399-3.493 5.166Z"/>
  <path fill="#fff" stroke="#363636" stroke-linecap="round" stroke-linejoin="round" d="m93.444 160.527-5.797 4.353-4.645-11.303 2.613-4.036 14.188-.719 3.352 4.512-2.762 10.275-6.95-3.082Z"/>
  <path fill="#fff" stroke="#363636" stroke-linecap="round" stroke-linejoin="round" d="m86.793 145.198 1.302 7.183 5.347 8.146 4.898-9.603-.31-6.063-11.237.337Z"/>
  <path fill="#0157E4" stroke="#363636" stroke-linecap="round" stroke-linejoin="round" d="m66.67 155.099-26.277 31.732 17.465 20.625 7.033-4.558-8.635-17.571 12.886-9.304-2.472-20.924Z"/>
  <path fill="#fff" stroke="#363636" stroke-linecap="round" stroke-linejoin="round" d="m64.89 202.898 1.05 2.279-5.92 3.344-.795-1.83 5.665-3.793Z"/>
  <path fill="#fff" stroke="#363636" stroke-linecap="round" stroke-linejoin="round" d="m65.938 205.177 6.031 7.884-1.985 2.439-1.442-.626-2.922 2.485s-2.135-.598-2.407-1.28c-.271-.682-3.165-2.42-3.23-3.578-.066-1.158 0-3.979 0-3.979l5.955-3.345Zm69.382-46.621a5.1 5.1 0 0 0 .225-2.905c-.431-1.112-1.386-4.961-1.199-6.231.188-1.27 2.117-3.12 2.285-4.764.169-1.644 0-3.148 0-4.036a1.129 1.129 0 0 1 .877-1.029 1.132 1.132 0 0 1 1.24.544c.936 1.083 1.498 2.195 1.049 3.344a15.897 15.897 0 0 0-.431 3.923s1.498 2.065 2.322 3.41c.825 1.345.75 4.867.197 6.277a8.783 8.783 0 0 1-2.135 2.803l.094 2.429-4.524-3.765Z"/>
  <path fill="#fff" stroke="#363636" stroke-linecap="round" stroke-linejoin="round" d="M138.055 145.459s-.656 1.924.496 2.363c1.152.439 5.863 1.093 5.91-.42.046-1.513.14-2.27-.619-2.233-.758.038-4.289 0-4.289 0s-1.639-.084-1.498.29Zm.533 9.435s-.468 1.429.365 1.756c.834.327 4.224.822 4.252-.308.028-1.131.094-1.691-.449-1.663-.544.028-3.091 0-3.091 0s-1.18-.084-1.077.215Zm-.625-3.055s-.543 1.663.421 2.046c.965.383 4.889.934 4.926-.355.038-1.289.113-1.962-.524-1.934-.637.028-3.578 0-3.578 0s-1.367-.075-1.245.243Z"/>
  <path fill="#fff" stroke="#363636" stroke-linecap="round" stroke-linejoin="round" d="M137.598 148.878s-.655 1.924.506 2.363c1.161.439 5.853 1.093 5.9-.42.047-1.513.14-2.27-.618-2.233-.759.038-4.289 0-4.289 0s-1.639-.074-1.499.29Zm-2.809 11.592.731-2.933 5.075 3.017-.852 3.186-4.954-3.27Z"/>
  <path fill="#0157E4" stroke="#363636" stroke-linecap="round" stroke-linejoin="round" d="m120.688 152.362 9.72 20.635 4.776-13.274 4.683 4.447-4.795 24.604a3.967 3.967 0 0 1-5.316 2.934 3.966 3.966 0 0 1-1.801-1.383l-7.764-10.808.497-27.155Z"/>
  <path fill="#fff" stroke="#363636" stroke-linecap="round" stroke-linejoin="round" d="M82.27 136.81s-1.966-2.093-2.22-.561c-.252 1.532.544 4.176 1.78 5.119 1.236.944 2.323-.616 2.323-.616l-1.883-3.942Zm18.591-.945s1.732-2.279 2.153-.784c.422 1.494-.121 4.213-1.254 5.278-1.134 1.065-2.38-.383-2.38-.383l1.481-4.111Z"/>
  <path fill="#363636" stroke="#363636" stroke-linecap="round" stroke-linejoin="round" d="m83.058 138.958-1.873-3.951a18.452 18.452 0 0 1-3.062-7.072c-.937-4.334.608-7.94 2.575-9.051a5.428 5.428 0 0 1 3.68-.692s.375-2.541 6.556-4.67c6.18-2.13 12.905 1.709 12.802 3.054-.103 1.345-1.752 1.943-1.752 1.943s4.814 1.775 3.072 4.045a11.044 11.044 0 0 1-4.055 3.242c.349 1.144.634 2.308.852 3.484.244 1.504-1.114 7.968-1.114 7.968l-3.325-9.089-10.432.532s-.618 4.41-1.723 5.979a8.214 8.214 0 0 0-1.143 3.923s-.487 1.663-1.058.355Z"/>
  <path fill="#fff" stroke="#363636" stroke-linecap="round" stroke-linejoin="round" d="M84.911 122.536a61.592 61.592 0 0 1-.59 8.109 6.096 6.096 0 0 1-2.173 3.811s1.33 6.156 3.016 9.435c1.686 3.279 5.188 5.969 8.719 5.605 3.53-.365 6.349-4.363 6.686-7.744.337-3.382-1.32-15.881-1.32-15.881s-11.032 1.934-14.338-3.335Z"/>
  <path stroke="#363636" stroke-linecap="round" stroke-linejoin="round" d="M85.848 135.174a4.04 4.04 0 0 1 3.746-.187m-3.894-2.615s.215-1.868 3.343-2.037m4.98-.41a3.578 3.578 0 0 1 4.121 1.037m-5.214 1.98s.497 3.736.525 4.194c.028.458 1.592.542 1.17 1.495-.421.953-1.779 1.962-2.912 1.242m2.975 3.129s-1.189 1.149-3.586.178"/>
  <path fill="#363636" d="M97.057 134.138c0 .691-.29 1.27-.721 1.289-.43.019-.805-.523-.843-1.205-.037-.682.29-1.261.721-1.289.431-.028.778.523.843 1.205Z"/>
</svg>
