<svg xmlns="http://www.w3.org/2000/svg" width="392" height="355" fill="none" viewBox="0 0 392 355">
  <path fill="#0157E4" d="M377.549 168.422c-1.452-7.653-6.338-14.126-11.086-20.297L286.755 44.61c-6.392-8.32-13.333-17.033-23.168-20.69-11.361-4.225-23.352-.787-35.032 3.657-5.534 1.572-11.635 4.26-18.183 6.939a205.512 205.512 0 0 1-34.337 8.146c-21.644-1.06-43.836-18.651-91.452-9.143-33.04 6.62-52.657 25.6-62.218 37.833a32.58 32.58 0 0 0-7.187 10.899c-3.653 9.024-3.7 19.136-2.411 28.79 3.58 26.825 16.867 51.959 17.862 79.003.658 17.701-4.036 35.182-10.045 51.831-4.165 11.538-9.041 24.064-5.105 35.657 3.936 11.593 16.219 19.017 28.474 20.215 12.256 1.198 24.439-2.743 35.735-7.616 11.297-4.873 22.247-10.862 34.119-14.126 24.246-6.674 50.137-1.591 74.182 5.769s47.671 17.024 72.675 19.685c13.918 1.481 29.178.329 39.936-8.631 17.032-14.171 15.817-40.969 28.128-59.428 7.863-11.785 20.593-19.2 31.315-28.444 10.721-9.243 20.155-22.61 17.506-36.534Z" opacity=".6"/>
  <path fill="#708DED" d="M195 355c101.068 0 183-6.044 183-13.5S296.068 328 195 328s-183 6.044-183 13.5S93.932 355 195 355Z" opacity=".9"/>
  <path fill="#0157E4" d="M362.684 43.677H163.78V208.12h198.904V43.677Z" opacity=".5" style="mix-blend-mode:multiply"/>
  <path fill="#fff" stroke="#363636" stroke-linecap="round" stroke-linejoin="round" d="M368.392 32.066H172.053v167.233h196.339V32.066Z"/>
  <path fill="#fff" stroke="#363636" stroke-linecap="round" stroke-linejoin="round" d="M357.425 41.208H183.02v148.959h174.405V41.208Z"/>
  <path fill="#0157E4" stroke="#363636" stroke-linecap="round" stroke-linejoin="round" d="M357.425 82.177a43.475 43.475 0 0 1-6.625-.156c-27.378-2.731-37.74-49.067-69.85-31.797-23.855 12.81-13.201 37.242-13.66 57.926-.39 17.719-10.4 36.647-30.587 32.608-27.525-5.503-16.216-38.15-37.135-48.609a37.66 37.66 0 0 0-16.587-3.903v101.921h174.444V82.177Z"/>
  <path fill="#0157E4" stroke="#363636" stroke-linecap="round" stroke-linejoin="round" d="M219.433 82.334c8.078 0 14.626-6.549 14.626-14.626 0-8.078-6.548-14.626-14.626-14.626-8.077 0-14.626 6.548-14.626 14.626s6.549 14.626 14.626 14.626Z"/>
  <path fill="#0157E4" d="M284.375 190.889H127.757v133.123h156.618V190.889Z" opacity=".6" style="mix-blend-mode:multiply"/>
  <path fill="#fff" stroke="#363636" stroke-linecap="round" stroke-linejoin="round" d="M291.38 181.942H133.67v134.333h157.71V181.942Z"/>
  <path fill="#0157E4" stroke="#363636" stroke-linecap="round" stroke-linejoin="round" d="M282.58 189.279h-140.1v119.659h140.1V189.279Z"/>
  <path fill="#fff" stroke="#363636" stroke-linecap="round" stroke-linejoin="round" d="M180.611 233.376c1.043-6.404-3.302-12.44-9.706-13.483-6.403-1.043-12.44 3.303-13.483 9.706-1.043 6.404 3.303 12.44 9.707 13.483 6.403 1.043 12.44-3.303 13.482-9.706Zm101.969-41.238c-.664.195-1.317.39-1.952.605-31.739 10.127-16.206 50.638-36.461 72.201-20.255 21.563-45.233 9.454-71.567 4.732a67.24 67.24 0 0 0-30.081 1.2v38.052H282.58v-116.79Z"/>
  <path fill="#0157E4" d="M177.869 7.654H18.119V175.23h159.75V7.654Z" opacity=".6" style="mix-blend-mode:multiply"/>
  <path fill="#fff" stroke="#363636" stroke-linecap="round" stroke-linejoin="round" d="M221.258 1H24.919v167.233h196.339V1Z"/>
  <path fill="#fff" stroke="#363636" stroke-linecap="round" stroke-linejoin="round" d="M210.291 10.142H35.886v148.959h174.405V10.142Z"/>
  <path fill="#0157E4" stroke="#363636" stroke-linecap="round" stroke-linejoin="round" d="m210.291 40.408-74.933 62.942-23.066-27.963a10.348 10.348 0 0 0-15.142-.898l-61.264 58.463v26.139h174.405V40.408ZM86.54 40.03c1.867-7.858-2.99-15.743-10.848-17.61-7.858-1.869-15.743 2.988-17.611 10.846-1.868 7.859 2.988 15.744 10.847 17.611 7.859 1.868 15.743-2.988 17.611-10.847Z"/>
  <path fill="#FFB100" d="M348.205 308.821c-6.294 0-11.396 1.863-11.396 4.146v4.488a1.94 1.94 0 0 0 .653 1.366l1.766 15.904c0 1.795 4.02 3.259 8.977 3.259 4.956 0 8.976-1.464 8.976-3.259l1.825-15.913a1.956 1.956 0 0 0 .644-1.357v-4.488c-.049-2.283-5.152-4.146-11.445-4.146Zm3.395-19.017c-.059 0 1.512-3.902 1.639-4.137 1.473-2.712 5.923-7.093 9.328-6.459a4.113 4.113 0 0 1 2.684 1.98 4.105 4.105 0 0 1 .331 3.318c-.693 2.342-3.22 3.981-5.376 4.791-2.537.956-8.596.507-8.606.507Zm3.015-16.391c-.059 0 2.088-3.63 2.244-3.844 1.873-2.459 6.927-6.118 10.196-4.967a4.096 4.096 0 0 1 2.359 2.358 4.087 4.087 0 0 1-.183 3.331c-1.034 2.214-3.776 3.453-6.04 3.902-2.654.586-8.566-.78-8.576-.78Zm7.21-17.602c-.058 0 2.088-3.629 2.244-3.834 1.874-2.469 6.928-6.118 10.196-4.976a4.092 4.092 0 0 1 2.359 2.363 4.104 4.104 0 0 1-.183 3.335c-1.034 2.205-3.776 3.444-6.04 3.903-2.614.575-8.576-.781-8.576-.791Zm5.962-16.918c-.059 0 2.088-3.63 2.254-3.835 1.863-2.468 6.927-6.117 10.186-4.976a4.119 4.119 0 0 1 1.431.928 4.121 4.121 0 0 1 1.201 3.112 4.121 4.121 0 0 1-.437 1.649c-1.044 2.205-3.786 3.444-6.039 3.902-2.635.576-8.596-.78-8.596-.78Zm1.102-15.406c-.058 0 1.054-4.049 1.152-4.303 1.151-2.859 5.063-7.728 8.517-7.484a4.103 4.103 0 0 1 3.59 3.183 4.09 4.09 0 0 1 .02 1.696c-.419 2.41-2.741 4.322-4.79 5.376-2.41 1.327-8.489 1.532-8.489 1.532Zm-18.879 65.605c.058 0 .058-4.186 0-4.449-.352-3.073-2.84-8.781-6.235-9.474a4.108 4.108 0 0 0-3.235.827 4.09 4.09 0 0 0-1.546 2.959c-.234 2.439 1.503 4.878 3.2 6.459 2.03 1.834 7.816 3.678 7.816 3.678Zm4.732-18.001c.068 0-.576-4.147-.644-4.411-.81-2.975-4.137-8.254-7.601-8.41a4.085 4.085 0 0 0-4.147 4.459c.137 2.439 2.225 4.615 4.137 5.903 2.254 1.483 8.255 2.459 8.255 2.459Zm6.839-16.587c.059 0-.576-4.147-.654-4.41-.809-2.976-4.137-8.255-7.6-8.411a4.103 4.103 0 0 0-3.941 2.768 4.08 4.08 0 0 0-.206 1.691c.137 2.439 2.225 4.615 4.137 5.903 2.254 1.483 8.254 2.459 8.264 2.459Zm5.552-15.611c.059 0-.585-4.147-.654-4.401-.81-2.985-4.137-8.264-7.6-8.42a4.101 4.101 0 0 0-4.147 4.469c.137 2.439 2.225 4.605 4.137 5.854 2.254 1.59 8.254 2.498 8.264 2.498Zm1.551-14.899c.059 0-1.024-4.059-1.122-4.313-1.141-2.868-5.025-7.756-8.479-7.532a4.109 4.109 0 0 0-3.639 4.879c.41 2.41 2.712 4.341 4.761 5.405 2.401 1.278 8.479 1.561 8.479 1.561Zm-1.492-13.689c.048 0 .975-4.078.975-4.342.312-3.073-.888-9.2-4.059-10.596a4.107 4.107 0 0 0-5.483 2.674c-.751 2.322.41 5.103 1.737 6.986 1.571 2.224 6.82 5.268 6.83 5.278Z"/>
  <path fill="#FFB100" d="M347.531 311.777s.059-1.776.283-4.879c.225-3.102.605-7.444 1.308-12.684.341-2.614.77-5.434 1.297-8.41.254-1.503.556-2.986.869-4.586.185-.771.361-1.551.546-2.332.185-.78.439-1.58.664-2.38a93.395 93.395 0 0 1 3.463-9.591c1.337-3.191 2.791-6.372 4.235-9.562 1.444-3.191 2.849-6.362 4.078-9.562a70.565 70.565 0 0 0 2.995-9.571 52.733 52.733 0 0 0 1.162-9.309c.115-2.81.066-5.625-.147-8.429-.175-2.615-.488-4.996-.79-7.103a82.222 82.222 0 0 0-.976-5.425c-.614-2.996-1.102-4.674-1.102-4.674s.517 1.669 1.2 4.654c.341 1.493.722 3.308 1.083 5.415.361 2.108.712 4.479.975 7.103.278 2.818.392 5.649.342 8.479a53.686 53.686 0 0 1-.976 9.445 71.14 71.14 0 0 1-2.819 9.757c-1.171 3.258-2.528 6.498-3.903 9.757-1.376 3.258-2.752 6.429-4.01 9.62a91.81 91.81 0 0 0-3.201 9.474c-.195.78-.439 1.522-.585 2.322l-.498 2.342c-.263 1.502-.536 3.044-.751 4.507a169.414 169.414 0 0 0-1.112 8.352c-.576 5.191-.859 9.533-.976 12.567-.117 3.034-.175 4.761-.175 4.761a1.23 1.23 0 0 1-.315.932 1.211 1.211 0 0 1-.9.397 1.207 1.207 0 0 1-.9-.397 1.208 1.208 0 0 1-.315-.932l-.049-.058Zm-9.444-16.772c-.049 0-.908-3.396-.976-3.62-.332-2.586.527-7.757 3.161-9.006a3.44 3.44 0 0 1 2.803.012 3.431 3.431 0 0 1 1.861 2.096c.693 1.951-.215 4.303-1.288 5.922-1.229 1.903-5.561 4.596-5.561 4.596Zm-6.059-12.645c-.049 0-.371-3.503-.371-3.727.059-2.596 1.688-7.591 4.478-8.421a3.458 3.458 0 0 1 4.332 2.83c.391 2.02-.868 4.215-2.175 5.659-1.552 1.659-6.264 3.659-6.264 3.659Zm-3.796-15.543s-.371-3.503-.371-3.727c.059-2.595 1.698-7.591 4.489-8.42a3.422 3.422 0 0 1 2.77.435 3.44 3.44 0 0 1 1.523 2.355c.39 2.02-.869 4.225-2.176 5.659-1.522 1.698-6.225 3.698-6.235 3.698Zm-4.283-14.489c-.059 0-.381-3.503-.381-3.727.059-2.595 1.698-7.591 4.489-8.42a3.443 3.443 0 0 1 4.293 2.8c.39 2.02-.869 4.215-2.166 5.659-1.532 1.688-6.235 3.688-6.235 3.688Zm-6.898-11.006c-.049 0-1.288-3.278-1.347-3.502-.634-2.518-.37-7.806 2.098-9.309a3.453 3.453 0 0 1 4.878 1.562c.908 1.853.274 4.302-.604 6.039-1.005 2.03-5.025 5.201-5.025 5.21Zm19.601 53.985c.049 0-2.029-2.868-2.185-3.034-1.756-1.952-6.284-4.586-8.928-3.366a3.439 3.439 0 0 0-1.877 3.593c.071.478.242.936.502 1.344 1.044 1.775 3.434 2.595 5.366 2.81 2.263.263 7.113-1.337 7.122-1.347Zm-5.688-14.596c.049 0-2.439-2.537-2.615-2.673-2.029-1.63-6.908-3.581-9.337-1.952a3.465 3.465 0 0 0-1.44 2.41 3.455 3.455 0 0 0 .825 2.683c1.298 1.591 3.796 2.039 5.737 1.952 2.274-.088 6.83-2.42 6.83-2.42Zm-3.551-14.665c.048 0-2.44-2.537-2.615-2.683-2.03-1.62-6.908-3.571-9.338-1.951a3.45 3.45 0 0 0-1.44 2.41 3.454 3.454 0 0 0 .826 2.683c1.297 1.59 3.795 2.039 5.737 1.951 2.322-.088 6.83-2.41 6.83-2.41Zm-3.913-13.347s-2.449-2.537-2.624-2.674c-2.03-1.629-6.899-3.571-9.328-1.951a3.451 3.451 0 0 0-1.45 2.407 3.446 3.446 0 0 0 .825 2.686c1.308 1.591 3.796 2.039 5.738 1.952 2.273-.088 6.829-2.41 6.839-2.42Zm-6.332-10.938s-2.713-2.253-2.927-2.371c-2.196-1.395-7.259-2.8-9.494-.975a3.455 3.455 0 0 0-1.176 2.553 3.442 3.442 0 0 0 1.118 2.579c1.473 1.434 4 1.61 5.912 1.317 2.293-.293 6.557-3.103 6.567-3.103Zm-7.786-8.576c.049 0-1.366-3.249-1.483-3.444-1.308-2.244-5.152-5.854-7.991-5.201a3.454 3.454 0 0 0-2.216 1.726 3.44 3.44 0 0 0-.194 2.802c.634 1.951 2.8 3.268 4.634 3.902 2.157.742 7.24.215 7.25.215Z"/>
  <path fill="#FFB100" d="M346.175 311.982s-.839-1.239-2.195-3.435a180.805 180.805 0 0 1-5.376-9.269 150.195 150.195 0 0 1-3.279-6.371c-.566-1.142-1.093-2.303-1.668-3.551-.264-.615-.517-1.23-.781-1.854-.263-.625-.488-1.298-.732-1.952a75.696 75.696 0 0 1-2.38-8.234c-.664-2.84-1.249-5.728-1.854-8.606s-1.2-5.747-1.951-8.528a59.777 59.777 0 0 0-2.693-8 44.89 44.89 0 0 0-3.806-6.908 63.828 63.828 0 0 0-4.273-5.659c-1.415-1.698-2.8-3.161-4.049-4.449a77.536 77.536 0 0 0-3.337-3.22c-1.903-1.727-3.064-2.634-3.064-2.634s1.181.878 3.122 2.575a79.166 79.166 0 0 1 3.415 3.152 74.189 74.189 0 0 1 4.157 4.361 64.092 64.092 0 0 1 4.42 5.61 44.996 44.996 0 0 1 4.01 6.908 61.25 61.25 0 0 1 2.927 8.04c.819 2.8 1.493 5.669 2.156 8.537.664 2.869 1.308 5.737 2.02 8.528a76.448 76.448 0 0 0 2.517 8.03c.254.634.449 1.258.742 1.873.292.615.556 1.229.819 1.834.566 1.152 1.142 2.342 1.717 3.445a163.764 163.764 0 0 0 3.376 6.234 182.744 182.744 0 0 0 5.523 9.055 108.06 108.06 0 0 0 2.234 3.327 1.02 1.02 0 0 1-.244 1.424.973.973 0 0 1-1.424-.244l-.049-.019Z"/>
  <path fill="#FFB100" stroke="#363636" stroke-linecap="round" stroke-linejoin="round" d="M71.733 113.351s2.02 6.654 2.624 8.674c.605 2.019 4.645 0 8.684-1.405 4.04-1.405 13.318-6.059 15.338-4.245 2.02 1.815 17.757 41.955 16.957 45.009-.8 3.054-1.814 4.878-7.064 3.639-5.249-1.239-7.268-6.664-7.268-6.664l-2.625 9.308a82.975 82.975 0 0 1 7.923 18.148c2.624 9.484 8.068 40.169 8.478 48.843.41 8.674 3.025 28.061 3.025 28.061s-2.02 1.815-12.313 3.835c-10.294 2.019-15.543 2.019-15.543 2.019l.205 3.23a55.637 55.637 0 0 1-21.192.4 84.753 84.753 0 0 1-19.387-5.454s8.079-33.096 7.874-40.365c-.205-7.268-2.02-13.318-1.61-20.187.41-6.868 4.878-17.357 4.878-17.357s3.23-6.059-1.414-17.767c-4.645-11.709-12.304-29.271-14.324-34.511-2.02-5.239 14.528-10.498 16.587-11.308 2.059-.81-8.274-18.967-5.854-20.987 2.42-2.02 16.02 9.084 16.02 9.084Z"/>
  <path fill="#fff" d="M43.857 135.957s-2.02 2.215-1.21 6.655c.81 4.439 11.104 34.52 13.729 39.369 2.624 4.849 5.044 4.029 7.268 2.82 2.225-1.21 21.797-13.924 27.447-17.358 5.649-3.434 15.747-9.289 15.747-9.289s9.279 4.245 9.084 2.225c-.195-2.02.81-5.854-2.02-8.879-2.829-3.024-7.874-.81-10.088.81-2.215 1.62-18.168 8.274-25.232 10.733-7.064 2.458-10.732 3.434-10.732 3.434l-9.289-19.182"/>
  <path fill="#0157E4" d="M62.59 179.21c-3.268-.82-6.546-7.367-6.546-7.367s2.868-2.858 6.137-6.547a13.211 13.211 0 0 0 2.741-5.015l-6.312-13.025-11.152.859s-.976 1.053-2.39 2.712c3.414 10.645 9.415 27.612 11.327 31.154 2.624 4.878 5.044 4.029 7.269 2.819 2.224-1.209 21.797-13.923 27.446-17.357 5.65-3.434 15.748-9.289 15.748-9.289a54.578 54.578 0 0 0 6.205 2.381c-1.112-3.308-2.195-6.283-2.195-6.283h-10.782c-.751.351-1.57.722-2.449 1.112l-.683 5.435M88.28 265.402s-5.483 13.104-5.483 20.109c0 7.006.303 33.505-1.22 38.686-1.522 5.181-1.522 7.62.615 8.528 0-3.991 1.669-16.46 4.947-33.652 3.278-17.191 2.04-24.08 2.04-24.08s6.136-1.229 9.005-2.049a44.3 44.3 0 0 0 4.361-1.639 52.245 52.245 0 0 0 1.268-6.761c0-2.186-15.532.858-15.532.858Z" opacity=".5" style="mix-blend-mode:multiply"/>
  <path stroke="#363636" stroke-linecap="round" stroke-linejoin="round" d="M43.857 135.957s-2.02 2.215-1.21 6.655c.81 4.439 11.104 34.52 13.729 39.369 2.624 4.849 5.044 4.029 7.268 2.82 2.225-1.21 21.797-13.924 27.447-17.358 5.649-3.434 15.747-9.289 15.747-9.289s9.279 4.245 9.084 2.225c-.195-2.02.81-5.854-2.02-8.879-2.829-3.024-7.874-.81-10.088.81-2.215 1.62-18.168 8.274-25.232 10.733-7.064 2.458-10.732 3.434-10.732 3.434l-9.289-19.182"/>
  <path fill="#fff" stroke="#363636" stroke-linecap="round" stroke-linejoin="round" d="M113.922 151.5c-2.83-3.034-7.874-.81-10.089.81-.182.124-.446.28-.79.468a11.928 11.928 0 0 1 2.195 3.766c.254.752.449 1.493.615 2.196l.975-.586s9.279 4.245 9.084 2.225c-.195-2.02.839-5.854-1.99-8.879Z"/>
  <path fill="#fff" d="M82.095 120.961c-3.708 1.356-7.181 2.927-7.738 1.064-.605-2.02-2.624-8.674-2.624-8.674s-13.728-11.055-16.168-9.103c-2.439 1.951 7.874 20.187 5.855 20.987-.722.292-3.279 1.141-6.186 2.351 1.307 2.137 4.351 5.952 11.035 9.962 10.088 6.059 12.313 7.669 12.313 7.669l3.513-24.256Z"/>
  <path fill="#0157E4" d="M71.733 113.351s-12.499-10.108-15.738-9.269l-.537.341c-1.17 1.678 2.323 9.259 4.547 14.801a14.85 14.85 0 0 0 5.044.254 33.703 33.703 0 0 0 7.533-3.337c-.43-1.561-.85-2.79-.85-2.79Z" opacity=".5" style="mix-blend-mode:multiply"/>
  <path stroke="#363636" stroke-linecap="round" stroke-linejoin="round" d="M82.095 120.961c-3.708 1.356-7.181 2.927-7.738 1.064-.605-2.02-2.624-8.674-2.624-8.674s-13.728-11.055-16.168-9.103c-2.439 1.951 7.874 20.187 5.855 20.987-.722.292-3.279 1.141-6.186 2.351 1.307 2.137 4.351 5.952 11.035 9.962 10.088 6.059 12.313 7.669 12.313 7.669l3.513-24.256Z"/>
  <path fill="#363636" stroke="#363636" stroke-linecap="round" stroke-linejoin="round" d="M73.489 86.431s4.42-7.951.176-14.46C67.43 62.44 53.858 62.84 43.204 70.45c-10.46 7.454-11.153 22.011-11.396 30.656-.244 8.644 3.902 16.518-.742 23.065-4.644 6.547-11.6 13.104-9.367 25.417 2.235 12.313 8.138 16.518 25.154 16.518s24.724-16.762 21.016-28.031c-3.708-11.27-7.61-21.007-7.61-24.675 0-3.669-10.733-24.607-1.318-27.486 9.416-2.878 14.548.517 14.548.517Z"/>
  <path stroke="#fff" stroke-linecap="round" stroke-linejoin="round" stroke-width=".5" d="M67.274 78.606a10.733 10.733 0 0 0-12.548 1.171c-6.43 5.25-9.054 13.426-9.054 22.187 0 8.762 8.781 26.568 11.386 37.662 2.605 11.094.293 25.368-16.06 25.983"/>
  <path stroke="#fff" stroke-linecap="round" stroke-linejoin="round" stroke-width=".5" d="M69.616 78.88s-2.342-9.338-15.475-7.591c-13.133 1.746-18.392 22.226-16.645 34.764 1.746 12.537 16.645 35.027 17.806 42.618 1.161 7.591-1.453 11.22-1.453 11.22"/>
  <path stroke="#fff" stroke-linecap="round" stroke-linejoin="round" stroke-width=".5" d="M40.413 116.561s2.634 6.42.878 20.723c-1.756 14.304-11.708 18.109-13.718 13.436-2.01-4.674.878-8.469 3.795-8.782"/>
  <path fill="#fff" stroke="#363636" stroke-linecap="round" stroke-linejoin="round" d="M77.919 116.551s-3.445-.166-3.903.976c-.459 1.141 4.693 1.717 4.693 1.717l-.79-2.693Z"/>
  <path fill="#fff" d="M76.777 112.336s-6.05 5.454-5.044 6.83c1.005 1.376 5.044-3.835 5.044-3.835l2.225 1.21a10.272 10.272 0 0 0-2.83 3.025c-.605 1.415 0 2.42 1.21 3.834 1.21 1.415 1.415 3.23 3.034 3.23 1.62 0 2.02-2.215 2.02-2.215a18.467 18.467 0 0 0 2.625 3.63c.975.809 3.834.975 3.834.975s10.294 28.295 12.684 32.501c2.391 4.205 3.025 7.473 10.089 6.663 7.064-.809 4.644-6.663 2.429-11.913-2.215-5.249-16.147-23.416-19.787-27.651-3.64-4.234-5.249-6.254-9.484-11.503-4.234-5.249-6.82-5.991-8.049-4.781Z"/>
  <path fill="#0157E4" d="M107.277 162.135c-3.903-4.878-15.61-30.568-18.382-33.046 0 0 10.294 28.295 12.684 32.5 2.391 4.205 3.025 7.474 10.089 6.664a6.586 6.586 0 0 0 3.337-1.161 15.612 15.612 0 0 1-7.728-4.957Z" opacity=".5" style="mix-blend-mode:multiply"/>
  <path stroke="#363636" stroke-linecap="round" stroke-linejoin="round" d="M76.777 112.336s-6.05 5.454-5.044 6.83c1.005 1.376 5.044-3.835 5.044-3.835l2.225 1.21a10.272 10.272 0 0 0-2.83 3.025c-.605 1.415 0 2.42 1.21 3.834 1.21 1.415 1.415 3.23 3.034 3.23 1.62 0 2.02-2.215 2.02-2.215a18.467 18.467 0 0 0 2.625 3.63c.975.809 3.834.975 3.834.975s10.294 28.295 12.684 32.501c2.391 4.205 3.025 7.473 10.089 6.663 7.064-.809 4.644-6.663 2.429-11.913-2.215-5.249-16.147-23.416-19.787-27.651-3.64-4.234-5.249-6.254-9.484-11.503-4.234-5.249-6.82-5.991-8.049-4.781Z"/>
  <path fill="#0157E4" d="M82.563 122.786c-2.283 0-2.147 3.902-2.147 3.902 1.61 0 2.02-2.214 2.02-2.214a18.49 18.49 0 0 0 2.624 3.629c.976.81 3.835.976 3.835.976-2.78-2.459-4.059-6.293-6.332-6.293Z" style="mix-blend-mode:multiply"/>
  <path stroke="#363636" stroke-linecap="round" stroke-linejoin="round" stroke-width=".5" d="M77.138 122.961s-.468-2.185 0-2.81a34.642 34.642 0 0 1 2.508-2.507m-1.259 7.2s-.624-3.132 0-3.6c.624-.468 3.288-2.039 3.288-2.039"/>
  <path fill="#fff" d="M88.28 265.402s-5.483 13.104-5.483 20.109c0 7.006.303 33.505-1.22 38.686-1.522 5.181-1.522 7.621.615 8.528s7.006.615 8.225 1.522c1.22.907 7.308 3.054 8.83 1.834 1.522-1.219-9.132-7.62-10.352-10.059-1.22-2.439 4.566-28.627 7.61-34.725 3.045-6.098 7.308-24.675 7.308-26.802 0-2.127-15.533.907-15.533.907Z"/>
  <path fill="#0157E4" d="M88.28 265.402s-5.483 13.104-5.483 20.109c0 7.006.303 33.506-1.22 38.686-1.522 5.181-1.522 7.621.615 8.528 0-3.991 1.669-16.46 4.947-33.652 3.278-17.191 2.039-24.08 2.039-24.08s6.137-1.229 9.006-2.049a44.05 44.05 0 0 0 4.361-1.639 52.245 52.245 0 0 0 1.268-6.761c0-2.186-15.533.858-15.533.858Z" opacity=".5" style="mix-blend-mode:multiply"/>
  <path stroke="#363636" stroke-linecap="round" stroke-linejoin="round" d="M88.28 265.402s-5.483 13.104-5.483 20.109c0 7.006.303 33.505-1.22 38.686-1.522 5.181-1.522 7.621.615 8.528s7.006.615 8.225 1.522c1.22.907 7.308 3.054 8.83 1.834 1.522-1.219-9.132-7.62-10.352-10.059-1.22-2.439 4.566-28.627 7.61-34.725 3.045-6.098 7.308-24.675 7.308-26.802 0-2.127-15.533.907-15.533.907Z"/>
  <path fill="#0157E4" stroke="#363636" stroke-linecap="round" stroke-linejoin="round" d="m88.895 326.022-2.44 3.054-5.326-3.249c-1.044 4.068-.83 6.088 1.063 6.898 2.127.917 7.006.615 8.225 1.522 1.22.907 7.308 3.054 8.83 1.834 1.522-1.219-9.132-7.62-10.352-10.059Z"/>
  <path fill="#fff" d="M57.214 266.622s-4.878 5.795-6.703 17.367c-1.824 11.572-2.136 45.994-2.439 50.873-.302 4.878-.605 5.786 2.44 7.308 3.044 1.522 10.049 4.878 11.873 4.878 1.825 0 2.44-1.22 0-5.483-2.439-4.264-9.132-6.098-9.132-9.757s15.23-46.004 17.055-52.688a47.175 47.175 0 0 0 1.844-11.278l-14.938-1.22Z"/>
  <path fill="#0157E4" d="M50.511 283.989c-1.824 11.572-2.136 45.994-2.439 50.873-.302 4.878-.585 5.746 2.283 7.23.078-5.181.342-15.455 1.19-27.876 1.23-18.001 5.318-40.501 5.318-40.501a46.833 46.833 0 0 0 9.406 2.039 33.42 33.42 0 0 0 4.771.361c.63-2.716 1-5.487 1.102-8.273l-14.928-1.22s-4.878 5.786-6.703 17.367Z" opacity=".5" style="mix-blend-mode:multiply"/>
  <path stroke="#363636" stroke-linecap="round" stroke-linejoin="round" d="M57.214 266.622s-4.878 5.795-6.703 17.367c-1.824 11.572-2.136 45.994-2.439 50.873-.302 4.878-.605 5.786 2.44 7.308 3.044 1.522 10.049 4.878 11.873 4.878 1.825 0 2.44-1.22 0-5.483-2.439-4.264-9.132-6.098-9.132-9.757s15.23-46.004 17.055-52.688a47.175 47.175 0 0 0 1.844-11.278l-14.938-1.22Z"/>
  <path fill="#0157E4" stroke="#363636" stroke-linecap="round" stroke-linejoin="round" d="M62.395 347.048c1.835 0 2.44-1.22 0-5.483-1.727-3.025-5.59-4.879-7.698-6.928l-2.654 2.664-3.97-2.215c-.303 4.664-.547 5.591 2.448 7.084 2.995 1.492 10.04 4.878 11.874 4.878Z"/>
  <path fill="#fff" d="M74.358 84.285a6.938 6.938 0 0 0-2.625-4.644c-2.42-1.815-11.299-2.225-15.133 2.624-3.835 4.85-2.225 16.753-1.62 17.963 0 0-5.044-3.025-5.454 1.619-.41 4.645 1.825 6.83 4.244 6.83a3.476 3.476 0 0 0 3.23-1.815s5.25 6.459 12.518 7.269c7.269.81 11.299-7.269 12.313-12.118 1.015-4.849-6.459-12.479-7.474-17.728Z"/>
  <path fill="#0157E4" d="M65.05 108.843c-4.88-3.278-8.187-10.235-9.416-15.143-.907-3.62.195-8.78.83-11.26-3.66 4.957-2.079 16.588-1.484 17.788 0 0-5.044-3.025-5.454 1.619-.41 4.645 1.825 6.83 4.244 6.83a3.476 3.476 0 0 0 3.23-1.815s5.25 6.459 12.518 7.269a8.638 8.638 0 0 0 6.254-1.776 19.818 19.818 0 0 1-10.723-3.512Z" opacity=".5" style="mix-blend-mode:multiply"/>
  <path stroke="#363636" stroke-linecap="round" stroke-linejoin="round" d="M74.358 84.285a6.938 6.938 0 0 0-2.625-4.644c-2.42-1.815-11.299-2.225-15.133 2.624-3.835 4.85-2.225 16.753-1.62 17.963 0 0-5.044-3.025-5.454 1.619-.41 4.645 1.825 6.83 4.244 6.83a3.476 3.476 0 0 0 3.23-1.815s5.25 6.459 12.518 7.269c7.269.81 11.299-7.269 12.313-12.118 1.015-4.849-6.459-12.479-7.474-17.728Z"/>
  <path stroke="#363636" stroke-linecap="round" stroke-linejoin="round" d="M71.42 87.339a9.64 9.64 0 0 0 .264 4.634c.8 1.952 3.834 4.098 3.444 4.879-.39.78-1.717 1.063-1.717 1.063m-.137 5.952s-1.853.8-4.624-.917"/>
  <path fill="#363636" d="M65.927 91.983c.137.83-.078 1.551-.468 1.62-.39.068-.83-.556-.976-1.386-.146-.83.078-1.551.469-1.61.39-.058.839.547.975 1.376Zm8.363-3.268c.262.8.165 1.541-.216 1.668-.38.127-.907-.41-1.17-1.21-.264-.8-.166-1.541.214-1.668s.908.41 1.171 1.21Z"/>
  <path stroke="#363636" stroke-linecap="round" stroke-linejoin="round" d="M61.644 90.383s-.4-2.927 1.844-3.834c2.244-.908 3.444-.264 3.444-.264m4.245-.137s.243-2.351 1.717-2.107"/>
  <path fill="#363636" stroke="#363636" stroke-linecap="round" stroke-linejoin="round" d="M89.9 268.573s5.25 0 15.543-2.019c10.293-2.02 12.313-3.835 12.313-3.835s-2.625-19.377-3.025-28.061c-.4-8.683-5.737-38.696-8.43-48.521-3.171 2.225-8.059 4.674-15.61 6.771a40.689 40.689 0 0 1-30.384-3.336c-.975 2.488-4.205 10.849-4.546 16.586-.41 6.83 1.414 12.919 1.61 20.187.195 7.269-7.874 40.365-7.874 40.365a84.752 84.752 0 0 0 19.387 5.454 55.637 55.637 0 0 0 21.192-.4l-.176-3.191Z"/>
  <path stroke="#fff" stroke-linecap="round" stroke-linejoin="round" d="m89.9 268.573-1.005-58.912 5.484-9.445"/>
  <path stroke="#fff" stroke-linecap="round" stroke-linejoin="round" stroke-width=".5" d="M72.074 195.777a12.985 12.985 0 0 1-7.259 9.337m-2.42 59.742c-.42 2.82-.683 4.547-.683 4.547"/>
  <path stroke="#fff" stroke-linecap="round" stroke-linejoin="round" stroke-width=".5" d="M65.85 194.392a52.614 52.614 0 0 0-1.727 18.674c1.034 9.679 1.726 26.617.341 36.979a986.085 986.085 0 0 1-1.532 11.045m-10.908.361s10.732 8.644 35.603 5.854m5.181-3.044s10.732.692 23.163-6.567"/>
</svg>
