<svg xmlns="http://www.w3.org/2000/svg" width="364" height="354" fill="none" viewBox="0 0 364 354">
  <path fill="#0157E4" d="M244.183 39.08c-3.201 8.981-1.923 19.53-.569 30.695.261 2.119.513 4.266.746 6.403-4.666-3.173-21.325-14.936-27.494-22.506-3.565-4.407-7.466-13.284-10.77-21.956 13.691 5.526 27.466 6.749 38.423 6.431l-.336.934ZM63.995 305.692c-.616 1.297-1.568 3.837-2.595 6.74 8.185 2.446 17.648 4.733 28.437 7.141a64.165 64.165 0 0 0 4.153-6.189c6.43-11.015 14.606-11.202 18.442-10.558.065-5.265-.355-11.986-2.464-22.526a57.947 57.947 0 0 0-3.509-11.276c-14 6.282-27.065 21.106-27.28 21.293l-.999-.868c-2.8 5.536-7.037 9.335-10.266 12.135-1.829 1.625-3.415 3.062-3.92 4.108ZM265.033 48.864c-13.626.41-18.983 5.676-20.075 6.936.205 4.369.756 8.952 1.325 13.648.271 2.212.532 4.453.775 6.684 4.031-.934 11.927-2.25 18.329-.103 5.945 1.989 17.621.756 23.454 0-3.426-2.912-6.16-6.152-7.075-8.915-1.773-5.405-12.319-14.721-16.733-18.25Zm-96.446 259.945c2.903-1.466 5.413-2.707 7.383-3.463l2.09-.813c2.66-1.045 5.553-2.165 9.118-3.351-.494-3.949-1.978-17.139-1.325-28.603.635-11.202-20.822-31.104-26.543-36.22-.046.28-.093.57-.149.85-2.193 11.108-11.647 20.742-23.724 25.615 1.867 1.652 6.822 6.777 11.853 19.193 3.164 7.804 11.199 16.206 18.273 23.609l3.024 3.183ZM80.812 279.87a26.194 26.194 0 0 1-1.194 5.956c4.554-4.724 14.68-14.386 25.693-19.286a70.007 70.007 0 0 0-15.866-21.303 22.855 22.855 0 0 1-9.043 7.393 142.337 142.337 0 0 1 .41 27.24Zm37.089-16.336c18.357.121 35.679-11.912 38.628-26.848 2.641-13.443-2.156-27.072-3.434-30.33-4.489 1.083-8.997 2.101-13.299 3.072-6.431 1.446-12.497 2.8-16.799 4.07-15.306 4.434-21.382 13.563-29.063 25.13-.933 1.428-1.941 2.903-2.949 4.387a71.029 71.029 0 0 1 16.855 22.498 28.729 28.729 0 0 1 10.061-1.951v-.028Zm179.619-70.462c7.233-5.545 12.851-14.768 17.088-22.871a68.665 68.665 0 0 0-15.203-7.412c-9.043-2.865-20.999-5.199-30.602-7.066-12.133-2.362-16.846-3.38-18.152-4.668a10.935 10.935 0 0 1-1.354-1.68 17.933 17.933 0 0 0 3.64 11.37c1.867 2.418 3.883 4.817 5.861 7.132 7.252 8.467 14.093 16.467 10.126 25.102a34.881 34.881 0 0 1-9.183 11.762c5.086.794 15.091 2.502 25.861 5.107-.289-2.493.784-8.197 11.918-16.748v-.028ZM60.756 104.109c.933 6.88-7.923 23.067-13.449 27.455 2.66 2.417 8.335 8.037 11.918 14.861 2.987 5.704 6.347 11.678 10.117 15.282 1.96-5.779 7.466-20.202 14.205-22.955 1.95-.794 3.425-3.501 4.022-7.468 1.139-7.469-1.092-18.232-6.206-22.451-6.356-5.228-19.338-11.203-24.863-13.667 2.296 3.603 3.957 6.843 4.256 8.943Zm102.53-88.487c.884.242 1.77.494 2.66.756a114.37 114.37 0 0 0-8.707 17.494c4.545-1.307 14.055-2.455 22.613 6.712 5.525 5.918 8.213 13.526 10.574 20.238 2.361 6.712 4.414 12.519 8.54 13.76a157.737 157.737 0 0 0 17.517 4.07c.364-9.335-1.577-21.47-1.922-23.58-4.041-5.153-8.4-15.356-11.853-24.766-12.002-5.088-25.273-10.791-39.422-14.684ZM45.544 260.845c1.866 1.344 12.412 9.606 15.464 22.096 2.39 9.783 7.96 11.679 9.977 12.052a24.976 24.976 0 0 0 7.14-15.31c.687-8.683.568-17.411-.355-26.073a23.27 23.27 0 0 1-3.313.71c-7.14 1.008-15.371-.934-24.527-3.585-.373 1.802-1.456 4.985-4.386 10.11Zm41.913-17.494c-3.546-4.275-19.841-24.038-26.654-34.036-2.8 2.101-9.856 7.991-11.05 13.667l-1.783-.373c4.078 10.268 2.875 21.732 2.324 25.438 16.239 4.751 28.512 7.001 37.163-4.696Zm14.298-166.687c-12.74-1.568-18.544-3.8-20.97-5.078-2.66 6.31-8.848 22.217-10.752 27.071a81.387 81.387 0 0 1 13.01 8.103c3.388 2.801 5.6 7.739 6.7 12.995 4.667-2.054 16.324-8.346 19.6-21.042 3.154-12.135-.178-19.118-2.035-21.862a34.191 34.191 0 0 1-5.534-.187h-.019Zm25.339-54.592c-5.404 7.188-7.317 21.9-7.336 22.05l-.448-.056c6.533 6.432 11.694 10.922 13.813 12.733a59.77 59.77 0 0 1 7.942-7.114c5.413-4.359 11.545-9.335 12.758-14.002 1.278-4.901 5.599-13.685 9.435-20.108a121.6 121.6 0 0 0-30.247-4.667 45.14 45.14 0 0 1-5.899 11.164h-.018Zm10.994 65.495c3.238 10.502.812 17.924-1.531 25.093-1.381 4.229-2.8 8.588-3.098 13.629a22.91 22.91 0 0 0 1.26 8.719h.065l.252-.131c.849-.317 21.027-7.729 33.075-5.302a68.578 68.578 0 0 0 16.407 1.531c-2.016-8.121 2.539-22.535 7.14-30.124 2.427-4.005 7.466-5.956 12.31-7.842 5.712-2.221 11.115-4.313 12.039-9.335.14-.765.243-1.587.327-2.436a163.643 163.643 0 0 1-18.106-4.201c-5.431-1.634-7.681-8.028-10.266-15.43-2.277-6.47-4.862-13.789-10.005-19.306-9.146-9.802-19.356-6.329-21.652-5.367-1.745 5.283-7.961 10.268-13.476 14.73-3.528 2.8-6.869 5.517-8.278 7.692a48.356 48.356 0 0 1-7 8.542c1.848 1.55 6.57 6.47 10.537 19.538Zm128.4 104.292c3.248-7.076-3.051-14.442-9.724-22.236-2.016-2.343-4.088-4.771-5.964-7.254-4.218-5.601-4.722-11.528-3.817-17.736-.215-.588-.336-.99-.345-1.046l.532-.149c.55-3.202 1.418-6.469 2.305-9.802.886-3.333 1.81-6.777 2.454-10.325.644-3.547.066-6.329-1.689-8.56-3.808-4.817-11.983-5.293-12.067-5.302v-.168a92.834 92.834 0 0 1-11.573 6.73 154.3 154.3 0 0 0-18.824 11.118c-7.093 5.004-10.826 12.276-12.814 20.117l.14.271-.243.122c-2.072 8.401-2.156 17.512-2.23 25.139-.056 6.226-.112 11.603-1.148 15.356a10.394 10.394 0 0 1-3.304 4.798c7.205 4.08 15.212 8.225 16.696 8.402.934-.093 2.94.429 9.949 2.371 8.465 2.353 21.26 5.9 27.121 5.909 8.885-.028 20.122-8.159 24.545-17.755Zm-45.236 126.024c-2.352-16.636-12.842-19.044-13.28-19.137l-.336-.066a154.346 154.346 0 0 0-28.596 8.402l-2.109.812c-1.689.653-3.892 1.727-6.43 3.006 4.666 5.041 8.511 9.755 9.846 13.872 1.96 6.012 2.034 16.719 1.736 25.653a90.899 90.899 0 0 0 11.199-.934 78.584 78.584 0 0 0 29.94-11.006 22.846 22.846 0 0 1-.934-7.244c-.05-4.48-.396-8.952-1.036-13.386v.028Zm4.331 19.127a149.154 149.154 0 0 0 19.701-15.561 69.807 69.807 0 0 0 9.006-10.474l.654-.869c-4.387-5.526-7.914-11.827-9.081-18.67a36.917 36.917 0 0 1-.084-12.023c-3.994 6.17-12.133 14.637-27.504 17.232-2.072.346-4.022.7-5.88 1.046 3.976 2.296 9.772 7.645 11.489 19.771a104.654 104.654 0 0 1 1.139 13.751c-.06 1.948.128 3.896.56 5.797ZM33.887 206.319a39.614 39.614 0 0 1 9.94 8.952 28.82 28.82 0 0 1 3.583 6.059c1.997-6.329 9.193-12.22 11.918-14.264-6.393-10.316-5.936-18.344 1.521-28.258 5.899-7.841 7.317-12.807 7.625-14.226-4.46-3.734-8.185-10.269-11.656-16.887-3.733-7.086-10.014-12.967-12.03-14.741-2.446 2.222-8.661 16.412-13.458 29.369 4.424 5.834 9.006 11.865 7.895 19.473a223.007 223.007 0 0 1-5.31 24.504l-.028.019Zm255.765 33.662a58.718 58.718 0 0 1 6.655 3.566 94.242 94.242 0 0 1 13.514-7.599 98.264 98.264 0 0 1-15.269 3.352l-4.9.681Zm40.803-29.377c4.555-1.933 5.927-2.521 5.936-9.83 0-4.257-.317-9.905-.672-14.778l-.41.421a144.784 144.784 0 0 0-18.461-14.713c-4.349 8.299-10.144 17.737-17.732 23.553-11.731 9.008-10.985 14.002-10.817 14.693.16.223.303.457.43.7 5.133 1.307 10.34 2.801 15.184 4.509 4.844 1.709 8.866 3.221 12.207 4.593l-.121-.149a55.725 55.725 0 0 1 12.067-7.954c.896-.41 1.69-.747 2.417-1.064l-.028.019ZM90.257 122.537a33.22 33.22 0 0 1 0 9.185c-.57 3.734-1.867 6.591-3.733 8.262a36.236 36.236 0 0 0 21.223 4.77c10.098-.933 20.103-5.862 24.582-8.346a25.543 25.543 0 0 1-1.549-10.268c.308-5.386 1.792-9.923 3.229-14.311 2.315-7.085 4.499-13.778 1.521-23.468-4.302-13.938-9.23-17.933-10.079-18.54a29.936 29.936 0 0 1-15.063 6.806c2.128 3.79 4.666 11.202 1.652 22.787-3.845 14.59-17.21 21.228-21.783 23.123Zm212.788 95.133c-4.33-1.512-8.941-2.875-13.533-4.07.122 2.502-.802 6.217-4.853 11.202-4.05 4.985-7.83 10.017-11.022 14.376 3.034-.261 9.016-.933 20.533-2.539 17.088-2.418 27.065-8.065 30.322-10.194a179.245 179.245 0 0 0-21.447-8.775Zm15.548-134.994c-1.418.336-2.566.55-3.611.7-1.195.168-2.25.252-3.425.355a83.537 83.537 0 0 0-5.115.541c-3.556.504-9.501-2.222-14.708-5.993-.56.084-1.316.205-2.231.327-5.926.84-18.348 2.193-24.984 0-5.907-1.98-13.579-.598-17.219.27a81.6 81.6 0 0 1 .233 14.059c-.559 6.432-2.967 10.717-6.691 14.171 3.117.55 8.343 2.044 11.479 5.993 2.259 2.856 3.015 6.46 2.231 10.716-.663 3.65-1.596 7.151-2.501 10.53a101 101 0 0 0-2.324 10.026 14.814 14.814 0 0 0 2.8 4.827c1.073.933 9.407 2.52 16.799 3.958 9.668 1.867 21.708 4.219 30.901 7.141a70.947 70.947 0 0 1 15.632 7.552 383.89 383.89 0 0 0 2.445-4.929c2.007-4.089 3.453-7.048 4.667-8.401 2.734-3.025 7.932-15.394 9.706-19.912-.14-4.21-.252-8.355-.318-12.089-8.203-11.249-14.643-22.535-13.859-35.912.093-1.316.121-2.633.112-3.93h-.019ZM110.061 147.18c-.69.103-1.39.187-2.081.243a38.256 38.256 0 0 1-24.07-5.872c-5.226 2.931-10.33 15.786-12.347 21.947a8.974 8.974 0 0 0 3.547 1.456l2.174.318c5.768.83 10.322 1.484 21.466 6.637 11.451 5.311 22.399 32.589 24.685 38.694 4.275-1.177 9.865-2.437 15.763-3.734 9.856-2.222 21.466-4.845 31.069-8-2.8-6.115-13.308-29.014-20.252-37.742-1.549-1.951-3.257-3.93-4.918-5.844-4.443-5.172-8.969-10.437-11.722-16.374-4.461 2.455-13.58 6.899-23.295 8.271h-.019Zm57.509-15.001c-10.845-2.185-29.753 4.518-31.498 5.143l-.374.234c2.604 5.731 7.056 10.884 11.414 15.935 1.671 1.932 3.398 3.939 4.984 5.927 7.326 9.214 18.069 32.673 20.71 38.545 8.53-3.025 14.932-6.535 16.08-10.567.933-3.408.989-8.626 1.045-14.666.075-7.626.159-16.654 2.156-25.204-1.297-2.521-4.349-8.551-6.663-13.798-2.287.187-8.428.355-17.835-1.549h-.019Zm38.666-7.272a155.786 155.786 0 0 1 19.132-11.305c11.554-6.049 18.526-9.69 19.506-20.948a77.084 77.084 0 0 0-.187-13.07h-.084l-.532-.363c-.793-.523-17.322-11.65-26.244-20.537.887 6.338 2.165 18.054.784 25.587-1.194 6.535-7.559 8.98-13.71 11.37-4.666 1.802-9.025 3.51-10.984 6.731-5.152 8.495-9.072 23.197-6.393 29.415 1.735 4.032 4.022 8.7 5.599 11.902 2.315-7.254 6.253-13.928 13.113-18.782Zm-66.692 193.161c6.001 2.222 17.611-3.435 26.551-7.963l-2.473-2.595c-7.251-7.58-15.464-16.168-18.824-24.458-5.926-14.618-11.61-18.567-11.666-18.604l.625-.934a46.091 46.091 0 0 1-15.866 2.801 25.592 25.592 0 0 0-8.95 1.755 61.012 61.012 0 0 1 3.631 11.762c2.277 11.379 2.632 18.409 2.501 23.944 1.988 1.298 16.09 11.202 24.471 14.292ZM318.612 82.676c0-.934 0-1.867-.065-2.745.046.906.065 1.82.065 2.745ZM208.84 295.665c.184-.166.347-.354.485-.56 1.036-1.522 2.343-5.778-.467-17.242-2.51-10.269-6.533-14.815-10.088-18.81-3.034-3.417-5.899-6.647-6.739-12.603a547.797 547.797 0 0 1-1.148-8.877c-1.185-9.503-2.408-19.333-4.666-24.514a120.5 120.5 0 0 0-7.793-14.404c-6.384 2.726-14.428 5.041-22.697 7.104 1.409 3.631 5.291 15.057 4.031 27.464 1.96 1.689 29.576 25.652 28.773 39.562-.615 10.819.71 23.235 1.251 27.622 3.201-.999 6.944-2.025 11.461-3.08l-3.733-.803 9.071-.364 2.259-.495Zm5.273-89.411c-4.051-1.13-8.241-2.288-9.006-2.297-1.951.28-11.377-4.789-18.918-9.092l.355-.626a36.493 36.493 0 0 1-5.656 3.277 119.089 119.089 0 0 1 7.83 14.479c2.38 5.526 3.621 15.552 4.825 25.204.364 2.941.747 5.984 1.148 8.831.728 5.153 3.089 7.823 6.085 11.202a41.512 41.512 0 0 1 10.696 19.959c1.997 8.168 2.295 14.124.933 17.737a314.68 314.68 0 0 1 5.478-.981c17.826-3.006 25.199-14.273 27.672-19.491a37.165 37.165 0 0 1-21.148-12.463c-6.711-8.149-5.283-14.441-3.631-21.732a62.665 62.665 0 0 0 1.68-10.044 38.28 38.28 0 0 0-5.693-21.956l1.4-.934-4.05-1.073Zm-151.09-25.849c-7.083 9.419-7.279 16.289-.746 26.259 5.852 8.934 22.324 28.995 26.795 34.4.933-1.316 1.764-2.623 2.613-3.893 7.466-11.202 13.915-20.938 29.165-25.802-2.38-6.18-12.935-32.253-23.23-37.023-10.76-4.985-15.147-5.601-20.7-6.422l-2.193-.318a11.19 11.19 0 0 1-3.873-1.391c-.71 2.437-2.641 7.3-7.83 14.19ZM65.73 41.209a19.238 19.238 0 0 0-.933 1.634c.261-.55.597-1.092.933-1.634Zm-6.906 270.447c1.073-3.034 2.081-5.732 2.8-7.123.737-1.54 2.426-3.034 4.554-4.929a93.472 93.472 0 0 0 2.679-2.427c-3.173-1.111-8.138-4.322-10.416-13.601-2.706-11.081-12.132-18.81-14.232-20.406a100.015 100.015 0 0 1-2.035 3.202c-4.769 7.244-10.798 18.8-15.025 27.23-.196-.252-.374-.513-.56-.775 6.355 8.775 17.835 14.526 34.848 19.604l-2.613-.775ZM26.03 292.108Zm-4.172-35.902a97.18 97.18 0 0 1 .373-1.998c-.102.653-.252 1.316-.373 1.998ZM63.79 44.626ZM51.06 87.343c1.25 1.671 2.473 3.38 3.612 5.041l.327-.775c.429.178 6.178 2.586 12.692 5.863 2.203-5.676 9.147-23.497 11.321-28.397.933-2.157-2.165-5.602-5.478-9.336-3.79-4.21-8.083-8.98-9.585-14.693l-.112-.448c-6.45 12.518-6.048 26.064-11.489 39.833a48.657 48.657 0 0 1-1.288 2.903v.01ZM22.24 254.18c.122-.654.252-1.288.383-1.914 4.947-3.36 14-7.683 25.068-4.947.644-4.743 1.97-20.192-5.964-30.423-5.749-7.468-13.532-11.016-20.401-14.18-1.643-.757-3.201-1.475-4.666-2.213a210.941 210.941 0 0 1-3.454-5.218c2.343 1.802 5.6 3.304 9.23 4.994 2.8 1.307 5.964 2.754 9.09 4.565a218.085 218.085 0 0 0 5.068-23.403c.934-6.488-3.285-12.061-7.373-17.457-2.8-3.734-5.758-7.58-6.915-11.706-1.717-6.142-4.05-20.397-5.6-30.386a94.086 94.086 0 0 1 2.361-2.343c1.512 9.942 4.032 25.662 5.805 32.001a26.634 26.634 0 0 0 4.527 8.224c1.082-2.866 3.07-8.019 5.273-13.172 6.888-16.149 8.997-16.448 10.126-16.607 2.65-.373 14.298-18.241 13.271-25.513-.392-2.8-4.125-8.56-8.474-14.469-10.798 18.969-32.3 23.263-44.965 49.084-13.822 28.173 6.533 53.322 18.983 71.46 9.715 14.049 2.249 25.083-1.372 43.623Zm17.62 10.754c5.75-8.728 7.131-13.172 7.467-14.89-12.263-3.136-21.96 3.342-25.497 6.199a87.142 87.142 0 0 0-1.344 16.271c.093 7.468 1.699 13.517 4.853 18.614 4.256-8.401 9.958-19.258 14.522-26.194Zm274.105-30.89-.121.047.121-.047Zm4.023-1.811 4.265-1.914-4.265 1.914Zm43.733-59.436c-2.118 2.156-4.274 4.06-6.253 5.787l-1.67 1.485c-4.741 4.228-13.122 13.881-14.821 15.869.066 1.727.103 3.389.103 4.883 0 8.709-2.333 10.063-7.569 12.294a85.82 85.82 0 0 0-2.314 1.008 52.792 52.792 0 0 0-10.481 6.74 95.81 95.81 0 0 1 11.573 5.732l-2.95 1.409-.158-.093-.663.476c-1.391.644-2.8 1.288-4.2 1.867 20.243-9.12 40.654-19.604 40.607-45.91a57.22 57.22 0 0 0-1.176-11.585l-.028.038Zm-92.628 147.587a57.35 57.35 0 0 1 .028-.037l-.028.037ZM227.3 346.625l-.747-1.269c-.989-1.69-1.736-3.081-2.314-4.313a81.023 81.023 0 0 1-30.584 11.146 89.37 89.37 0 0 1-11.703.933c0 .309 0 .589-.047.878 9.968 0 22.726-1.718 40.029-5.937a156.4 156.4 0 0 0 8.026-2.213l-2.66.775Zm-114.794-21.713a283.188 283.188 0 0 1-.513-5.863 65.24 65.24 0 0 1 .103-9.885c.065-1.158.14-2.353.196-3.613-2.8-.626-10.08-.999-16.043 9.223-1.13 1.932-2.334 3.734-3.565 5.47l-2.866-.634c4.097.933 8.4 1.867 12.842 2.8a120.2 120.2 0 0 1 9.846 2.521v-.019Zm171.696-84.249c-6.608.84-10.621 1.223-12.599 1.307l-.476.662c-1.549 2.119-2.875 3.958-4.051 5.517-.625.841-1.558 1.867-2.734 3.193-3.901 4.369-10.481 11.734-13.999 21.237 3.236.37 6.505.338 9.734-.093a52.47 52.47 0 0 1 21.624 1.932c1.12-10.427 2.604-19.603 8.287-25.559a38.695 38.695 0 0 1 3.958-3.603 50.531 50.531 0 0 0-9.744-4.593Zm9.389-195.337c-4.993 4.266-8.633 4.089-15.866 3.734-2.352-.112-5.133-.252-8.521-.27 4.611 3.939 13.318 11.902 15.138 17.4.933 2.931 4.228 6.357 8.017 9.242 4.946 3.734 10.807 6.534 13.747 6.16a78.933 78.933 0 0 1 5.264-.569 40.28 40.28 0 0 0 7.195-1.12c-.877-17.438-9.398-30.246-21.344-37.62-1.176.999-2.37 1.998-3.63 3.071v-.028ZM269.12 320.347a60.757 60.757 0 0 0 9.38-22.152c-1.074.177-2.137.355-3.164.541-8.596 1.587-12.702 5.788-16.92 11.258a85.907 85.907 0 0 0 10.704 10.353Zm9.38-22.152c.205-.934.41-1.867.588-2.801-.178.924-.383 1.867-.588 2.801Zm-16.155-48.617c1.082-1.214 2.025-2.269 2.585-3.016 1.157-1.54 2.482-3.369 4.022-5.479l.112-.159c-.84-1.288-4.526-6.282-15.455-13.069A202.461 202.461 0 0 1 230.1 210.79l.252-.289c-3.509-.803-7.252-1.774-10.808-2.735a40.429 40.429 0 0 1 5.6 22.712 66.087 66.087 0 0 1-1.745 10.465c-1.615 7.132-2.8 12.294 3.089 19.426a34.66 34.66 0 0 0 20.112 11.66v-.168l1.055.308c3.612-10.194 10.593-17.98 14.69-22.591Zm-1.867 25.597a42.55 42.55 0 0 1-10.966 0 34.87 34.87 0 0 0-.98 15.785c1.045 6.077 4.172 11.79 8.138 16.878 4.219-5.386 8.978-10.082 18.181-11.781 1.372-.252 2.799-.485 4.237-.709 1.185-6.199 1.764-12.36 2.352-18.176a49.797 49.797 0 0 0-20.962-1.969v-.028Zm-82.689 50.409c-1.232-3.781-5.114-8.402-9.78-13.443-6.841 3.473-14.728 7.422-21.354 8.691a69.683 69.683 0 0 1 5.6 15.403c2.258 8.813 12.263 13.844 27.13 14.162.318-8.738.252-19.184-1.596-24.785v-.028Zm104.808-102.49c4.237-5.19 4.48-8.514 4.134-10.213-13.672-3.397-26.514-5.377-29.958-5.881a29.28 29.28 0 0 1-12.133 5.069c-.881.122-1.77.185-2.66.187a40.84 40.84 0 0 1-6.794-.784 205 205 0 0 0 19.86 14.115c9.772 6.049 14 10.791 15.717 13.069 3.35-4.659 7.326-10.054 11.834-15.562Zm-52.609 122.71c18.609-5.732 30.173-13.928 37.499-23.254a87.056 87.056 0 0 1-10.751-10.315 4.668 4.668 0 0 0-.262.345 73.043 73.043 0 0 1-9.332 10.848 150.102 150.102 0 0 1-20.533 16.159 46.804 46.804 0 0 0 2.324 4.368c.342.629.694 1.245 1.055 1.849Zm-48.055 8.149c-.933 0-1.81 0-2.678-.046v-.841c-16.118-.382-27.065-6.142-29.623-16.168-2.37-9.223-4.993-14.171-5.889-15.702a12.664 12.664 0 0 1-5.17-.606c-7.634-2.801-19.328-10.68-23.668-13.695 0 .822-.093 1.615-.14 2.399a64.138 64.138 0 0 0-.103 9.513c.187 2.417.402 4.77.616 6.954 31.573 10.465 34.774 28.183 66.655 28.192Zm-67.065-314.35c.849.869 1.67 1.69 2.492 2.512.681-4.229 2.846-15.329 7.606-21.658a40.802 40.802 0 0 0 5.17-9.512h2.884a88.951 88.951 0 0 0-36.351 6.898 189.582 189.582 0 0 0 18.199 21.76Zm219.993 135.845c0-.14-.56-8.729-.831-10.633-.168-1.204-.691-11.949-1.12-23.776-2.24 5.237-5.656 12.723-7.98 15.291-.933 1.026-2.454 4.135-4.218 7.738a377.95 377.95 0 0 1-2.585 5.2 144.517 144.517 0 0 1 17.387 13.611 472.37 472.37 0 0 0-.653-7.431Zm-88.149-135.49a36.665 36.665 0 0 0-1.866 12.21c3.014-2.408 9.239-5.787 20.578-6.02 5.218-.113 9.193.083 12.376.242 6.962.336 9.837.476 13.999-3.099l2.875-2.427c.849.448 1.67.933 2.482 1.428a50.722 50.722 0 0 0-30.434-7.141 97.631 97.631 0 0 1-19.347 2.856 27.757 27.757 0 0 1-.663 1.951ZM96.669 17.853c-.747.308-1.484.625-2.23.933.746-.298 1.483-.625 2.23-.933Zm257.063 158.696a95.607 95.607 0 0 0 7.279-6.898c-4.489-16.897-15.968-30.283-25.88-43.38.392 16.103 1.409 37.116 1.559 38.18.289 2.016.821 10.437.849 10.791 0 .084.84 8.542 1.288 16.804 3.22-3.688 9.333-10.484 13.206-14.003l1.699-1.494ZM66.496 44.374c1.344 5.087 5.403 9.606 8.987 13.592 3.584 3.986 6.879 7.664 6.272 11.071 1.717.934 7.093 3.323 20.345 4.957 1.833.225 3.682.285 5.525.177l.542-.55c.161.157.313.322.457.494 8.931-.83 16.622-5.909 22.94-15.141-2.51-2.128-9.753-8.448-18.619-17.494a191.334 191.334 0 0 1-18.777-22.544l.27-.122C79.207 25.685 70.788 33.218 65.74 41.22c.252 1.036.476 2.1.756 3.155Zm295.252 128.385Z" opacity=".6"/>
  <path fill="#0157E4" d="M292.574 186.405c7.402-5.673 13.152-15.109 17.488-23.399a70.259 70.259 0 0 0-15.558-7.584c-9.255-2.932-21.49-5.32-31.318-7.23-9.245-1.795-14.269-2.865-16.79-3.82a40.087 40.087 0 0 0-2.255 3.524 17.806 17.806 0 0 0 2.808 5.387c1.911 2.474 3.974 4.928 5.998 7.297 7.422 8.662 14.422 16.848 10.363 25.682a35.682 35.682 0 0 1-9.398 12.034c5.205.812 15.444 2.56 26.466 5.225-.296-2.531.802-8.367 12.196-17.116Z"/>
  <path fill="#0157E4" d="M260.817 185.135c3.324-7.239-3.123-14.775-9.952-22.75-2.063-2.397-4.183-4.881-6.103-7.421a21.27 21.27 0 0 1-2.301-3.821 41.718 41.718 0 0 0 7.898 46.427 33.8 33.8 0 0 0 10.458-12.435Zm20.716 21.509c-11.079-2.751-21.623-4.594-27.277-5.492a41.617 41.617 0 0 0 26.981 9.179 7.45 7.45 0 0 0 .296-3.687Zm13.658.984a41.786 41.786 0 0 0 26.829-36.084c-2.799-2.225-6.075-4.689-9.637-7.048-4.451 8.49-10.382 18.146-18.147 24.097-12.006 9.216-11.241 14.326-11.07 15.033.164.228.311.467.44.716 3.887.984 7.803 2.073 11.585 3.286Zm-4.603 1.461a195.857 195.857 0 0 0-6.151-1.71c.037.941-.053 1.882-.268 2.799a41.145 41.145 0 0 0 6.419-1.089Zm23.256-53.6c1.337-2.731 2.436-4.957 3.372-6.552a41.76 41.76 0 0 0-52.782-18.9 41.754 41.754 0 0 0-16.3 12.071c3.018.955 9.608 2.226 15.577 3.391 9.895 1.91 22.216 4.317 31.623 7.306a72.577 72.577 0 0 1 16.008 7.765c.898-1.814 1.738-3.515 2.502-5.081Zm4.823-3.515c-.706 1.347-1.499 2.971-2.359 4.719-.859 1.747-1.69 3.438-2.645 5.319 3.056 2.006 5.912 4.098 8.443 6.056a41.083 41.083 0 0 0-3.439-16.094Zm-134.601 29.331a10.632 10.632 0 0 1-3.381 4.909c7.373 4.174 15.568 8.415 17.087 8.596.955-.095 3.008.44 10.181 2.426l1.413.392a90.725 90.725 0 0 0-23.667-45.491c-.363 4.699-.42 9.312-.458 13.486-.057 6.341-.115 11.843-1.175 15.682Z"/>
  <path fill="#0157E4" d="m127.372 129.339-.382.238c2.665 5.865 7.22 11.137 11.681 16.304 1.709 1.977 3.476 4.03 5.1 6.065 7.497 9.426 18.491 33.428 21.193 39.436 8.73-3.095 15.282-6.686 16.457-10.812.955-3.486 1.012-8.825 1.069-15.005.048-4.918.105-10.42.65-15.997a83.627 83.627 0 0 0-29.98-18.434c1.174-1.69 2.731-4.336 4.374-7.364-11.27-1.127-28.491 4.967-30.162 5.569Zm82.835 73.122a5.997 5.997 0 0 0-.305-.478l.21-.143c-.067-.411-.125-.822-.201-1.232l-2.693-.745c-4.145-1.156-8.434-2.34-9.217-2.35-1.996.287-11.643-4.899-19.36-9.302l.363-.64a37.342 37.342 0 0 1-5.788 3.352 121.878 121.878 0 0 1 8.014 14.814c2.435 5.654 3.705 15.911 4.937 25.787.373 3.009.765 6.122 1.175 9.035.745 5.272 3.162 8.004 6.227 11.461a49.161 49.161 0 0 1 6.17 8.157 90.905 90.905 0 0 0 10.506-57.306c.01-.143-.019-.277-.038-.41Z"/>
  <path fill="#0157E4" d="M181.144 282.994a84.161 84.161 0 0 0 16.981-20.057 43.071 43.071 0 0 0-6.609-9.083c-3.104-3.496-6.036-6.8-6.896-12.894a559.165 559.165 0 0 1-1.175-9.083c-1.213-9.722-2.464-19.78-4.775-25.08a123.327 123.327 0 0 0-7.975-14.709c-6.533 2.789-14.766 5.158-23.228 7.269 1.442 3.715 5.415 15.405 4.126 28.098 2.006 1.729 30.267 26.246 29.446 40.477a136.607 136.607 0 0 0 .105 15.062Zm-41.748-177.007c-.754.458-1.461.955-2.12 1.318a32.467 32.467 0 0 0-7.516-9.551c-.554 2.177-1.232 4.269-1.911 6.332-1.413 4.327-2.865 8.787-3.17 13.944a23.464 23.464 0 0 0 1.289 8.921h.067l.258-.134c.84-.315 20.19-7.421 32.616-5.635 3.362-6.456 6.686-13.83 7.641-17.468 1.566-6.39-.459-9.8-5.043-7.307-4.585 2.493-18.128 7.173-22.111 9.58Zm-.869 195.603c.182 1.423.43 3.018.803 4.842.512 2.39 1.27 4.72 2.263 6.953 5.358-1.7 11.366-4.67 16.504-7.268l-2.531-2.655c-7.421-7.756-15.826-16.543-19.264-25.024-6.065-14.957-11.881-18.997-11.939-19.035l.64-.955a47.13 47.13 0 0 1-16.236 2.865 26.21 26.21 0 0 0-9.16 1.796 62.484 62.484 0 0 1 3.716 12.034c2.149 10.745 2.626 17.698 2.578 23.161a77.979 77.979 0 0 0 32.626 3.286Zm35.807 48.49c0 .315 0 .601-.048.897a120.693 120.693 0 0 0 16.17-1.212 32.536 32.536 0 0 0-.822-1.185c-1.098.21-2.196.401-3.323.554a91.654 91.654 0 0 1-11.977.946Zm11.595-3.668c.563-.076 1.117-.172 1.671-.258a31.399 31.399 0 0 0-8.596-6.523c.344-9.188 1.471-26.16-.153-32.616a16.905 16.905 0 0 0-3.094-5.731 230.848 230.848 0 0 0-4.47 1.719l-2.159.831c-1.728.669-3.982 1.767-6.58 3.076 4.775 5.157 8.71 9.98 10.076 14.192 2.006 6.151 2.082 17.106 1.777 26.246a92.89 92.89 0 0 0 11.528-.936Z"/>
  <path fill="#0157E4" d="M170.045 321.981c-1.26-3.868-5.234-8.596-10.009-13.753-5.482 2.788-11.614 5.854-17.278 7.688a46.065 46.065 0 0 0 12.417 15.148c5.3 3.983 13.237 9.551 16.656 12.187.105-7.899-.181-16.37-1.786-21.27ZM80.467 114.21a33.988 33.988 0 0 1 0 9.398c-.582 3.821-1.91 6.743-3.82 8.453a37.086 37.086 0 0 0 21.719 4.88c10.334-.955 20.572-5.998 25.157-8.538a26.134 26.134 0 0 1-1.586-10.506c.316-5.511 1.834-10.153 3.305-14.642.793-2.454 1.576-4.861 2.149-7.354a36.819 36.819 0 0 0-15.616-6.304 30.301 30.301 0 0 0-8.815-.076c-.086.344-.163.688-.249 1.04-3.887 14.919-17.564 21.71-22.244 23.649Zm89.855 186.234c1.156-.459 2.36-.956 3.63-1.404-1.968-2.245-4.26-4.489-6.438-6.581a80.295 80.295 0 0 0 11.013-7.307c-.424-5.79-.5-11.601-.23-17.401.65-11.461-21.308-31.824-27.162-37.058-.048.287-.096.583-.153.869-2.245 11.366-11.92 21.222-24.279 26.208 1.911 1.69 6.982 6.934 12.13 19.637 3.238 7.984 11.461 16.58 18.701 24.154l3.094 3.257c2.971-1.5 5.54-2.77 7.555-3.544l2.139-.83Zm-93.188-18.51a93.244 93.244 0 0 0 1.776 1.49 83.023 83.023 0 0 0 24.183 13.83 111.192 111.192 0 0 0-2.531-21.672 59.223 59.223 0 0 0-3.59-11.537c-8.597 3.82-16.82 10.802-22.082 15.826.706.659 1.413 1.337 2.148 1.977l.096.086Zm2.464-42.158a23.39 23.39 0 0 1-9.255 7.564 145.599 145.599 0 0 1 .459 27.87c0 .191 0 .372-.067.554a80.175 80.175 0 0 0 2.177 2.225c5.387-5.176 13.878-12.416 22.923-16.418a71.634 71.634 0 0 0-16.237-21.795Zm-15.291 9.264a37.763 37.763 0 0 1-11.06-.305c.21.496.42.955.64 1.49.086.21.181.42.277.63.267.602.544 1.194.821 1.786l.163.344a95.093 95.093 0 0 0 2.187 4.288c.067.124.134.249.21.373.306.567.624 1.13.955 1.69l.287.478c.305.522.624 1.047.955 1.576l.286.468c.344.544.688 1.089 1.041 1.623l.22.344a88.748 88.748 0 0 0 4.193 5.826l.076.096c.459.582.955 1.156 1.395 1.729l.181.219c.363.44.726.86 1.099 1.29a145.57 145.57 0 0 0-.516-24.67 23.757 23.757 0 0 1-3.41.725Z"/>
  <path fill="#0157E4" d="M79.96 111.402c4.776-2.092 16.61-8.491 20.058-21.375a53.105 53.105 0 0 0-13.859 5.32l-.955.535a64.358 64.358 0 0 0-8.997 5.73 28.586 28.586 0 0 1 3.754 9.79Zm50.592 89.053c10.086-2.273 21.967-4.957 31.795-8.185-2.865-6.256-13.619-29.685-20.725-38.615-1.586-1.996-3.333-4.021-5.033-5.979-4.547-5.253-9.179-10.639-11.996-16.714-4.566 2.522-13.897 7.068-23.878 8.472-.707.105-1.423.191-2.13.248a39.16 39.16 0 0 1-24.631-6.007c-4.642 2.607-9.188 12.855-11.662 19.637a42.503 42.503 0 0 0 3.877 2.607c-.448.544-.869 1.117-1.308 1.671h.086l2.225.325c5.903.85 10.564 1.519 21.968 6.791 11.719 5.434 22.922 33.342 25.262 39.588 4.393-1.184 10.114-2.473 16.15-3.839Zm-21.795 58.041c18.787.124 36.513-12.187 39.531-27.469 2.703-13.753-2.206-27.697-3.514-31.031-4.594 1.108-9.207 2.149-13.61 3.143-6.581 1.48-12.789 2.865-17.192 4.164-15.664 4.537-21.881 13.877-29.742 25.711-.955 1.461-1.986 2.97-3.018 4.489a72.677 72.677 0 0 1 17.25 23.018 29.398 29.398 0 0 1 10.295-2.025Z"/>
  <path fill="#0157E4" d="M81.929 231.495c7.64-11.461 14.24-21.422 29.846-26.398-2.435-6.323-13.237-32.999-23.772-37.879-11.012-5.101-15.501-5.731-21.184-6.571l-2.244-.325a11.688 11.688 0 0 1-1.5-.354 86.858 86.858 0 0 0-6.81 10.955 89.512 89.512 0 0 0-8.08 22.378 35.013 35.013 0 0 0 3.658 6.972c5.989 9.141 22.846 29.666 27.42 35.196.908-1.357 1.796-2.675 2.666-3.974Zm-33.085-30.811a49.102 49.102 0 0 1-1.547-2.722 85.591 85.591 0 0 0-.611 4.441 41.704 41.704 0 0 1 2.158-1.719Zm18.882-88.48a29.83 29.83 0 0 0-1.795 13.458c-4.24-.507-10.64-1.175-15.215-1.29-6.628-.162-10.84-.659-11.547 1.633a55.948 55.948 0 0 1 9.551 12.646 188.382 188.382 0 0 0 2.311 4.288c2.847 3.031 5.86 5.9 9.026 8.596 2.53-6.848 7.545-18.261 13.553-20.706 1.996-.812 3.505-3.582 4.116-7.641.955-6.132-.363-14.479-3.639-19.751a24.035 24.035 0 0 0-6.36 8.767Zm9.876 125.614c-3.63-4.374-20.305-24.594-27.278-34.823-.955.736-2.454 1.911-4.03 3.401-.057.878-.115 1.747-.143 2.626v.057a82.078 82.078 0 0 0-.077 4.06v.124c0 1.346 0 2.703.105 4.059v.143a87.23 87.23 0 0 0 .296 4.117c.134 1.442.306 2.865.507 4.336.114.821.248 1.633.382 2.445l.143.783c.096.554.191 1.098.296 1.652.067.296.124.602.191.898.096.506.21 1.012.315 1.519.067.305.144.611.21.955.125.506.24 1.012.373 1.509.067.286.134.573.21.859.143.554.296 1.118.458 1.672.058.219.115.439.182.659.23.783.458 1.557.697 2.33.096.315.21.631.315.955 0 .096.058.201.096.296.114.344.22.688.344 1.022.124.335.143.42.22.631.19.544.39 1.088.591 1.623v.077c10.65 1.9 19.121.773 25.597-7.985Zm249.23-70.521c20.044-20.045 20.044-52.543 0-72.587-20.044-20.044-52.542-20.044-72.587 0-20.044 20.044-20.044 52.542 0 72.587 20.045 20.044 52.543 20.044 72.587 0Z"/>
  <path fill="#fff" d="M281.009 119.501a7.782 7.782 0 0 1-7.894 9.185 7.779 7.779 0 0 1-7.07-5.099 7.785 7.785 0 0 1 6.225-10.389 7.636 7.636 0 0 1 8.739 6.303Z"/>
  <path fill="#FFB100" d="M241.478 146.072a51.335 51.335 0 0 0 53.842 36.013 51.348 51.348 0 0 0 21.983-7.303c-34.24-13.371-40.84-52.167-40.84-52.167l-5.368-2.388c-17.363 7.211-25.663 17.421-29.617 25.845Zm95.882-36.122a51.35 51.35 0 0 0-53.082-29.888 51.343 51.343 0 0 0-20.384 7.071 44.976 44.976 0 0 0 9.475 33.428l3.123 2.073s22.339-28.051 60.868-12.684Z"/>
  <path fill="#fff" d="M281.009 119.501a7.782 7.782 0 0 1-7.894 9.185 7.779 7.779 0 0 1-7.07-5.099 7.785 7.785 0 0 1 6.225-10.389 7.636 7.636 0 0 1 8.739 6.303Z"/>
  <path fill="#fff" d="M324.43 137.384c6.613-.933 11.239-6.893 10.333-13.312-.905-6.419-7-10.866-13.612-9.934-6.613.933-11.239 6.893-10.334 13.312.906 6.42 7.001 10.867 13.613 9.934Z" opacity=".6"/>
  <path stroke="#fff" stroke-linecap="round" stroke-linejoin="round" stroke-width="6" d="M206.635 117.734s18.261 8.969 21.394 63.237"/>
  <path stroke="#363636" stroke-linecap="round" stroke-linejoin="round" stroke-width=".75" d="M40.563 128.966a121.698 121.698 0 0 0-6.828 28.051m20.105-53.752a121.38 121.38 0 0 0-9.78 17.315m208.477-19.951a120.924 120.924 0 0 0-19.828-21.538m20.754 161.946a121.48 121.48 0 0 0 19.427-45.128m-126.808 96.55a120.4 120.4 0 0 0 17.115-.057m-80.342-22.798a121.473 121.473 0 0 0 45.185 20.276m2.551-28.538a92.295 92.295 0 0 0 11.957 2.378m-72.797-53.724a93.663 93.663 0 0 0 54.011 49.254m-61.518-74.802a94.218 94.218 0 0 0 2.76 12.788m52.139-111.621a93.368 93.368 0 0 0-55.844 85.509m136.864-82.606a93.599 93.599 0 0 0-73.045-5.979m100.953 28.481a93.61 93.61 0 0 0-18.787-17m22.989 22.368a90.698 90.698 0 0 0-4.202-5.368m15.807 93.313a92.667 92.667 0 0 0 4.556-16.065m-27.65 50.687a93.436 93.436 0 0 0 23.094-34.622m-51.002 52.845a92.425 92.425 0 0 0 20.315-11.776"/>
  <path fill="#fff" stroke="#363636" stroke-linecap="round" stroke-linejoin="round" d="M142.864 85.051c-45.08 6.36-76.14 50.429-69.36 98.432 6.782 48.003 48.816 81.737 93.896 75.376 45.08-6.361 76.14-50.439 69.359-98.432-6.781-47.993-48.815-81.737-93.895-75.376Zm16.542 117.161c-15.692 2.216-30.334-9.551-32.693-26.246-2.359-16.695 8.453-32.053 24.145-34.268 15.692-2.216 30.333 9.55 32.693 26.245 2.359 16.696-8.453 32.044-24.145 34.269Z"/>
  <path fill="#FFB100" d="M182.739 180.933a2004.647 2004.647 0 0 1 49.664-11.719 93.81 93.81 0 0 0-.955-11.719c-.191-1.318-.41-2.627-.649-3.916-17.574 3.916-33.549 7.657-47.927 11.222a33.07 33.07 0 0 1 .612 3.143 32.033 32.033 0 0 1-.745 12.989ZM75.988 145.527c19.885-7.201 61.03-20.486 132.605-37.038a86.37 86.37 0 0 0-14.47-12.645c-53.265 12.597-88.46 23.103-110.15 30.362a88.663 88.663 0 0 0-7.985 19.321Zm45.605 17.565a30.116 30.116 0 0 1 12.417-19.828c-29.761 8.29-49.36 14.899-61.126 19.235a93.158 93.158 0 0 0 .076 16.638c8.606-3.285 24.174-8.834 48.633-16.045Zm97.258-40.993c-26.17 5.922-48.538 11.461-67.506 16.466a28.028 28.028 0 0 1 14.126 5.11 29.117 29.117 0 0 1 8.156 5.272c15.492-3.926 32.903-8.09 52.377-12.474a90.383 90.383 0 0 0-7.153-14.374Zm-22.063 119.922a83.244 83.244 0 0 0 20.363-21.013c-46.017 10.812-78.834 20.115-101.24 27.202a79.283 79.283 0 0 0 27.497 8.032c14.699-4.222 32.397-9.007 53.38-14.221ZM133.8 193.998a30.938 30.938 0 0 1-10.277-13.304c-22.349 6.533-37.66 11.776-47.354 15.377a91.225 91.225 0 0 0 5.52 14.594c10.287-3.801 27.125-9.522 52.111-16.667Zm93.159 7.832a90.17 90.17 0 0 0 4.413-16.991c-26.112 5.874-48.49 11.366-67.554 16.38-.773.239-1.557.439-2.359.621-34.24 9.054-57.496 16.475-72.224 21.652a88.103 88.103 0 0 0 10.898 12.769c23.132-7.831 63.427-19.923 126.826-34.431Z"/>
  <path fill="#0157E4" d="M177.715 234.418c.697-1.643 10.229-21.49 4.173-42.53a83.444 83.444 0 0 0-1.547-4.833 28.084 28.084 0 0 1-20.935 15.157 27.635 27.635 0 0 1-19.857-4.918 30.398 30.398 0 0 1-15.893-16.237c-1.136 7.01-1.91 14.899-.897 20.133 2.187 11.108 8.987 24.326 16.532 31.9 7.546 7.574 16.466 16.17 17.927 19.981.403 1.072.642 2.199.707 3.343a80.818 80.818 0 0 0 4.222-.468 77.506 77.506 0 0 0 19.732-5.502 10.509 10.509 0 0 1-2.407-3.6c-1.289-4.785-2.445-10.821-1.757-12.426Zm-64.039-101.966c.735.822 7.641 14.651 10.85 20.057.162.277.305.554.449.841a28.037 28.037 0 0 1 20.63-14.575 27.058 27.058 0 0 1 10.324.525 40.152 40.152 0 0 1 .143-5.73c.659-6.256-4.068-15.759-2.12-19.427 1.948-3.667 14.957-14.145 18.376-18.328a61.934 61.934 0 0 0 4.881-7.899 78.007 78.007 0 0 0-25.454-3.581c-.84 6.007-2.531 13.276-5.95 18.003-6.686 9.274-28.347 13.257-37.354 4.04-1.451-1.48-2.865-2.913-4.317-4.279a83.831 83.831 0 0 0-16.513 18.204l.64.335c8.28 4.059 24.679 10.993 25.415 11.814Z" opacity=".6" style="mix-blend-mode:multiply"/>
  <path fill="#fff" stroke="#363636" stroke-linecap="round" stroke-linejoin="round" d="M205.995 306.012s7.373 14.326 12.168 15.405c4.795 1.08 2.56-9.637-2.626-16.036a30.427 30.427 0 0 0-11.223-8.758s.143 6.046 1.681 9.389Z"/>
  <path fill="#fff" stroke="#363636" stroke-linecap="round" stroke-linejoin="round" d="M96.895 83.78s-12.263-1.66-19.685-1.851c-7.422-.191-11.834-.793-11.662 2.579.172 3.371 1.671 5.31 7.45 11.28 5.778 5.969 13.495 14.746 21.776 18.815 8.28 4.068 24.679 11.012 25.415 11.833.735.822 7.64 14.651 10.849 20.057 3.21 5.406 2.312 12.015 2.178 13.266-.134 1.252-6.132 24.298-3.944 35.396 2.187 11.098 8.987 24.326 16.532 31.9 7.545 7.574 16.466 16.179 17.927 19.981 1.462 3.801.077 7.077 2.092 16.972 2.015 9.894 9.245 19.656 15.807 24.593 6.561 4.938 17.191 12.417 18.242 13.458 1.051 1.041.669 13.476 2.646 18.748 1.977 5.272-.23 9.284 1.404 9.971 1.633.688 4.278 1.91 6.179-2.101 1.901-4.011.716-12.416-.707-15.931-1.423-3.515-3.314-6.007-3.868-9.942-.554-3.935 1.91-29.876-.153-38.204-2.063-8.329-18.146-19.035-19.388-23.782-1.242-4.747-2.445-10.754-1.757-12.416.687-1.662 10.229-21.49 4.173-42.53-6.055-21.041-17.44-31.767-19.331-34.269-1.891-2.502-4.699-2.732-5.339-7.268-.64-4.537-1.805-10.506-1.146-16.791.659-6.284-4.069-15.769-2.12-19.436 1.948-3.668 14.957-14.145 18.376-18.328 3.419-4.184 12.607-22.13 14.164-28.52 1.557-6.389-.459-9.799-5.033-7.306-4.575 2.493-18.147 7.182-22.082 9.551a140.729 140.729 0 0 0-6.791 4.346s-.067 19.102-6.781 28.404c-6.714 9.303-28.347 13.257-37.354 4.04a243.202 243.202 0 0 0-18.07-16.513v0Z"/>
  <path stroke="#363636" stroke-linecap="round" stroke-linejoin="round" d="M161.698 197.666s.859 35.644 5.597 41.403c4.737 5.759 15.482 31.346 23.81 42.292 8.329 10.945 8.749 20.687 8.749 20.687M167.056 75.099s8.596-11.385 13.047-15.711m-86.589 32.11s-8.93-4.288-15.014-4.776"/>
  <path fill="#0157E4" stroke="#363636" stroke-linecap="round" stroke-linejoin="round" d="M123.313 117.973s-1.739 7.345-3.085 13.085c-1.347 5.74 3.257 12.177 7.793 13.696 4.537 1.518 12.311-4.518 14.814-6.409 2.502-1.891 4.193-3.056 7.698-2.321 3.505.736 6.122 4.069 13.371.583 7.249-3.486 7.02-11.461 5.215-15.53-1.805-4.069-9.618-6.972-11.461-8.873a36.226 36.226 0 0 0-3.878-3.467l-2.12 2.464s1.375 1.032 2.063 5.874c.688 4.843-5.205 15.54-7.841 16.523-2.636.984-10.268-7.182-13.887-10.993-3.62-3.811-4.489-5.53-4.489-5.53s-3.802-.697-4.193.898Zm9.207 45.577s17.191 16.695 22.597 15.921c5.731-.811 15.119-26.188 15.119-26.188l1.72 1.299s-7.316 13.677-8.243 22.444c-.926 8.768 0 19.733-2.015 20.64s-10.726-13.027-14.136-17.125c-4.823-5.797-15.281-14.489-15.281-14.489l.239-2.502Z"/>
  <path fill="#0157E4" d="M164.725 231.247c-.401-5.883-3.304-29.379-3.304-29.379s-3.983 22.779-2.99 29.837c.994 7.059 8.596 18.72 14.145 25.139 5.549 6.418 18.529 24.545 18.529 24.545l-20.401-37.84s-5.568-6.457-5.979-12.302Zm-4.297-117.142c-.487-2.493-.688-4.642 0-5.998.869-1.643 3.944-4.642 7.392-7.822a47.39 47.39 0 0 0-9.971-19.408c-.955 5.425-2.608 11.404-5.559 15.473-6.685 9.274-28.347 13.256-37.353 4.04-5.349-5.463-10.688-10.258-14.164-13.266a45.575 45.575 0 0 0-3.028 28.968c8.701 4.087 21.766 9.656 22.416 10.391.297.431.565.881.802 1.347l-.764 3.276c-1.356 5.73 3.257 12.177 7.794 13.696a5.403 5.403 0 0 0 2.13.21c.315.554.611 1.069.888 1.518a15.995 15.995 0 0 1 1.681 4.05c3.521.331 7.074.063 10.506-.793 13.371-3.362 22.76-15.1 25.348-29.503-1.595-2.55-5.368-4.603-8.118-6.179Z" opacity=".6" style="mix-blend-mode:multiply"/>
  <path fill="#0157E4" stroke="#363636" stroke-linecap="round" stroke-linejoin="round" d="M111.651 53.438c-6.905 3.82-14.431 8.786-17.44 16.331-4.27 10.726-1.251 25.244 7.44 35.578 8.692 10.334 24.67 21.107 40.401 16.475 15.73-4.632 27.697-28.987 25.462-45.052-2.234-16.064-13.457-27.02-29.254-29.607-8.873-1.452-17.889 1.585-25.625 5.73l-.984.544Z"/>
  <path fill="#363636" d="M129.845 113.289c12.112-1.711 20.456-13.539 18.637-26.419-1.82-12.88-13.113-21.934-25.226-20.223-12.112 1.71-20.456 13.54-18.636 26.419 1.819 12.88 13.113 21.934 25.225 20.223Z" opacity=".1" style="mix-blend-mode:multiply"/>
  <path fill="#363636" stroke="#363636" stroke-linecap="round" stroke-linejoin="round" d="M124.402 60.754S114.029 63.14 112.31 73.17c-1.719 10.028 1.557 14.909 4.47 19.856 2.913 4.947 11.241 8.328 19.646 6.418 8.405-1.91 11.948-12.416 11.461-18.605-.487-6.189-3.514-13.161-7.316-16.494a16.388 16.388 0 0 0-16.169-3.591Z"/>
  <path fill="#0157E4" stroke="#363636" stroke-linecap="round" stroke-linejoin="round" d="M124.402 60.753s-10.373 2.388-12.092 12.417a26.12 26.12 0 0 0-.067 9.55c.65 1.233 1.356 2.388 2.035 3.553 2.865 4.938 11.289 8.386 19.694 6.457 8.404-1.93 11.948-12.416 11.461-18.605a27.685 27.685 0 0 0-.688-4.145 18.927 18.927 0 0 0-4.136-5.607 16.389 16.389 0 0 0-16.207-3.62Z"/>
  <path stroke="#363636" stroke-linecap="round" stroke-linejoin="round" stroke-width=".75" d="M146.369 67.83s3.82 4.337 3.82 12.512m-.201 3.573a17.555 17.555 0 0 1-2.817 8.681m-29.608 5.282a14.309 14.309 0 0 0 2.283 1.91m-8.94-14.594a31.586 31.586 0 0 0 5.062 10.879"/>
</svg>
