<svg xmlns="http://www.w3.org/2000/svg" width="358" height="354" fill="none" viewBox="0 0 358 354">
  <path fill="#0157E4" d="M84.908 331.615c18.859 19.906 65.16 12.618 85.21 0 65.096-40.963 179.203-109.136 184.365-207.908 2.198-41.985-34.817-64.025-50.288-70.498-37.088-15.527-77.843-20.194-118.103-21.992-42.009-1.878-87.104-.415-124.91 20.082-14.328 7.744-27.85 17.725-37.103 31.318-9.406 13.808-14.816 30.246-16.247 46.844-2.317 26.771 4.883 53.613 15.775 78.178 10.892 24.565 25.42 47.316 38.75 70.642 8.694 15.224 6.68 36.552 22.55 53.334Z" opacity=".7"/>
  <path stroke="#363636" stroke-linecap="round" stroke-linejoin="round" d="M249.303 283.883c.224-69.012.224-145.727 0-214.276m12.826-21.337c.184 76.3.184 143.427 0 219.703M249.303 53.24V25.273a15.462 15.462 0 0 1 6.393-1.143c4.523 0 6.393 1.143 6.393 1.143v7.783m67.693-8.936 2.637 1.072-16.917 14.384-53.373 8.694-2.525-.75"/>
  <path stroke="#363636" stroke-linecap="round" stroke-linejoin="round" d="m259.604 33.606 51.631-11.379 18.547 1.894-15.934 14.264-54.244 9.134V33.606Zm-51.951 10.517-2.166 1.294 13.122 15.655 30.686 8.535 3.276-.823"/>
  <path stroke="#363636" stroke-linecap="round" stroke-linejoin="round" d="m252.571 54.495-31.853-12.274-13.065 1.902 13.489 16.094 31.429 8.567V54.495ZM149.844 63.43v272.46M75.023 42.717c25.068 5.937 49.841 14.727 74.821 20.713M45.919 58.052c34.194 8.183 69.355 16.973 103.925 25.763M23.551 76.567c41.379 9.646 83.732 18.436 126.293 27.57M10.765 98.2c46.173 8.79 92.522 17.551 139.047 26.283M1 121.062l148.844 23.774M1 145.779l148.844 19.411M4.468 170.84c48.475 4.075 96.422 10.468 145.376 14.703M11.34 195.94c37.607 2.949 75.166 4.547 113.524 8.543 7.991 0 16.781 0 24.98 1.406M20.65 220.745c43.48 2.117 85.834 4.515 129.194 5.498M32.286 245.03c39.037.208 78.194 1.007 117.558 1.566M45.855 268.612c34.258-.2 69.419-.999 103.989-1.662m-92.106 24.517c30.366-1.478 61.532-3.077 92.13-4.171m-9.429-213.702V310.63M95.704 53.073v147.27M44.8 72.947v162.749M351.51 78.829l-78.178 9.03V271.12"/>
  <path stroke="#363636" stroke-linecap="round" stroke-linejoin="round" d="m357.064 102.363-73.343 6.081v146.423m73.344-116.791-71.226 5.082m60.685 25.963-58.584 3.812m24.486-61.38v112.404M75.91 318.325a50.473 50.473 0 0 0 8.998 13.29c18.859 19.906 65.967 12.618 86.017 0 6.593-4.148 12.882-8.583 20.314-13.29"/>
  <path fill="#fff" stroke="#363636" stroke-linecap="round" stroke-linejoin="round" d="m263.831 183.034-7.336 28.641 12.786 74.454h-.096l-.312.064c-5.442 1.19-64.065 13.944-66.934 13.705-3.005-.248-50.105-7.496-50.105-7.496l-41.69 4.875-33.427-14.744-30.886 5.45-8.79-109.072s6.528-53.334 3.524-67.694c0 0 51.439 7.384 56.194 7.895 4.755.512 60.07-16.917 60.07-16.917l46.676 15.463 39.101-4.946 57.857 27.09s-37.567 37.399-36.632 43.232Z"/>
  <path fill="#0157E4" stroke="#363636" stroke-linecap="round" stroke-linejoin="round" d="m46.55 115.908 50.209 7.064 59.271-14.592 47.427 13.274 37.215-3.996 51.56 22.096s-29.344 36.36-30.471 38.685c-1.126 2.326-10.532 33.236-10.532 33.236l12.418 70.882-60.166 13.241-50.608-8.095-40.108 3.532-34.098-14.632-28.321 5.954-9.19-102s8.439-41.49 5.394-64.649Z"/>
  <path fill="#fff" stroke="#363636" stroke-linecap="round" stroke-linejoin="round" d="m221.422 153.986 8.127-1.966 39.476 16.87c1.934-2.47 4.116-5.227 6.353-8.039l-42.793-18.085-9.014 2.526 5.65-26.427-7.472.799-6.856 28.081-22.152 6.201-42.625 3.716-17.029 8.463.799-24.941 20.825-9.813 24.261 4.683 4.132-20.058-7.368-2.062-2.334 14.568-18.691-3.995-20.569 9.277.663-20.153-9.941 2.413v54.116l-25.26 12.547v-60.438l-2.877.703-6.297-.887 1.078 20.681H74.423L47.07 121.374c.176 3.085.2 6.393.12 9.757l24.301 20.338h20.49l.8 15.423-.752 6.393-50.377 12.818.264 2.917 49.737-12.539-1.15 9.949-47.756 11.787.88 9.798 25.3-6.689 2.349 30.143-23.31 24.661.91 10.085 8.215-8.695 1.822 23.215 2.35-.496-1.599-25.436 17.014-17.996 8.23-2.102 32.581-10.508-.719 4.731-18.092 56.266 6.96 2.989 9.509-30.695 14.033-2.597 28.193 12.195 13.082.839-2.222 22.239 3.484.552 1.519-22.623 32.82 2.101 23.709-3.412 3.021 22.567 6.105-1.342-2.948-22.136 24.141-3.476-1.207-6.905-51.383 6.817-20.777-1.822 2.957-27.969 18.052-9.861h5.594l40.467 4.099-1.422-8.191-37.903-3.588h-8.75l4.443-26.715 11.268-34.274ZM87.169 225.188l-13.745 4.075-1.822-28.664 21.177-5.594 31.581-16.302-5.202 34.57-31.989 11.915Zm44.575 21.84-14.248 2.829 5.913-19.003 8.943-56.251 18.004-9.293 6.992 28.352-2.613 23.607-7.847 35.832-15.144-6.073Zm65.28-25.972-12.402 5.874-4.563 32.972-20.777-1.822-7.152-2.869 7.991-35.585 3.101-24.637h14.312l23.886-3.996-4.396 30.063Zm5.554-35.808-23.973 4.93H159.33l-5.802-25.372 37.615-3.476 21.241-5.162-9.806 29.08Z"/>
  <path fill="#fff" d="m212.384 208.079 2.165-17.11 27.65 6.074-2.254 14.608-27.561-3.572Zm17.133-17.901 5.634-15.71 20.825 7.855-4.779 16.246-21.68-8.391Zm-4.523-33.994h2.301l8.703 3.939-8.703 26.395-8.159-2.445-2.613-.575 8.471-27.314Zm17.205 7 20.313 8.167-3.38 5.85-19.187-5.85 2.254-8.167Zm-12.682-23.414 3.939-18.116 6.489-1.031 9.59 3.852-6.793 18.675-9.158-3.38h-4.067Zm17.476 5.338 4.236-10.421 28.496 12.978-5.641 8.519-27.091-11.076Zm-60.725-24.485 15.136 4.379-4.595 24.078h-15.551l5.01-28.457Zm18.971 5.042 11.284-1.918-4.14 21.361-10.979 2.845 3.835-22.288Zm-27.082 14.105-1.366 10.436-24.605 1.127-14.792 7.624v-13.849l17.908-9.254 22.855 3.916Zm-39.692-23.862 17.772-4.675-1.374 10.421-17.437 6.816 1.039-12.562Zm20.034 5.746 12.882 2.821 2.053-9.534-13.337-2.261-1.598 8.974Zm-55.675 2.821v15.295l18.62-5.083v-14.064l-18.62 3.852Zm1.279 20.961v30.23l10.284-4.315-1.622-18.604 8.679-2.541V139.77l-17.341 5.666Zm-31.19 9.565 1.414 19.467 13.538-3.117 2.173-6.073v-10.277H72.913Zm-22-15.247 17.86 13.825v9.589l-20.121 1.55s2.54-16.765 2.261-24.964Zm-2.261 28.792 18.403-1.694v9.286l-21.64 5.905 3.237-13.497Zm24.261-44.799v13.202l14.952 1.127-.616-13.601-14.336-.728Zm62.571 53.454 12.842-5.986 3.86 21.888-19.267 3.388 2.565-19.29Zm2.981 22.623-1.039 14.991 13.361-1.406v-16.918l-12.322 3.333Zm38.326-32.972-1.742 19.666h7.264l16.158-2.669 9.31-23.726-17.741 5.155-13.249 1.574Zm-18.292 1.127v5.338l13.449-.384v-6.081l-13.449 1.127Zm19.658 34.162-1.366 15.783 17.732-3.109 2.286-18.324-18.652 5.65Zm-15.519 20.538 12.411.887-3.101 31.669-11.907-.368-4.459-1.606 7.056-30.582Zm4.052-22.855 8.359 1.206-1.615 10.621h-8.215l1.471-11.827Zm66.766 29.439 16.079 1.559 3.668 19.37-19.747.408v-21.337Zm-36.647 6.433 15.575-1.254 2.165 22.695h-20.313l2.573-21.441Zm43.136 34.466 2.254 10.373 11.004-1.79-1.974-10.788-11.284 2.205Zm-35.553 4.084 21.864-2.661 1.039 12.075-23.814 5.905-13.473-1.582 4.699-14.856 9.685 1.119ZM91.253 238.957l17.78-3.261-1.198 12.275-5.011 11.971-12.786 3.404 1.215-24.389Zm-15.511-34.986v9.717l13.689-2.037 7.328-2.821-.376-12.339-4.986 3.333-15.655 4.147Zm-28.505 7.68 18.06-4.443 1.758 18.659-17.277 3.396-2.54-17.612Zm1.263 33.171 10.308-9.126 2.678 2.478-10.66 10.236-2.326-3.588Zm2.693 25.34 5.042-1.19.911 10.172-4.994.728-.96-9.71Zm13.257 6.17-.967-17.781 12.259-1.414v17.572l-11.292 1.623Zm77.227-40.636a6.896 6.896 0 1 0 .001-13.793 6.896 6.896 0 0 0-.001 13.793Z" opacity=".5"/>
  <path fill="#363636" d="m263.831 183.034-7.336 28.641 12.786 74.454h-.096l-.312.064-66.926 13.705 17.397-117.247 23.238-69.971 57.857 27.09s-37.543 37.431-36.608 43.264Zm-60.35-65.408-17.708 62.771-15.423 27.266-18.508 84.739-41.69 4.875 30.702-71.402 7.304-53.381 9.254-70.131 46.069 15.263Zm-107.098 1.463-1.27 58.335-17.501 105.532-.887-.391-30.894 5.418-8.071-100.506 48.355-18.699 7.99-49.985 2.278.296Z" opacity=".1"/>
  <path fill="#0157E4" d="M217.29 150.686a1.054 1.054 0 0 0-1.031-.288l-24.269 6.257-41.291 3.117a1.03 1.03 0 0 0-.407.112l-54.197 27.817.8-17.581v-23.757a1.071 1.071 0 0 0-1.071-1.071H84.908a1.074 1.074 0 0 0-1.071 1.071 1.07 1.07 0 0 0 1.07 1.07h9.798v22.607l-.863 19.395a1.054 1.054 0 0 0 .487.951 1.074 1.074 0 0 0 1.063.056l55.675-28.553 41.171-3.108a.708.708 0 0 0 .184 0l22.551-5.818-9.71 34.362a1.046 1.046 0 0 0 0 .112l-1.598 9.494h-.911a.331.331 0 0 0-.256.123.332.332 0 0 0-.064.276l1.351 3.748a.378.378 0 0 0 .286.282.376.376 0 0 0 .377-.138l2.525-3.652c.16-.224 0-.495-.343-.511h-.799l1.51-9.158 10.221-36.16a1.056 1.056 0 0 0-.272-1.055Z"/>
  <path fill="#FFB100" d="M217.29 150.686a1.054 1.054 0 0 0-1.031-.288l-24.269 6.257-41.291 3.117a1.03 1.03 0 0 0-.407.112l-54.197 27.817.8-17.581v-23.757a1.071 1.071 0 0 0-1.071-1.071H84.908a1.074 1.074 0 0 0-1.071 1.071 1.07 1.07 0 0 0 1.07 1.07h9.798v22.607l-.863 19.395a1.054 1.054 0 0 0 .487.951 1.074 1.074 0 0 0 1.063.056l55.675-28.553 41.171-3.108a.708.708 0 0 0 .184 0l22.551-5.818-9.71 34.362a1.046 1.046 0 0 0 0 .112l-1.598 9.494h-.911a.331.331 0 0 0-.256.123.332.332 0 0 0-.064.276l1.351 3.748a.378.378 0 0 0 .286.282.376.376 0 0 0 .377-.138l2.525-3.652c.16-.224 0-.495-.343-.511h-.799l1.51-9.158 10.221-36.16a1.056 1.056 0 0 0-.272-1.055ZM89.702 107.901a11.67 11.67 0 0 0-12.728-2.533 11.671 11.671 0 0 0-7.206 10.792 11.69 11.69 0 0 0 3.417 8.259l8.263 8.255 8.254-8.255a11.684 11.684 0 0 0 3.423-8.259 11.675 11.675 0 0 0-3.423-8.259Zm-4.794 11.659a4.79 4.79 0 0 1-7.37-.739 4.796 4.796 0 1 1 7.37.739Z"/>
  <path stroke="#fff" stroke-linecap="round" stroke-linejoin="round" d="M73.193 121.278a14.57 14.57 0 0 0 3.843 4.851m-1.006-18.34c-3.996 2.397-5.035 7.024-3.724 11.284m9.174-12.834c-1.01.004-2.014.155-2.981.447"/>
  <path fill="#FFB100" d="M195.059 182.107a11.681 11.681 0 0 0-12.729-2.533 11.69 11.69 0 0 0-6.323 6.322 11.68 11.68 0 0 0 2.534 12.729l8.255 8.255 8.263-8.255a11.67 11.67 0 0 0 3.422-8.259 11.68 11.68 0 0 0-3.422-8.259Zm-4.859 11.659a4.797 4.797 0 0 1-5.222 1.027 4.794 4.794 0 1 1 5.222-1.027Z"/>
  <path stroke="#fff" stroke-linecap="round" stroke-linejoin="round" d="M178.517 195.485a14.574 14.574 0 0 0 3.843 4.858m-1.006-18.356c-3.996 2.398-5.035 7.017-3.724 11.284m9.166-12.826a10.658 10.658 0 0 0-2.973.448"/>
  <path fill="#fff" stroke="#363636" stroke-miterlimit="10" d="M263.831 183.026c-.943.384-8.838 1.319-8.838 1.319.183-1.878 4.139-5.266 4.139-7.144a1.355 1.355 0 0 0-1.034-1.5 1.353 1.353 0 0 0-.66.013c-.376 2.446-6.585 6.953-7.903 7.52-1.319.567-4.891 12.602-6.825 14.488-15.183 15.135-29.567 23.886-34.929 34.362a42.512 42.512 0 0 1-14.672 15.911s-3.101 39.908 8.742 22.175c11.843-17.732 16.086-16.693 22.008-24.589 5.921-7.895 17.493-25.915 26.523-41.098 4.611-3.916 8.183-2.102 11.004-4.923.599-.599.191-3.013 1.126-4.595.935-1.582 2.446-4.435 2.262-6.129-.184-1.694 1.318-2.629 1.502-3.572.184-.943-1.502-2.613-2.445-2.238Zm-182.12 55.483c-3.068-11.371-15.343-22.903-27.058-40.851-1.494-2.245-2.51-14.752-3.668-15.551-1.159-.799-6.313-6.521-6.177-8.99a1.344 1.344 0 0 0-1.286.027 1.347 1.347 0 0 0-.68 1.092c-.392 1.838 2.773 5.969 2.573 7.847 0 0-7.536-2.549-8.383-3.116-.847-.568-2.844.743-2.852 1.702-.008.959 1.262 2.189.727 3.812-.536 1.622.351 4.722.943 6.464.591 1.743-.304 3.996.151 4.723 2.182 3.349 6.05 2.31 9.75 7.096 5.706 16.654 13.29 36.704 17.453 45.662 4.163 8.958 8.518 8.791 16.446 28.617 7.927 19.826 13.145-19.89 13.145-19.89a42.53 42.53 0 0 1-11.084-18.644Z"/>
  <path fill="#FFB100" stroke="#363636" stroke-linecap="round" stroke-linejoin="round" d="M86.698 243.919s2.046-4.858-1.774-6.393c-3.82-1.534-8.623 1.239-8.623 1.239s-7.056 1.766-7.336 9.23c0 0-1.598 25.044 4.284 25.14 5.881.096 13.449-29.216 13.449-29.216Zm110.087.871s-.312-3.931 4.483-3.412c4.794.519 8.742 7.352 8.462 16.917 0 0 2.198 12.203-3.7 11.867-5.897-.335-9.245-25.372-9.245-25.372Z"/>
  <path fill="#FFB100" d="M104.238 266.407s-16.342-19.044-19.33-25.628c0 0-11.252-.368-12.786 9.501a75.915 75.915 0 0 0 0 19.882s11.091 30.271 15.702 41.73l16.414-45.485Z"/>
  <path fill="#0157E4" d="M98.493 259.51a20.784 20.784 0 0 0-7.544 2.541 22.61 22.61 0 0 0-1.862 1.135c-.58.39-1.117.843-1.598 1.351-2.398 2.397-3.996 6.017-4.995 10.276a55.906 55.906 0 0 0-1.15 6.681 91.767 91.767 0 0 0-.544 11.851 1795.8 1795.8 0 0 1-3.915-10.477 63.776 63.776 0 0 1 1.07-7.304c.392-1.935.927-3.84 1.599-5.697a21.573 21.573 0 0 1 5.513-8.902 13.192 13.192 0 0 1 1.663-1.311 34.557 34.557 0 0 1 1.854-1.151 26.116 26.116 0 0 1 6.896-2.757l3.013 3.764Z" opacity=".3"/>
  <path fill="#0157E4" d="M92.212 251.631a49.804 49.804 0 0 0-6.465 2.349c-.728.32-1.47.671-2.246 1.047-.558.27-1.092.585-1.598.943-2.661 1.918-4.507 5.002-5.794 8.527a40.094 40.094 0 0 0-1.526 5.641 64.668 64.668 0 0 0-.727 4.747l-1.726-4.699s-.272-1.822-.472-4.667c0-.287 0-.583-.056-.887a34.714 34.714 0 0 1 1.726-4.435 19.7 19.7 0 0 1 6.465-7.991c.572-.388 1.17-.735 1.79-1.039a57.55 57.55 0 0 1 2.022-.951 56.494 56.494 0 0 1 5.842-2.261c.887 1.19 1.806 2.413 2.765 3.676Zm-5.802-8.167a23.419 23.419 0 0 0-5.242 2.069 26.842 26.842 0 0 0-3.644 2.326 37.504 37.504 0 0 0-5.714 5.314c.088-.959.208-1.926.352-2.885a10.253 10.253 0 0 1 3.276-6.289l.104-.064a31.36 31.36 0 0 1 2.653-1.71c.336-.2.68-.383 1.023-.567l.064.128a15.412 15.412 0 0 1 1.918-.56 16.398 16.398 0 0 1 3.7-.423c.447.917.952 1.806 1.51 2.661Z" opacity=".3"/>
  <path fill="#0157E4" d="m96.223 268.732-3.196 2.861a76.823 76.823 0 0 1-5.594-7.056c-.84-1.175-1.646-2.398-2.437-3.588a136.118 136.118 0 0 1-3.077-4.995 165.264 165.264 0 0 1-2.11-3.74c-.799-1.462-1.598-2.925-2.301-4.355-.703-1.43-1.343-2.669-1.958-3.948a11.72 11.72 0 0 1 2.661-1.702c.336-.2.68-.383 1.023-.567l.064.128a202.892 202.892 0 0 0 1.862 3.771c.799 1.535 1.598 3.109 2.47 4.691a163.11 163.11 0 0 0 2.109 3.74 142.483 142.483 0 0 0 2.78 4.523 108.647 108.647 0 0 0 2.398 3.564 74.324 74.324 0 0 0 5.306 6.673ZM92.1 295.175l-4.116 1.207c-1.222-4.164-3.676-9.382-6.68-14.888a176.482 176.482 0 0 0-3.389-5.938 233.268 233.268 0 0 0-3.3-5.426 153.506 153.506 0 0 0-2.925-4.618c0-.288 0-.584-.056-.887a79.582 79.582 0 0 1-.096-7.193l1.822 2.757a365.731 365.731 0 0 1 6.137 9.67 245.818 245.818 0 0 1 2.957 4.962c4.284 7.376 7.984 14.712 9.646 20.354Z" opacity=".3"/>
  <path fill="#363636" d="m91.764 301.064-3.9 10.829c-4.61-11.46-15.702-41.723-15.702-41.723a75.915 75.915 0 0 1 0-19.882c.935-6.137 5.593-8.319 9.062-9.086.205.034.407.079.607.136 0 0-8.902 5.698-7.927 27.634l8.67 23.973s.911-8.35 4.38-7.144c1.494.536 3.62 7.464 4.81 15.263Z" opacity=".2"/>
  <path stroke="#363636" stroke-linecap="round" stroke-linejoin="round" d="M104.238 266.407s-16.342-19.044-19.33-25.628c0 0-11.252-.368-12.786 9.501a75.915 75.915 0 0 0 0 19.882s11.091 30.271 15.702 41.73l16.414-45.485Z"/>
  <path fill="#fff" stroke="#363636" stroke-miterlimit="10" d="M139.424 249.401c-.08.328-.408.6-.959.799a13.36 13.36 0 0 1-4.795.352c-10.189-.559-30.862-6.609-35.793-18.644-5.266-12.841 8.247-29.607 22.711-29.967 8.311-.199 15.32 9.59 17.006 21.129.855 5.562 5.578 10.181 1.83 26.331Z"/>
  <path stroke="#363636" stroke-linecap="round" stroke-linejoin="round" d="M132.36 230.854a5.592 5.592 0 0 0-.568 3.444m.647 3.22s1.479 1.998 2.542 1.071"/>
  <path fill="#363636" d="M138.449 250.2a13.36 13.36 0 0 1-4.795.352c.208-1.51.607-3.26.735-4.14.416-2.772-.975-3.636-.383-3.835.591-.2.535 2.269 1.71 3.524a18.213 18.213 0 0 1 2.733 4.099Z"/>
  <path fill="#fff" d="M134.453 248.091s-1.814 6.952-1.598 10.476a44.6 44.6 0 0 0 1.462 7.991l-21.944 1.271s3.285-15.799 1.527-21.329c-1.758-5.53 14.032-3.516 14.032-3.516"/>
  <path stroke="#363636" stroke-miterlimit="10" d="M134.453 248.091s-1.814 6.952-1.598 10.476a44.6 44.6 0 0 0 1.462 7.991l-21.944 1.271s3.285-15.799 1.527-21.329c-1.758-5.53 14.032-3.516 14.032-3.516"/>
  <path fill="#363636" d="M131.944 215.479c.919-2.989 2.557-2.686 2.557-2.686s-1.063-14.344-7.192-15.87c-4.139-1.039-5.274 5.194-9.589.703-2.398-2.517-6.777-3.196-9.71-1.071-1.734 1.279-1.678 3.061-2.837 4.611-1.158 1.551-3.548 1.487-5.306 1.846-2.717.552-5.474 2.573-6.041 5.434-.464 2.334 2.397 4.18 1.838 6.098-.663 2.293-2.797 3.683-4.116 5.593-1.598 2.286-1.742 5.259-1.126 7.912.919 3.947 2.956 5.49 6.129 7.503 1.598 1.007 2.533 2.837 3.516 4.38 3.292 5.178 7.288 8.966 13.585 10.037 12.634 2.157 18.292-9.502 18.292-9.502s-1.422-11.555-.392-12.874c1.031-1.318 3.197 3.197 3.197 3.197 2.629-7.033-2.805-15.311-2.805-15.311Z"/>
  <path fill="#fff" d="M134.877 232.572c-.384-1.407-.112-7.192-1.862-6.665-1.535.472-.799 6.441.799 10.429 1.598 3.987 3.556 3.995 3.612 2.836.056-1.158-1.271-1.885-1.598-3.556"/>
  <path stroke="#363636" stroke-miterlimit="10" d="M134.877 232.572c-.384-1.407-.112-7.192-1.862-6.665-1.535.472-.799 6.441.799 10.429 1.598 3.987 3.556 3.995 3.612 2.836.056-1.158-1.271-1.885-1.598-3.556"/>
  <path stroke="#fff" stroke-linecap="round" stroke-linejoin="round" d="M131.041 208.302s.695-6.592-3.756-6.393c-4.451.2-4.219 6.393-4.219 6.393s-3.74-1.27-5.019.887c-1.278 2.158.04 6.521.04 6.521s-3.995 1.271-3.013 3.948c.983 2.677-1.598 3.077-1.598 3.077m16.55-9.047s-.703 5.834-4.867 5.97c0 0-4.283 13.169-18.835 12.89m12.554-31.518s-3.356-3.14-7.392-1.214c-4.035 1.926-1.35 7.392-1.35 7.392s-3.916-.24-5.202 2.717c-1.287 2.956 2.525 4.89 2.525 4.89s-4.347 2.31-2.525 4.14c1.822 1.83 0 5.506 0 5.506m-2.837-17.253s-6.09 1.917-4.795 6.48c1.295 4.563 2.317 4.547 2.317 4.547s-4.563 1.599-4.842 4.883c-.28 3.285 3.668 3.149 3.668 3.149s-1.27 3.308 1.974 4.555" opacity=".3"/>
  <path fill="#FFB100" d="M104.238 264.417s14.696-10.389 41.443.527l20.066-4.683s12.978 35.249 5.194 71.378c0 0-17.413 12.49-46.565 12.426-31.62-.08-39.452-12.426-39.452-12.426l4.523-11.532c-2.725-13.169-6.25-34.282-3.564-45.214 4.083-16.622 18.355-10.476 18.355-10.476Z"/>
  <path fill="#0157E4" d="M164.292 335.371a79.438 79.438 0 0 1-4.139 1.854c-.128-1.527-.256-3.037-.368-4.531-.112-1.495-.231-3.037-.335-4.531a804.637 804.637 0 0 1-.855-12.97 552.561 552.561 0 0 1-.248-4.611 712.948 712.948 0 0 1-.695-17.021 984.249 984.249 0 0 1-.128-4.867c-.112-5.498-.152-10.357-.12-14.576 0-1.662 0-3.196.048-4.699.048-2.781.112-5.21.192-7.288l4.307-1.007a393.554 393.554 0 0 0-.184 6.353c0 1.495-.056 3.093-.072 4.795 0 3.996 0 8.687.072 14.001 0 1.598.035 3.268.104 5.01.133 5.253.357 11.057.671 17.413.08 1.518.152 3.077.24 4.659.24 4.123.506 8.46.799 13.01.112 1.497.227 3.015.344 4.555.136 1.478.248 2.948.367 4.451Zm-12.698-71.825a274.579 274.579 0 0 0-.991 8.422 229.466 229.466 0 0 0-.463 4.683c-.424 4.699-.799 10.069-1.103 15.983-.072 1.55-.144 3.14-.192 4.794a360.776 360.776 0 0 0-.223 16.91c0 1.502 0 3.02.064 4.555.085 4.262.255 8.684.511 13.265.088 1.471.176 2.957.288 4.459.085 1.375.189 2.757.311 4.148a86.89 86.89 0 0 1-4.219 1.039c-.104-1.271-.208-2.534-.288-3.788a347.521 347.521 0 0 1-.847-17.861c-.048-1.51-.072-2.996-.088-4.475-.072-5.905 0-11.515.16-16.781.048-1.599.107-3.146.176-4.643.256-6.018.631-11.507 1.047-16.358.144-1.598.279-3.125.423-4.579.336-3.3.672-6.225.983-8.719l4.451-1.054Zm-14.32-1.527a428.506 428.506 0 0 0-1.454 13.442 247.681 247.681 0 0 0-.392 4.411 574.836 574.836 0 0 0-1.119 16.949 462.072 462.072 0 0 0-.567 21.209v4.363c0 4.635.128 9.398.328 14.232.056 1.447.119 2.893.199 4.355 0 .848.088 1.687.144 2.534a88.86 88.86 0 0 1-4.267.327c-.04-.663-.08-1.326-.112-1.982-.08-1.446-.152-2.884-.208-4.323a402.312 402.312 0 0 1-.359-14.656v-4.307c0-5.841.144-11.467.351-16.781.056-1.479.112-2.925.184-4.356a494.973 494.973 0 0 1 3.077-36.4c1.374.288 2.749.616 4.195.983Zm-15.151 81.99c-1.495 0-2.941-.088-4.331-.184 0-.239-.056-.487-.08-.743a112.42 112.42 0 0 1-.36-4.299c-.336-4.987-.44-10.389-.543-16.198v-.704c0-1.19-.04-2.397-.064-3.643-.096-5.203-.24-10.749-.568-16.606a306.95 306.95 0 0 0-.271-4.339 262.86 262.86 0 0 0-.512-6.298c-.359-3.787-.543-7.192-.583-10.34 0-1.518 0-2.949.048-4.299a61.12 61.12 0 0 1 2.397-16.119c1.531-.174 3.07-.27 4.611-.287-1.143 3.132-2.453 8.43-2.709 16.637a63.693 63.693 0 0 0 0 4.284c.032 2.924.213 6.163.543 9.717.229 2.413.424 4.784.584 7.112.096 1.454.184 2.885.255 4.299.312 5.922.448 11.516.544 16.782 0 1.039 0 2.054.056 3.061v1.238c.104 5.594.208 10.876.543 15.671.096 1.47.216 2.893.376 4.267-.024.32.024.656.064.991Zm-14.297-64.305a78.707 78.707 0 0 0-.055 8.343c.135 2.661.191 5.186.191 7.623 0 1.511 0 2.973-.056 4.427-.127 4.955-.447 9.654-.799 14.496 0 .432-.056.872-.088 1.311a352.201 352.201 0 0 0-.287 4.419c-.256 3.996-.456 8.159-.504 12.642v3.484c.032 1.641.093 3.194.184 4.659 0 .44.048.879.088 1.303a56.515 56.515 0 0 1-4.363-1.023 118.42 118.42 0 0 1-.216-6.856v-1.599c.048-5.01.288-9.589.567-13.992.104-1.519.2-3.005.304-4.483v-.16c.36-5.17.703-10.157.799-15.471v-4.547c0-1.934-.072-3.932-.176-6.01-.15-3.177-.12-6.359.088-9.533.08-1.462.2-2.917.328-4.363.351-3.732.855-7.36 1.39-10.613a26.648 26.648 0 0 1 3.996-1.726h.04a7.32 7.32 0 0 1 .647-.215c-.711 3.995-1.43 8.718-1.87 13.585-.032 1.414-.136 2.86-.208 4.299Zm-5.338-15.887c.608.152 1.095.32 1.391.424a13.911 13.911 0 0 0-5.914 7.991 17.653 17.653 0 0 0-.679 4.355 23.58 23.58 0 0 0 .072 3.069c.362 4.171.591 8.199.687 12.083.056 1.598.08 3.196.08 4.794a149.274 149.274 0 0 1-.743 15.551 100.61 100.61 0 0 1-.528 4.499c-.111.855-.231 1.71-.367 2.558-.503 3.196-.999 7.064-1.406 11.003a272.009 272.009 0 0 0-.464 5.011c-.09 1.135-.17 2.253-.24 3.356a32.974 32.974 0 0 1-4.131-2.261c.104-1.383.232-2.765.36-4.1.175-1.854.367-3.628.559-5.25a259 259 0 0 1 1.103-8.423c.191-1.252.367-2.522.527-3.812a106 106 0 0 0 .48-4.611c.467-5.231.651-10.483.55-15.734 0-1.678-.071-3.372-.143-5.107a206.55 206.55 0 0 0-.591-9.205 27.806 27.806 0 0 1 0-5.307c.146-1.479.449-2.939.903-4.355a17.576 17.576 0 0 1 4.323-7.104c1.41.014 2.811.207 4.171.575Z" opacity=".3"/>
  <path fill="#0157E4" d="M168.36 268.9a81.957 81.957 0 0 1-6.673 3.396 90.806 90.806 0 0 1-4.283 1.822 96.5 96.5 0 0 1-7.264 2.533 98.982 98.982 0 0 1-14.712 3.253c-1.406.199-2.861.367-4.331.511-3.133.312-6.393.48-9.813.48h-2.19c-1.47 0-2.909-.104-4.299-.216a66.752 66.752 0 0 1-6.969-.951 65.149 65.149 0 0 1-4.243-.975 54.382 54.382 0 0 1-6.329-2.11 50.56 50.56 0 0 1-4.163-1.87 52.709 52.709 0 0 1-5.994-3.532 15.797 15.797 0 0 1 2.166-3.692 48.764 48.764 0 0 0 8.67 4.739 50.146 50.146 0 0 0 5.978 2.102c1.342.391 2.749.727 4.219 1.023 2.217.453 4.458.776 6.713.967 1.382.127 2.805.199 4.275.231h2.118a94.853 94.853 0 0 0 14.584-1.126 92.763 92.763 0 0 0 10.34-2.198 88.89 88.89 0 0 0 4.443-1.327 82.578 82.578 0 0 0 6.849-2.549 68.35 68.35 0 0 0 4.307-1.942 75.709 75.709 0 0 0 5.394-2.861c.368 1.215.775 2.654 1.207 4.292Zm3.308 15.99a93.698 93.698 0 0 1-9.805 6.393c-1.335.799-2.733 1.518-4.211 2.254a84.763 84.763 0 0 1-8.791 3.843 68.737 68.737 0 0 1-4.331 1.471 74.253 74.253 0 0 1-10.388 2.397 67.853 67.853 0 0 1-10.341.807c-1.087 0-2.19 0-3.292-.088a61.578 61.578 0 0 1-4.316-.367c-.279 0-.559-.064-.839-.096a62.114 62.114 0 0 1-7.416-1.439 58.2 58.2 0 0 1-4.251-1.278 58.258 58.258 0 0 1-5.594-2.238 58.471 58.471 0 0 1-4.3-2.213 59.54 59.54 0 0 1-8.79-6.121c-.08-2.038-.095-3.996 0-5.85a55.904 55.904 0 0 0 8.687 6.864c1.38.89 2.834 1.727 4.363 2.51a53.051 53.051 0 0 0 9.949 3.899 54.953 54.953 0 0 0 7.912 1.599 57.83 57.83 0 0 0 4.331.407c3.259.176 6.527.093 9.773-.248a60.973 60.973 0 0 0 4.315-.599 70.476 70.476 0 0 0 10.389-2.621 75.133 75.133 0 0 0 4.347-1.598 84.848 84.848 0 0 0 8.487-3.948 92.886 92.886 0 0 0 13.329-8.63c.256 1.598.528 3.212.783 4.89Zm1.758 22.224v.967a161.39 161.39 0 0 1-10.652 5.298 128.42 128.42 0 0 1-4.179 1.814 128.783 128.783 0 0 1-9.909 3.676c-1.391.447-2.813.871-4.244 1.262a86.058 86.058 0 0 1-10.7 2.302 69.87 69.87 0 0 1-4.275.487 60.156 60.156 0 0 1-5.083.224c-1.103 0-2.197 0-3.292-.096a49.422 49.422 0 0 1-3.892-.399l-.391-.064a72.216 72.216 0 0 1-10.061-2.23 86.504 86.504 0 0 1-4.212-1.39 92.318 92.318 0 0 1-5.713-2.302 83.286 83.286 0 0 1-4.06-1.918 82.554 82.554 0 0 1-4.859-2.605 379.36 379.36 0 0 1-.959-5.594 107.49 107.49 0 0 0 6.298 3.612 96.923 96.923 0 0 0 4.107 2.03 83.848 83.848 0 0 0 5.49 2.318 68.745 68.745 0 0 0 4.195 1.454 67.068 67.068 0 0 0 9.694 2.333c.359.064.719.12 1.086.168 1.055.152 2.126.264 3.197.344 2.812.174 5.634.128 8.439-.136a65.94 65.94 0 0 0 4.283-.543 84.486 84.486 0 0 0 10.612-2.398 94.452 94.452 0 0 0 4.268-1.342 124.11 124.11 0 0 0 9.725-3.732 141.493 141.493 0 0 0 4.187-1.862 165.672 165.672 0 0 0 10.836-5.546c.048 1.231.064 2.541.064 3.868Zm-.911 15.151a82.043 82.043 0 0 1-.327 2.397c-.12.8-.28 1.806-.432 2.717a248.008 248.008 0 0 1-7.807 3.541 200.403 200.403 0 0 1-4.164 1.75 209.172 209.172 0 0 1-10.3 3.899c-1.383.48-2.781.951-4.196 1.399-3.612 1.151-7.32 2.189-11.02 3.028a80.077 80.077 0 0 1-4.235.879 78.99 78.99 0 0 1-7.871 1.071h-.152c-1.055.088-2.11.12-3.133.12h-1.166a39.689 39.689 0 0 1-11.228-1.934 41.254 41.254 0 0 1-4.379-1.694 48.924 48.924 0 0 1-7.488-4.211 49.11 49.11 0 0 1-3.996-3.005 57.918 57.918 0 0 1-4.339-3.94l1.742-4.419a59.194 59.194 0 0 0 3.157 3.109 55.293 55.293 0 0 0 3.916 3.244 47.086 47.086 0 0 0 6.912 4.34 37.647 37.647 0 0 0 4.307 1.917 35.873 35.873 0 0 0 11.084 2.334c1.423.063 2.848.039 4.267-.072h.184a73.432 73.432 0 0 0 7.991-1.127c1.407-.272 2.821-.575 4.244-.911 3.66-.863 7.344-1.934 10.924-3.1 1.422-.464 2.828-.943 4.203-1.431a186.983 186.983 0 0 0 10.253-3.995c1.462-.6 2.845-1.199 4.155-1.774 3.7-1.623 6.793-3.085 8.894-4.132Z" opacity=".3"/>
  <path fill="#363636" d="M145.833 264.88c-5.89 3.356-20.05 10.628-30.583 9.821-8.454-.647-11.987-6.257-12.786-10.884.608.148 1.203.341 1.782.576 0 0 14.696-10.389 41.443.527l.144-.04Zm-19.003 79.129h-2.454c-31.613-.08-39.452-12.434-39.452-12.434l4.53-11.532a230.27 230.27 0 0 1-4.17-27.218c2.469 5.107 17.836 34.714 40.587 34.586 16.126-.064 8.406 9.726.959 16.598Zm46.596-36.895a120.253 120.253 0 0 1-1.238 17.58c-8.351-10.061-5.722-28.304-5.722-28.304 1.103 7.104 4.795 9.757 6.96 10.724Z" opacity=".2"/>
  <path stroke="#363636" stroke-linecap="round" stroke-linejoin="round" d="M104.238 264.417s14.696-10.389 41.443.527l20.066-4.683s12.978 35.249 5.194 71.378c0 0-17.413 12.49-46.565 12.426-31.62-.08-39.452-12.426-39.452-12.426l4.523-11.532c-2.725-13.169-6.25-34.282-3.564-45.214 4.083-16.622 18.355-10.476 18.355-10.476Z"/>
  <path stroke="#363636" stroke-linecap="round" stroke-linejoin="round" d="M114.203 270.082c9.238.36 20.458.296 28.513-4.842m-33.683 4.499c.799.088 1.654.152 2.485.208m4.643 57.257c.05 1.489.262 2.968.632 4.411m-3.061-59.431a20.28 20.28 0 0 0-1.47 11.492c3.564 13.585 5.705 26.371 3.867 40.147m2.637-5.865a30.696 30.696 0 0 0 14.153.136"/>
  <path stroke="#363636" stroke-linecap="round" stroke-linejoin="round" d="M89.766 289.245c5.019 11.843 14.081 21.944 25.676 27.634M87.4 282.533c.273.959.568 1.918.896 2.869"/>
  <path fill="#FFB100" d="M165.747 260.237a119.87 119.87 0 0 0 .487 34.363c2.989 19.178 7.672 18.995 7.672 18.995s26.73-33.036 33.875-46.389c0 0-1.695-19.179-9.214-23.255l-32.82 16.286Z"/>
  <path fill="#0157E4" d="M202.986 274.949a295.3 295.3 0 0 1-3.468 5.043 140.752 140.752 0 0 0-2.166-10.549 91.529 91.529 0 0 0-1.215-4.563 108.107 108.107 0 0 0-2.845-8.654 60.735 60.735 0 0 0-1.662-4.124 82.782 82.782 0 0 0-1.766-3.86l3.884-1.933a77.16 77.16 0 0 1 1.494 3.196 93.228 93.228 0 0 1 1.702 4.124c.959 2.461 1.897 5.186 2.813 8.175a109.5 109.5 0 0 1 1.263 4.539 129.352 129.352 0 0 1 1.966 8.606Zm-9.797 13.761c-1.263 1.686-2.518 3.364-3.772 5.002a153.888 153.888 0 0 0-2.398-15.982 113.543 113.543 0 0 0-1.006-4.627 148.966 148.966 0 0 0-2.789-10.341c-.464-1.47-.927-2.874-1.391-4.211a133.273 133.273 0 0 0-1.958-5.346l3.884-1.926a133.241 133.241 0 0 1 1.838 4.899c.474 1.326.948 2.73 1.422 4.211.935 2.965 1.87 6.217 2.733 9.741a158.304 158.304 0 0 1 3.437 18.58Zm-10.125 13.265a558.233 558.233 0 0 1-3.652 4.659c-.975-7.12-2.206-14.152-3.516-20.777-.304-1.55-.613-3.074-.927-4.571a456.203 456.203 0 0 0-2.765-12.354c-.352-1.495-.704-2.925-1.039-4.292-.568-2.301-1.111-4.419-1.598-6.329l3.915-1.949a1001.3 1001.3 0 0 1 1.599 6.153 431.02 431.02 0 0 1 1.07 4.315 525.979 525.979 0 0 1 2.653 11.723c.32 1.495.64 3.029.959 4.587 1.167 6.049 2.326 12.363 3.301 18.835Z" opacity=".3"/>
  <path fill="#0157E4" d="M203.018 248.978a182.198 182.198 0 0 1-9.726 7.248 167.97 167.97 0 0 1-6.257 4.195 157.19 157.19 0 0 1-3.795 2.397 186.666 186.666 0 0 1-7.129 4.108 200.764 200.764 0 0 1-3.907 2.094 215.887 215.887 0 0 1-7.408 3.668c0-1.774.104-3.389.2-4.835a166.289 166.289 0 0 0 6.169-3.117 246.315 246.315 0 0 0 3.876-2.125 177.602 177.602 0 0 0 6.808-3.996 129.118 129.118 0 0 0 3.764-2.397 173.411 173.411 0 0 0 6.017-4.076c1.255-.887 2.462-1.75 3.612-2.605a188.47 188.47 0 0 0 5.283-4.067c.525.542 1.001 1.13 1.422 1.758a15.87 15.87 0 0 1 1.071 1.75Zm3.892 12.242a395.526 395.526 0 0 1-5.89 5.131 439.175 439.175 0 0 1-3.668 3.108 384.92 384.92 0 0 1-6.513 5.314c-1.246.991-2.517 1.99-3.804 2.973a297.129 297.129 0 0 1-7.312 5.45c-1.27.919-2.541 1.822-3.827 2.709a192.323 192.323 0 0 1-9.981 6.465c-.224-1.598-.4-3.149-.552-4.667 3.197-1.99 6.393-4.139 9.59-6.393 1.27-.895 2.541-1.798 3.795-2.725a257.613 257.613 0 0 0 7.265-5.498 305.535 305.535 0 0 0 3.739-2.973 399.186 399.186 0 0 0 6.393-5.25c1.231-1.047 2.446-2.069 3.62-3.084a483.712 483.712 0 0 0 6.066-5.363 71.53 71.53 0 0 1 1.079 4.803Z" opacity=".3"/>
  <path fill="#363636" d="M207.781 267.174c-7.153 13.353-33.883 46.389-33.883 46.389s-3.996.167-6.945-14.88c2.182 8.111 8.096 8.942 8.096 8.942l27.234-36.016c-2.901-6.169-.408-23.926-.336-24.397 4.675 6.816 5.834 19.962 5.834 19.962Z" opacity=".2"/>
  <path stroke="#363636" stroke-linecap="round" stroke-linejoin="round" d="M165.747 260.237a119.87 119.87 0 0 0 .487 34.363c2.989 19.178 7.672 18.995 7.672 18.995s26.73-33.036 33.875-46.389c0 0-1.695-19.179-9.214-23.255l-32.82 16.286Z"/>
  <path fill="#FFB100" d="M145.681 264.92s-11.068-8.119-25.74-9.829c-14.672-1.71-14.256 6.928-14.256 6.928a2.536 2.536 0 0 0-1.407 3.197c.608 2.453 20.474 4.795 41.403-.296Z"/>
  <path fill="#0157E4" d="M119.062 254.995a27.885 27.885 0 0 0-1.031 2.957 45.953 45.953 0 0 0-1.047 4.283 56.844 56.844 0 0 0-.799 5.594 70.563 70.563 0 0 1-4.283-.328c.2-1.99.463-3.772.743-5.37.28-1.598.615-3.052.959-4.315.288-1.095.591-2.054.887-2.909a27.151 27.151 0 0 1 4.571.088Zm11.739 2.573v1.758a72.807 72.807 0 0 1-.311 4.316 89.402 89.402 0 0 1-.48 3.875c-1.51.136-2.973.232-4.387.304.28-1.75.479-3.356.623-4.795a66.76 66.76 0 0 0 .288-4.307v-2.397c1.47.351 2.909.783 4.267 1.246Z" opacity=".3"/>
  <path fill="#0157E4" d="M145.681 264.92c-1.598.376-3.101.719-4.643 1.023a110.716 110.716 0 0 0-10.58-2.301 105.33 105.33 0 0 0-4.244-.632 115.03 115.03 0 0 0-9.23-.799 93.64 93.64 0 0 0-4.363-.072 75.942 75.942 0 0 0-7.791.416c.23-.231.501-.418.799-.552a6.297 6.297 0 0 1 1.526-3.995 84.13 84.13 0 0 1 6.393-.208c1.375 0 2.861 0 4.451.104 2.565.128 5.402.359 8.471.751a88.23 88.23 0 0 1 4.267.623c2.613.432 5.378.975 8.247 1.671a51.056 51.056 0 0 1 6.697 3.971Z" opacity=".3"/>
  <path stroke="#363636" stroke-linecap="round" stroke-linejoin="round" d="M145.681 264.92s-11.068-8.119-25.74-9.829c-14.672-1.71-14.256 6.928-14.256 6.928a2.536 2.536 0 0 0-1.407 3.197c.608 2.453 20.474 4.795 41.403-.296Z"/>
  <path stroke="#363636" stroke-linecap="round" stroke-linejoin="round" d="M121.667 261.092c1.421.205 2.823.517 4.196.935m-20.178-.008a43.634 43.634 0 0 1 13.113-1.23m-38.525.239c0 1.407.12 2.813.272 4.212m6.153-21.321c-4.443 2.909-6.018 9.214-6.393 14.137m111.829 23.022a12.584 12.584 0 0 1-3.996 2.885m16.638-30.87c-2.677 8.471-5.53 17.749-10.636 25.572m-20.234 34.898s-4.124 2.005-9.59-9.302m2.741 20.138c-3.995 6.944-9.653 13.401-17.261 16.342m20.338-22.783a37.913 37.913 0 0 1-1.422 3.3"/>
</svg>
