<svg xmlns="http://www.w3.org/2000/svg" width="367" height="351" fill="none" viewBox="0 0 367 351">
  <path fill="#0157E4" d="M347.724 264.498c21.917-44.656 23.417-104.159 8.267-151.86-13.029-41.067-42.024-72.407-75.509-91.053C241.628-.05 195.323-6.492 153.602 7.166c-10.962 3.59-21.645 6.883-31.986 12.788-42.389 24.193-34.184 83.811-49.078 104.555-12.516 17.449-36.438 12.306-51.526 25.676C-19.652 186.287 3.89 279.274 47.536 312.65c50.819 38.86 245.912 62.423 300.188-48.152Z" opacity=".8"/>
  <path fill="#0157E4" d="M7.268 87.011c2.31-.087 6.92-2.444 6.928-2.451.008-.008-2.475-2.57-2.656-2.712-2.057-1.647-7-3.618-9.459-1.994a3.492 3.492 0 0 0-.614 5.163c1.308 1.616 3.83 2.065 5.8 1.994Zm47.687-21.747c.055 0-.646-3.507-.717-3.728-.788-2.507-3.847-6.881-6.795-6.881a3.491 3.491 0 0 0-3.365 3.94c.212 2.074 2.065 3.847 3.752 4.872 1.97 1.214 7.117 1.797 7.125 1.797Z"/>
  <path fill="#0157E4" d="M60.725 41.633c-2.782.993-4.178 6.133-4.099 8.765 0 .229.528 3.776.576 3.752l.047.008c-.22.788-.457 1.687-.694 2.64-.418 1.766-.883 3.768-1.23 5.983a61.525 61.525 0 0 0-.788 7.197c-.152 2.7-.068 5.409.253 8.095a.394.394 0 0 1 0 .094c-.363-.788-1.443-2.948-1.577-3.105-1.442-2.207-5.517-5.62-8.37-4.848a3.5 3.5 0 0 0-2.2 4.73c.788 1.938 3.003 3.152 4.903 3.704 2.128.607 6.889-.095 7.267-.158a61.628 61.628 0 0 0 1.782 7.985c.425 1.576.914 3.082 1.418 4.627-.338-.67-.638-1.27-.693-1.348-1.443-2.207-5.518-5.62-8.371-4.848a3.499 3.499 0 0 0-2.2 4.73c.75 1.939 3.012 3.153 4.904 3.704 1.891.552 5.99 0 7.093-.126.205.591.395 1.183.6 1.766.969 2.822 1.946 5.636 2.821 8.426.308.977.576 1.955.852 2.932a28.48 28.48 0 0 0-.607-1.159c-1.435-2.207-5.518-5.627-8.363-4.847a3.486 3.486 0 0 0-2.207 4.729c.788 1.939 3.01 3.153 4.902 3.697 1.892.544 5.597.079 6.874-.095.252 1.009.504 2.026.693 3.011.118.678.284 1.325.363 2.018.079.694.189 1.348.276 2.018.134 1.285.276 2.617.37 3.878.071.883.126 1.718.181 2.562-.291-.986-.914-2.893-.985-3.043a13.556 13.556 0 0 0-4.508-5.155 3.768 3.768 0 0 0-.395-.678 3.497 3.497 0 0 0-3.84-1.454 3.492 3.492 0 0 0-1.29.666c-2.24 1.923-1.695 7.22-.67 9.648.062.15.89 1.632 1.426 2.554-.402-.497-.788-.985-1.198-1.49-.788-1.001-1.663-1.986-2.57-3.042l-1.38-1.498c-.449-.512-.992-.993-1.489-1.498-1.174-1.143-2.428-2.246-3.712-3.334.882-.717 3.94-3.31 4.855-5.076.914-1.766 1.53-4.241.607-6.109a3.491 3.491 0 0 0-2.122-1.895 3.48 3.48 0 0 0-2.828.319c-2.507 1.576-2.767 6.881-2.12 9.459 0 .157.701 1.939 1.087 2.916-.788-.646-1.576-1.293-2.364-1.923a444.473 444.473 0 0 0-7.142-5.329l-2.19-1.631c.314-.252 4.05-3.263 5.052-5.234.883-1.758 1.52-4.248.607-6.117a3.508 3.508 0 0 0-4.958-1.576c-2.499 1.576-2.767 6.881-2.12 9.459.047.197 1.008 2.758 1.284 3.397a239.926 239.926 0 0 1-4.73-3.673 61.23 61.23 0 0 1-5.832-5.447c.15-.118 4.06-3.232 5.084-5.257.883-1.758 1.521-4.249.607-6.117a3.493 3.493 0 0 0-4.95-1.576c-2.507 1.576-2.767 6.873-2.128 9.458.04.174.788 2.129 1.143 3.05l-.142.087a45.467 45.467 0 0 1-4.777-6.447 51.038 51.038 0 0 1-2.104-3.705c.788-.504 4.366-2.861 5.517-4.58 1.151-1.718 1.986-4.05 1.277-6.013a3.491 3.491 0 0 0-4.73-2.113c-2.663 1.277-3.507 6.534-3.152 9.143 0 .142.378 1.577.654 2.594-.276-.552-.575-1.12-.788-1.656-.97-2.01-1.734-3.94-2.365-5.604a81.024 81.024 0 0 1-.97-2.664c.513-.899 2.547-4.556 2.744-6.566.197-2.01-.11-4.509-1.64-5.92a3.5 3.5 0 0 0-5.194.316c-1.766 2.365-.095 7.41 1.427 9.561.126.19 2.514 2.861 2.545 2.814v-.055c.26.788.544 1.655.875 2.585.623 1.703 1.348 3.626 2.27 5.667a62.735 62.735 0 0 0 3.303 6.448 45.424 45.424 0 0 0 4.674 6.605l.071.071a89.359 89.359 0 0 0-3.003-1.734c-2.42-1.04-7.709-1.64-9.656.576a3.5 3.5 0 0 0 .789 5.147c1.694 1.206 4.248.969 6.124.386 2.12-.67 5.699-3.886 5.983-4.146a61.073 61.073 0 0 0 5.833 5.651 101.143 101.143 0 0 0 3.736 3.074c-.655-.37-1.23-.701-1.317-.733-2.42-1.048-7.708-1.647-9.655.576a3.49 3.49 0 0 0 .788 5.139c1.695 1.206 4.248.977 6.124.386 1.876-.591 5.021-3.279 5.833-4.004l1.427 1.159c2.364 1.82 4.73 3.625 7 5.462a172.96 172.96 0 0 1 2.364 1.986c-.575-.331-1.064-.607-1.143-.638-2.42-1.048-7.709-1.647-9.656.575a3.495 3.495 0 0 0-.237 4.107 3.48 3.48 0 0 0 1.026 1.032c1.694 1.206 4.248.978 6.132.387 1.884-.591 4.73-3.019 5.675-3.87.788.701 1.53 1.41 2.239 2.128.472.496.961.946 1.41 1.482l1.293 1.537c.788 1.001 1.671 2.033 2.452 3.034.543.686 1.048 1.356 1.576 2.034-.788-.654-2.365-1.908-2.499-1.994-2.238-1.403-7.37-2.799-9.632-.899a3.492 3.492 0 0 0-1.158 2.601 3.5 3.5 0 0 0 1.158 2.601c1.49 1.451 4.052 1.577 5.999 1.309 2.144-.331 6.022-2.846 6.51-3.153a89.267 89.267 0 0 1 2.365 3.247 177.859 177.859 0 0 1 3.405 4.903l1.718-.828a189.843 189.843 0 0 0-3.712-5.107 112.946 112.946 0 0 0-2.759-3.555 38.677 38.677 0 0 0 2.814-3.46c2.073.788 6.393.859 6.944.859a161.908 161.908 0 0 1 .34 9.514l1.844-.891a164.25 164.25 0 0 0-.229-4.674 127.6 127.6 0 0 0-.339-4.485c.552-.134 5.045-1.277 6.747-2.633 1.577-1.222 3.153-3.208 3.153-5.297a3.503 3.503 0 0 0-2.393-3.344 3.49 3.49 0 0 0-1.445-.163c-2.925.37-5.392 5.092-5.88 7.677 0 .15-.158 1.844-.221 2.916-.055-.638-.103-1.253-.174-1.899-.126-1.293-.291-2.578-.465-3.941-.102-.67-.213-1.34-.323-2.018-.11-.678-.276-1.372-.41-2.065a77.817 77.817 0 0 0-1.261-4.824c1.127-.118 5.131-.576 6.85-1.577 1.718-1.001 3.61-2.695 3.878-4.729a3.491 3.491 0 0 0-3.256-4.051c-2.956-.08-6.1 4.209-6.975 6.7-.056.149-.481 2.002-.702 3.026-.292-.961-.575-1.931-.906-2.9-.938-2.791-1.987-5.589-3.011-8.387a246.05 246.05 0 0 1-.93-2.57c.401 0 5.178-.48 7.093-1.576 1.703-.977 3.61-2.704 3.879-4.769a3.499 3.499 0 0 0-3.264-4.051c-2.948-.079-6.1 4.217-6.975 6.7-.064.189-.678 2.853-.789 3.539-.678-1.884-1.332-3.768-1.907-5.66a61.753 61.753 0 0 1-1.852-7.756c.189 0 5.17-.457 7.14-1.576 1.703-.978 3.61-2.696 3.879-4.73a3.49 3.49 0 0 0-3.263-4.043c-2.948-.079-6.101 4.21-6.976 6.692-.055.166-.52 2.2-.717 3.153h-.221a45.083 45.083 0 0 1-.426-8.135c0-1.474.15-2.877.292-4.248.938 0 5.218 0 7.094-.788 1.876-.788 3.886-2.286 4.374-4.304a3.5 3.5 0 0 0-2.79-4.39c-2.924-.402-6.526 3.515-7.67 5.895-.062.127-.55 1.514-.89 2.523.079-.615.142-1.253.22-1.845.308-2.207.718-4.217 1.104-5.99.221-1.001.45-1.907.663-2.759.93-.465 4.634-2.364 5.903-3.94 1.27-1.577 2.365-3.824 1.9-5.842a3.492 3.492 0 0 0-4.485-2.6Z"/>
  <path fill="#FFB100" d="M360.295 201.321c-2.302.165-7.15-1.671-7.158-1.671-.007 0 2.184-2.83 2.365-2.988 1.86-1.86 6.558-4.366 9.183-3.018.315.315.448.466.744.856.296.39.459 1.023.571 1.5 0 .5.093 1.019 0 1.5-.093.481-.219.598-.5 1-1.151 1.75-3.243 2.679-5.205 2.821Zm-45.299-15.704c-.055 0 .26-3.555.308-3.783.528-2.578 3.066-7.26 5.998-7.583a3.481 3.481 0 0 1 2.684.943 3.496 3.496 0 0 1 1.092 2.628c0 2.081-1.632 4.043-3.193 5.249-1.813 1.411-6.889 2.546-6.889 2.546Z"/>
  <path fill="#FFB100" d="M302.203 162.068c2.869.677 4.816 5.635 5.021 8.26 0 .229-.103 3.807-.158 3.791h-.055c.307.789.638 1.624.977 2.546.607 1.711 1.285 3.65 1.876 5.817a61.07 61.07 0 0 1 1.577 7.094c.452 2.667.663 5.368.63 8.072a.37.37 0 0 1 0 .094c.276-.788 1.12-3.082 1.206-3.255 1.191-2.365 4.872-6.187 7.788-5.73a3.5 3.5 0 0 1 2.704 4.445c-.536 2.01-2.649 3.468-4.47 4.217-2.049.844-6.865.654-7.243.639a63.218 63.218 0 0 1-.844 8.213c-.26 1.576-.575 3.153-.906 4.729.26-.701.496-1.332.536-1.411 1.19-2.364 4.879-6.195 7.795-5.73a3.499 3.499 0 0 1 2.337 1.618 3.5 3.5 0 0 1 .359 2.82c-.528 2.017-2.641 3.468-4.461 4.217-1.821.748-5.951.685-7.039.654-.134.607-.26 1.214-.402 1.821-.654 2.908-1.316 5.809-1.884 8.67-.197 1.009-.355 2.01-.52 3.011.228-.623.433-1.143.465-1.222 1.198-2.364 4.879-6.195 7.795-5.73a3.482 3.482 0 0 1 2.342 1.616 3.482 3.482 0 0 1 .362 2.822c-.536 2.017-2.649 3.476-4.469 4.217-1.821.74-5.557.693-6.842.654a61.516 61.516 0 0 0-.363 3.074c-.039.686-.134 1.348-.134 2.041 0 .694 0 1.364-.063 2.034 0 1.3 0 2.633.063 3.941 0 .875.063 1.718.095 2.562.189-1.009.599-2.972.646-3.153a13.602 13.602 0 0 1 3.941-5.612c.08-.246.183-.484.308-.71a3.49 3.49 0 0 1 5.013-1.371c2.435 1.671 2.467 6.991 1.718 9.521-.047.15-.701 1.711-1.135 2.688.339-.536.662-1.064 1.025-1.576.701-1.088 1.434-2.16 2.223-3.311l1.206-1.639c.394-.56.874-1.096 1.316-1.655 1.04-1.262 2.167-2.491 3.326-3.713-.954-.615-4.303-2.853-5.383-4.516-1.08-1.664-1.979-4.052-1.269-6.007.15-.464.396-.892.722-1.256a3.495 3.495 0 0 1 2.589-1.156c.488-.001.972.102 1.418.3 2.664 1.277 3.5 6.534 3.153 9.143 0 .166-.489 2.01-.788 3.011.701-.725 1.395-1.45 2.128-2.159 2.12-2.058 4.327-4.068 6.518-6.085.67-.615 1.332-1.238 1.995-1.861-.339-.213-4.383-2.79-5.589-4.65-1.072-1.648-1.978-4.052-1.269-6.006.151-.464.398-.892.725-1.254a3.489 3.489 0 0 1 4.004-.859c2.657 1.277 3.5 6.535 3.153 9.144 0 .197-.701 2.845-.906 3.515a127.086 127.086 0 0 0 4.28-4.162 60.351 60.351 0 0 0 5.194-6.053c-.158-.103-4.382-2.775-5.62-4.674-1.072-1.656-1.978-4.052-1.269-6.015a3.494 3.494 0 0 1 3.312-2.409c.488-.001.971.1 1.417.297 2.665 1.277 3.5 6.534 3.153 9.151 0 .166-.536 2.191-.788 3.153l.15.071a44.782 44.782 0 0 0 4.043-6.928c.647-1.325 1.183-2.633 1.687-3.941-.843-.418-4.65-2.365-5.959-3.942-1.308-1.576-2.412-3.807-1.923-5.832a3.502 3.502 0 0 1 3.044-2.77 3.487 3.487 0 0 1 1.449.145c2.782.985 4.193 6.116 4.13 8.749 0 .142-.205 1.576-.37 2.648.22-.575.449-1.174.646-1.734.741-2.104 1.293-4.083 1.766-5.832.26-1.001.473-1.908.662-2.759-.607-.836-3.019-4.249-3.437-6.219-.418-1.971-.386-4.493.977-6.07a3.5 3.5 0 0 1 3.978-1.051c.457.178.872.45 1.217.799 2.018 2.152.906 7.354-.363 9.664-.11.197-2.199 3.113-2.23 3.074v-.055c-.174.827-.363 1.702-.592 2.664-.433 1.765-.938 3.752-1.639 5.888a62.816 62.816 0 0 1-2.578 6.763 45.167 45.167 0 0 1-3.996 7.173c.678-.529 2.633-1.955 2.798-2.05 2.286-1.308 7.481-2.475 9.656-.481a3.502 3.502 0 0 1 1.061 2.642 3.508 3.508 0 0 1-1.258 2.553c-1.576 1.379-4.122 1.434-6.054 1.048-2.175-.426-6.085-3.232-6.4-3.46a60.458 60.458 0 0 1-5.226 6.376 82.141 82.141 0 0 1-3.381 3.469 45.237 45.237 0 0 1 1.229-.875c2.294-1.309 7.481-2.483 9.656-.489a3.483 3.483 0 0 1-.197 5.194c-1.576 1.388-4.114 1.443-6.046 1.057-1.931-.387-5.344-2.712-6.234-3.342-.442.433-.883.874-1.333 1.3-2.151 2.065-4.311 4.122-6.36 6.203-.726.726-1.411 1.474-2.097 2.223.536-.394.993-.717 1.064-.788 2.294-1.301 7.48-2.475 9.656-.481a3.49 3.49 0 0 1 .706 4.053 3.47 3.47 0 0 1-.903 1.141c-1.577 1.388-4.115 1.435-6.046 1.057-1.931-.379-5.013-2.491-6.069-3.232a64.346 64.346 0 0 0-1.994 2.365c-.418.551-.852 1.048-1.238 1.623l-1.174 1.671c-.71 1.088-1.443 2.207-2.105 3.279-.465.789-.891 1.474-1.332 2.192.717-.733 2.136-2.144 2.27-2.255 2.065-1.631 7.023-3.578 9.459-1.939a3.498 3.498 0 0 1 1.308 3.898 3.505 3.505 0 0 1-.717 1.265c-1.324 1.577-3.855 2.042-5.817 1.963-2.168-.095-6.306-2.176-6.818-2.436a116.695 116.695 0 0 0-2.026 3.492c-1.08 1.9-2.026 3.665-2.853 5.242l-1.79-.631a172.001 172.001 0 0 1 3.153-5.517 104.465 104.465 0 0 1 2.365-3.831 38.446 38.446 0 0 1-3.153-3.153c-1.971 1.04-6.258 1.576-6.81 1.576.063 1.396.142 2.759.236 4.036.134 1.986.3 3.807.465 5.455l-1.923-.678c-.11-1.445-.208-3.003-.292-4.674a150.793 150.793 0 0 1-.149-4.493c-.568-.071-5.155-.718-6.992-1.876-1.663-1.049-3.492-2.846-3.673-4.927a3.495 3.495 0 0 1 2-3.62 3.506 3.506 0 0 1 1.429-.321c2.948.048 5.919 4.469 6.684 6.992.047.15.355 1.813.536 2.869v-5.888c0-.67.063-1.356.094-2.042.032-.685.127-1.395.19-2.096a67.8 67.8 0 0 1 .725-4.934c-1.135 0-5.171 0-6.984-.789-1.813-.788-3.886-2.293-4.374-4.311a3.479 3.479 0 0 1 .42-2.816 3.484 3.484 0 0 1 2.378-1.567c2.924-.402 6.526 3.516 7.661 5.888.071.15.702 1.947 1.025 2.94.189-.993.37-1.978.583-2.979.639-2.877 1.372-5.778 2.081-8.671.221-.89.434-1.773.646-2.656-.409 0-5.202.087-7.228-.788-1.805-.788-3.885-2.286-4.374-4.312a3.476 3.476 0 0 1 .418-2.81 3.491 3.491 0 0 1 2.372-1.564c2.924-.402 6.527 3.515 7.669 5.888.087.181.986 2.766 1.183 3.436.465-1.947.906-3.893 1.269-5.832a62.041 62.041 0 0 0 1.001-7.883c-.189 0-5.194.103-7.275-.788-1.805-.788-3.886-2.286-4.375-4.311a3.495 3.495 0 0 1 1.443-3.853c.409-.27.871-.45 1.355-.53 2.925-.402 6.527 3.516 7.662 5.888.079.158.788 2.128 1.072 3.074h.165c.09-2.677-.06-5.358-.449-8.008a41.627 41.627 0 0 0-.788-4.193c-.93.118-5.179.591-7.142 0-1.962-.592-4.114-1.845-4.823-3.8a3.494 3.494 0 0 1 .108-2.843 3.503 3.503 0 0 1 2.185-1.823c2.861-.717 6.874 2.782 8.269 5.021.078.118.709 1.442 1.158 2.412-.142-.607-.276-1.238-.417-1.813-.544-2.16-1.175-4.107-1.75-5.833a77.578 77.578 0 0 0-.962-2.664c-.977-.363-4.871-1.876-6.306-3.295-1.434-1.418-2.798-3.531-2.522-5.604a3.496 3.496 0 0 1 4.162-3.113Zm43.423 147.016c-1.261.63-4.422.717-4.422.717s.568-2.105.623-2.231c.623-1.482 2.696-3.988 4.485-3.838a2.127 2.127 0 0 1 1.852 2.577c-.236 1.253-1.458 2.239-2.538 2.775Z"/>
  <path fill="#0157E4" d="M313.704 311.401s-.678-2.073-.71-2.207c-.299-1.576.047-4.816 1.624-5.683a2.128 2.128 0 0 1 2.964 1.143c.496 1.166 0 2.664-.584 3.704-.701 1.222-3.294 3.043-3.294 3.043Z"/>
  <path fill="#FFB100" d="M323.856 345.476c.386.875.788 1.718 1.135 2.498.347.781.615 1.293.906 1.884h1.254c-.379-.725-.789-1.505-1.199-2.365-.346-.701-.709-1.45-1.072-2.222a15.427 15.427 0 0 0 3.469-2.499c.818.397 1.66.742 2.522 1.033a131.42 131.42 0 0 0-.434 2.711 128.57 128.57 0 0 0-.433 3.326h1.143c.094-.969.205-2.033.347-3.153.094-.788.212-1.576.338-2.443.347 0 3.153.244 4.415-.213 1.261-.457 2.451-1.245 2.829-2.459a2.128 2.128 0 0 0-1.537-2.775c-1.765-.354-4.114 1.892-4.895 3.295-.055.095-.528 1.222-.788 1.805.071-.512.15-1.017.237-1.576.126-.788.283-1.577.425-2.365.087-.402.182-.788.276-1.214.095-.425.213-.788.315-1.206.174-.591.379-1.198.584-1.797 1.362.354 2.772.493 4.177.41 1.175-.229 2.617-.859 3.153-2.002a2.134 2.134 0 0 0-.358-2.485 2.142 2.142 0 0 0-.737-.495c-1.695-.614-4.351 1.254-5.345 2.523 0 .039-.212.331-.425.678.22-.584.433-1.167.67-1.75a188.778 188.778 0 0 1 2.152-4.974l.449-1.048c.646.15 3.098.678 4.296.441 1.198-.236 2.617-.859 3.153-2.01a2.132 2.132 0 0 0 .115-1.733 2.145 2.145 0 0 0-1.211-1.246c-1.695-.615-4.351 1.253-5.344 2.522 0 .047-.252.394-.489.788.386-.906.788-1.82 1.104-2.743a37.397 37.397 0 0 0 1.466-4.816c.228.055 3.089.725 4.422.465 1.182-.236 2.616-.859 3.152-2.002a2.123 2.123 0 0 0-.363-2.487 2.132 2.132 0 0 0-.74-.492c-1.687-.623-4.351 1.253-5.336 2.522-.071.087-.844 1.348-1.104 1.805a.17.17 0 0 1 0-.055c.33-1.618.52-3.261.568-4.911a37.945 37.945 0 0 0-.119-4.422 48.587 48.587 0 0 0-.441-3.704 61.27 61.27 0 0 0-.292-1.64s.529-2.112.544-2.254c.182-1.576-.402-4.792-2.041-5.518a2.141 2.141 0 0 0-1.738.037 2.121 2.121 0 0 0-1.131 1.319c-.41 1.206.173 2.657.851 3.65.678.993 2.853 2.364 3.389 2.719.095.52.182 1.088.268 1.71.142 1.096.292 2.365.363 3.705 0 .363 0 .749.039 1.127-.157-.63-.378-1.497-.41-1.576-.575-1.506-2.569-4.075-4.366-3.981a2.119 2.119 0 0 0-1.905 1.635 2.127 2.127 0 0 0-.019.888c.19 1.261 1.38 2.278 2.444 2.853 1.064.575 3.712.788 4.28.843 0 .844 0 1.703-.039 2.601a28.386 28.386 0 0 1-.67 4.856h-.103c-.071-.599-.252-1.86-.284-1.963-.402-1.576-2.104-4.335-3.901-4.437a2.128 2.128 0 0 0-1.606.665 2.143 2.143 0 0 0-.586 1.636c.056 1.269 1.128 2.412 2.121 3.098 1.143.788 4.146 1.308 4.264 1.332a38.372 38.372 0 0 1-1.529 4.627 66.036 66.036 0 0 1-1.45 3.342c0-.418-.276-2.073-.3-2.191-.41-1.577-2.105-4.336-3.941-4.438a2.135 2.135 0 0 0-2.183 2.301c.055 1.27 1.127 2.412 2.112 3.098 1.111.788 3.996 1.285 4.241 1.324-.237.505-.465 1.009-.702 1.522-.788 1.647-1.576 3.294-2.262 4.95-.252.567-.473 1.143-.702 1.718a50.041 50.041 0 0 0-.268-1.884c-.402-1.576-2.104-4.335-3.901-4.438a2.146 2.146 0 0 0-2.192 2.302c.056 1.269 1.128 2.412 2.121 3.098.993.686 3.405 1.174 4.091 1.3a36.23 36.23 0 0 0-1.017 2.869c-.118.418-.268.836-.363 1.238-.094.402-.197.788-.299 1.206-.174.835-.339 1.576-.481 2.365-.079.394-.134.788-.205 1.15v-1.789c-.166-1.576-1.427-4.595-3.153-4.974a2.144 2.144 0 0 0-1.689.41 2.14 2.14 0 0 0-.825 1.529 3.112 3.112 0 0 0 0 .473 8.303 8.303 0 0 0-.907 4.083c0 .103.237 1.309.371 1.916a80.94 80.94 0 0 1-.655-1.419c-.323-.709-.63-1.458-.938-2.191l-.449-1.167c-.157-.386-.26-.788-.394-1.182a49.099 49.099 0 0 1-.512-1.813 13.586 13.586 0 0 0 3.712-1.963c.859-.843 1.711-2.159 1.577-3.421a2.14 2.14 0 0 0-1.672-1.88 2.136 2.136 0 0 0-.89-.003c-1.75.417-2.94 3.444-3.066 5.052v.788a60.732 60.732 0 0 1-.41-1.821c-.347-1.749-.646-3.539-.954-5.336-.063-.378-.134-.749-.197-1.127.623-.229 2.956-1.143 3.823-2.002.867-.859 1.71-2.16 1.537-3.421a2.141 2.141 0 0 0-.858-1.508 2.138 2.138 0 0 0-1.696-.368c-1.758.418-2.94 3.445-3.066 5.045v.922a68.605 68.605 0 0 0-.599-2.893 37.319 37.319 0 0 0-1.435-4.832c.221-.078 2.98-1.095 3.941-2.049.962-.954 1.703-2.16 1.538-3.421a2.136 2.136 0 0 0-.835-1.406 2.14 2.14 0 0 0-1.585-.399c-1.75.418-2.932 3.445-3.059 5.045 0 .118.04 1.576.079 2.12v-.055a27.8 27.8 0 0 0-2.23-4.414 39.14 39.14 0 0 0-2.538-3.618 45.852 45.852 0 0 0-2.42-2.845c-.402-.45-.789-.844-1.143-1.214h.039s-.725-2.058-.788-2.176c-.733-1.434-2.98-3.783-4.729-3.5a2.124 2.124 0 0 0-1.43.988 2.115 2.115 0 0 0-.218 1.724c.323 1.23 1.616 2.12 2.728 2.577 1.111.458 3.688.41 4.327.395.362.386.788.788 1.159 1.276a58.134 58.134 0 0 1 2.364 2.893c.213.292.434.615.654.922a50.472 50.472 0 0 0-1.213-1.095c-1.309-.938-4.383-1.979-5.833-.907a2.142 2.142 0 0 0-.808 1.529 2.132 2.132 0 0 0 .595 1.624c.851.938 2.412 1.135 3.61 1.025 1.198-.11 3.539-1.372 4.036-1.655.48.693.953 1.411 1.403 2.191a27.296 27.296 0 0 1 2.112 4.422l-.087.047a60.838 60.838 0 0 0-1.316-1.482c-1.198-1.08-4.138-2.451-5.699-1.576a2.14 2.14 0 0 0-.995 1.449 2.13 2.13 0 0 0 .436 1.704c.788 1.032 2.27 1.395 3.476 1.418 1.379 0 4.185-1.198 4.288-1.245.53 1.546.956 3.126 1.276 4.729a61.19 61.19 0 0 1 .639 3.595 52.979 52.979 0 0 0-1.466-1.671c-1.198-1.072-4.138-2.452-5.699-1.577a2.133 2.133 0 0 0-.56 3.153c.749 1.025 2.27 1.395 3.476 1.411 1.348 0 4.044-1.127 4.265-1.23l.26 1.648c.268 1.805.528 3.61.835 5.383.111.615.245 1.214.371 1.821a68.803 68.803 0 0 0-1.261-1.427c-1.198-1.072-4.146-2.451-5.707-1.576a2.133 2.133 0 0 0-.56 3.153c.749 1.025 2.278 1.387 3.476 1.411 1.198.023 3.492-.899 4.131-1.167.212 1.001.457 1.986.733 2.948.134.418.236.843.386 1.238.15.394.284.788.418 1.166.315.788.599 1.529.914 2.262.15.363.307.71.457 1.072a47.947 47.947 0 0 0-.969-1.505c-1.017-1.238-3.721-3.051-5.4-2.365a2.127 2.127 0 0 0-1.024 3.003c.583 1.135 2.033 1.726 3.216 1.931 1.261.174 4.004-.528 4.335-.614Z"/>
  <path fill="#FFB100" stroke="#363636" stroke-miterlimit="10" d="M320.892 9.978H65.249V312.75h255.643V9.979Z"/>
  <path fill="#0157E4" stroke="#363636" stroke-miterlimit="10" d="M296.118 13.478a2.057 2.057 0 1 1-4.114.002 2.057 2.057 0 0 1 4.114-.002Zm7.717 0a2.058 2.058 0 1 1-4.115-.001 2.058 2.058 0 0 1 4.115.001Zm7.717 0a2.06 2.06 0 0 1-2.453 2.019 2.06 2.06 0 0 1-1.51-2.795 2.064 2.064 0 0 1 1.89-1.281 2.06 2.06 0 0 1 2.073 2.057Zm9.34 3.185H65.249v302.77h255.643V16.663Z"/>
  <path fill="#363636" stroke="#363636" stroke-miterlimit="10" d="M136.622 34.059V28.54a5.29 5.29 0 0 0-5.281-5.289H77.254a5.289 5.289 0 0 0-5.29 5.289v5.518H65.25v285.374h255.643V34.058h-184.27Z"/>
  <path fill="#363636" stroke="#363636" stroke-miterlimit="10" d="M205.434 34.059V28.54a5.288 5.288 0 0 0-5.289-5.289h-54.088a5.298 5.298 0 0 0-5.257 5.289v5.518H65.25v285.374h255.642V34.058H205.434Z"/>
  <path fill="#fff" stroke="#363636" stroke-miterlimit="10" d="M279.258 34.059V28.54a5.286 5.286 0 0 0-5.249-5.289H219.89a5.297 5.297 0 0 0-5.297 5.289v5.518H65.249v285.374h255.643V34.058h-41.634Z"/>
  <path stroke="#363636" stroke-miterlimit="10" d="M220.079 183.796h-77.553v53h77.553v-53Z"/>
  <path fill="#0157E4" d="M315.162 86.546H71.255v78.727h243.907V86.546Zm-181.385 85.671H71.255v132.76h62.522v-132.76Z"/>
  <path fill="#fff" stroke="#363636" stroke-miterlimit="10" d="M310.826 165.273h-79.854V76.709l79.854 25.507v63.057Z"/>
  <path fill="#fff" stroke="#363636" stroke-miterlimit="10" d="M310.826 165.273h-79.854V149.28l79.854 4.611v11.382Z"/>
  <path fill="#363636" stroke="#363636" stroke-miterlimit="10" d="m248.463 95.02-12.281-3.32v-5.54l12.281 3.57v5.29Z"/>
  <path fill="#fff" stroke="#363636" stroke-miterlimit="10" d="m250.575 99.386-16.75-4.288V89.51l16.75 4.626v5.25Z"/>
  <path fill="#363636" stroke="#363636" stroke-miterlimit="10" d="m266.56 99.914-10.594-2.861v-5.14l10.594 3.083v4.918Z"/>
  <path fill="#fff" stroke="#363636" stroke-miterlimit="10" d="m268.389 103.942-14.448-3.697v-5.178l14.448 3.988v4.887Z"/>
  <path fill="#363636" stroke="#363636" stroke-miterlimit="10" d="m282.301 104.17-9.23-2.49v-4.793l9.23 2.68v4.603Z"/>
  <path fill="#fff" stroke="#363636" stroke-miterlimit="10" d="m283.901 107.907-12.596-3.224v-4.824l12.596 3.476v4.572Z"/>
  <path fill="#363636" stroke="#363636" stroke-miterlimit="10" d="m296.11 107.907-8.11-2.192v-4.485l8.11 2.357v4.32Z"/>
  <path fill="#fff" stroke="#363636" stroke-miterlimit="10" d="m297.521 111.391-11.066-2.83v-4.517l11.066 3.051v4.296Z"/>
  <path fill="#363636" stroke="#363636" stroke-miterlimit="10" d="m308.336 111.217-7.197-1.947v-4.217l7.197 2.089v4.075Z"/>
  <path fill="#fff" stroke="#363636" stroke-miterlimit="10" d="m309.589 114.472-9.813-2.506v-4.249l9.813 2.712v4.043Z"/>
  <path fill="#363636" stroke="#363636" stroke-miterlimit="10" d="m248.463 110.311-12.281-2.601v-5.542l12.281 2.854v5.289Z"/>
  <path fill="#fff" stroke="#363636" stroke-miterlimit="10" d="m250.575 114.551-16.75-3.302v-5.589l16.75 3.642v5.249Z"/>
  <path fill="#363636" stroke="#363636" stroke-miterlimit="10" d="m266.56 114.141-10.594-2.246v-5.139l10.594 2.459v4.926Z"/>
  <path fill="#fff" stroke="#363636" stroke-miterlimit="10" d="m268.389 118.051-14.448-2.838v-5.186l14.448 3.145v4.879Z"/>
  <path fill="#363636" stroke="#363636" stroke-miterlimit="10" d="m282.301 117.468-9.23-1.955v-4.785l9.23 2.137v4.603Z"/>
  <path fill="#fff" stroke="#363636" stroke-miterlimit="10" d="m283.901 121.109-12.596-2.483v-4.823l12.596 2.735v4.571Z"/>
  <path fill="#363636" stroke="#363636" stroke-miterlimit="10" d="m296.11 120.392-8.11-1.718v-4.485l8.11 1.884v4.319Z"/>
  <path fill="#fff" stroke="#363636" stroke-miterlimit="10" d="m297.521 123.789-11.066-2.175v-4.525l11.066 2.412v4.288Z"/>
  <path fill="#363636" stroke="#363636" stroke-miterlimit="10" d="m308.336 122.977-7.197-1.521v-4.217l7.197 1.663v4.075Z"/>
  <path fill="#fff" stroke="#363636" stroke-miterlimit="10" d="m309.589 126.162-9.813-1.931v-4.241l9.813 2.128v4.044Z"/>
  <path fill="#363636" stroke="#363636" stroke-miterlimit="10" d="m248.463 125.594-12.281-1.876v-5.541l12.281 2.128v5.289Z"/>
  <path fill="#fff" stroke="#363636" stroke-miterlimit="10" d="m250.575 129.709-16.75-2.31v-5.588l16.75 2.648v5.25Z"/>
  <path fill="#363636" stroke="#363636" stroke-miterlimit="10" d="m266.56 128.361-10.594-1.616v-5.139l10.594 1.829v4.926Z"/>
  <path fill="#fff" stroke="#363636" stroke-miterlimit="10" d="m268.389 132.168-14.448-1.994v-5.179l14.448 2.286v4.887Z"/>
  <path fill="#363636" stroke="#363636" stroke-miterlimit="10" d="m282.301 130.765-9.23-1.411v-4.792l9.23 1.6v4.603Z"/>
  <path fill="#fff" stroke="#363636" stroke-miterlimit="10" d="m283.901 134.312-12.596-1.742v-4.824l12.596 1.994v4.572Z"/>
  <path fill="#363636" stroke="#363636" stroke-miterlimit="10" d="m296.11 132.877-8.11-1.245v-4.485l8.11 1.403v4.327Z"/>
  <path fill="#fff" stroke="#363636" stroke-miterlimit="10" d="m297.521 136.188-11.066-1.529v-4.517l11.066 1.758v4.288Z"/>
  <path fill="#363636" stroke="#363636" stroke-miterlimit="10" d="m308.336 134.745-7.197-1.103v-4.217l7.197 1.245v4.075Z"/>
  <path fill="#fff" stroke="#363636" stroke-miterlimit="10" d="m309.589 137.859-9.813-1.356v-4.248l9.813 1.552v4.052Z"/>
  <path fill="#363636" stroke="#363636" stroke-miterlimit="10" d="m248.463 140.886-12.281-1.159v-5.541l12.281 1.403v5.297Z"/>
  <path fill="#fff" stroke="#363636" stroke-miterlimit="10" d="m250.575 144.874-16.75-1.324v-5.596l16.75 1.671v5.249Z"/>
  <path fill="#363636" stroke="#363636" stroke-miterlimit="10" d="m266.56 142.58-10.594-.993v-5.139l10.594 1.214v4.918Z"/>
  <path fill="#fff" stroke="#363636" stroke-miterlimit="10" d="m268.389 146.285-14.448-1.143v-5.186l14.448 1.442v4.887Z"/>
  <path fill="#363636" stroke="#363636" stroke-miterlimit="10" d="m282.301 144.062-9.23-.867v-4.792l9.23 1.056v4.603Z"/>
  <path fill="#fff" stroke="#363636" stroke-miterlimit="10" d="m283.901 147.515-12.596-1.001v-4.824l12.596 1.253v4.572Z"/>
  <path fill="#363636" stroke="#363636" stroke-miterlimit="10" d="m296.11 145.355-8.11-.757v-4.493l8.11.93v4.32Z"/>
  <path fill="#fff" stroke="#363636" stroke-miterlimit="10" d="m297.521 148.587-11.066-.875v-4.517l11.066 1.104v4.288Z"/>
  <path fill="#363636" stroke="#363636" stroke-miterlimit="10" d="m308.336 146.506-7.197-.678v-4.217l7.197.82v4.075Z"/>
  <path fill="#fff" stroke="#363636" stroke-miterlimit="10" d="m309.589 149.548-9.813-.78v-4.249l9.813.978v4.051Z"/>
  <path fill="#363636" stroke="#363636" stroke-miterlimit="10" d="M213.379 82.376h-20.352v82.866h20.352V82.376Z"/>
  <path fill="#363636" stroke="#363636" stroke-miterlimit="10" d="M231.611 77.127h-20.352v88.115h20.352V77.127Z"/>
  <path fill="#fff" stroke="#363636" stroke-miterlimit="10" d="m193.027 165.155-82.053.118V98.85l82.053-16.474v82.779Z"/>
  <path fill="#fff" stroke="#363636" stroke-miterlimit="10" d="m193.027 165.155-82.053.118v-11.997l82.053-3.066v14.945Z"/>
  <path fill="#363636" stroke="#363636" stroke-miterlimit="10" d="m122.3 107.111-8.181 1.387v-4.272l8.181-1.498v4.383Z"/>
  <path fill="#fff" stroke="#363636" stroke-miterlimit="10" d="m123.83 110.027-11.162 1.797v-4.256l11.162-1.939v4.398Z"/>
  <path fill="#363636" stroke="#363636" stroke-miterlimit="10" d="m136.796 104.643-8.876 1.514v-4.454l8.876-1.623v4.563Z"/>
  <path fill="#fff" stroke="#363636" stroke-miterlimit="10" d="m138.459 107.67-12.107 1.955v-4.438l12.107-2.104v4.587Z"/>
  <path fill="#363636" stroke="#363636" stroke-miterlimit="10" d="m152.56 101.963-9.663 1.64V98.96l9.663-1.765v4.768Z"/>
  <path fill="#fff" stroke="#363636" stroke-miterlimit="10" d="m154.373 105.108-13.179 2.121v-4.619l13.179-2.286v4.784Z"/>
  <path fill="#363636" stroke="#363636" stroke-miterlimit="10" d="m169.775 99.031-10.562 1.797v-4.847l10.562-1.94v4.99Z"/>
  <path fill="#fff" stroke="#363636" stroke-miterlimit="10" d="m171.761 102.31-14.408 2.318v-4.824l14.408-2.507v5.013Z"/>
  <path fill="#363636" stroke="#363636" stroke-miterlimit="10" d="m188.645 95.815-11.587 1.97V92.71l11.587-2.113v5.218Z"/>
  <path fill="#fff" stroke="#363636" stroke-miterlimit="10" d="m190.828 99.236-15.804 2.546V96.73l15.804-2.743v5.25Z"/>
  <path fill="#363636" stroke="#363636" stroke-miterlimit="10" d="m122.3 119.761-8.181 1.096v-4.28l8.181-1.19v4.374Z"/>
  <path fill="#fff" stroke="#363636" stroke-miterlimit="10" d="m123.83 122.733-11.162 1.387v-4.256l11.162-1.529v4.398Z"/>
  <path fill="#363636" stroke="#363636" stroke-miterlimit="10" d="m136.796 117.83-8.876 1.183v-4.454l8.876-1.292v4.563Z"/>
  <path fill="#fff" stroke="#363636" stroke-miterlimit="10" d="m138.459 120.92-12.107 1.506v-4.438l12.107-1.655v4.587Z"/>
  <path fill="#363636" stroke="#363636" stroke-miterlimit="10" d="m152.56 115.726-9.663 1.285v-4.643l9.663-1.411v4.769Z"/>
  <path fill="#fff" stroke="#363636" stroke-miterlimit="10" d="m154.373 118.942-13.179 1.639v-4.627l13.179-1.805v4.793Z"/>
  <path fill="#363636" stroke="#363636" stroke-miterlimit="10" d="m169.775 113.424-10.562 1.411v-4.847l10.562-1.545v4.981Z"/>
  <path fill="#fff" stroke="#363636" stroke-miterlimit="10" d="m171.761 116.782-14.408 1.789v-4.832l14.408-1.97v5.013Z"/>
  <path fill="#363636" stroke="#363636" stroke-miterlimit="10" d="m188.645 110.91-11.587 1.545v-5.076l11.587-1.695v5.226Z"/>
  <path fill="#fff" stroke="#363636" stroke-miterlimit="10" d="m190.828 114.409-15.804 1.963v-5.052l15.804-2.16v5.249Z"/>
  <path fill="#363636" stroke="#363636" stroke-miterlimit="10" d="m122.3 132.412-8.181.796v-4.28l8.181-.89v4.374Z"/>
  <path fill="#fff" stroke="#363636" stroke-miterlimit="10" d="m123.83 135.447-11.162.977v-4.256l11.162-1.119v4.398Z"/>
  <path fill="#363636" stroke="#363636" stroke-miterlimit="10" d="m136.796 131.009-8.876.859v-4.445l8.876-.97v4.556Z"/>
  <path fill="#fff" stroke="#363636" stroke-miterlimit="10" d="m138.459 134.162-12.107 1.064v-4.43l12.107-1.213v4.579Z"/>
  <path fill="#363636" stroke="#363636" stroke-miterlimit="10" d="m152.56 129.488-9.663.938v-4.643l9.663-1.056v4.761Z"/>
  <path fill="#fff" stroke="#363636" stroke-miterlimit="10" d="m154.373 132.767-13.179 1.159v-4.619l13.179-1.324v4.784Z"/>
  <path fill="#363636" stroke="#363636" stroke-miterlimit="10" d="m169.775 127.825-10.562 1.017v-4.848l10.562-1.159v4.99Z"/>
  <path fill="#fff" stroke="#363636" stroke-miterlimit="10" d="m171.761 131.246-14.408 1.261v-4.824l14.408-1.442v5.005Z"/>
  <path fill="#363636" stroke="#363636" stroke-miterlimit="10" d="m188.645 125.996-11.587 1.12v-5.077l11.587-1.269v5.226Z"/>
  <path fill="#fff" stroke="#363636" stroke-miterlimit="10" d="m190.828 129.583-15.804 1.379v-5.052l15.804-1.585v5.258Z"/>
  <path fill="#363636" stroke="#363636" stroke-miterlimit="10" d="m122.3 145.071-8.181.489v-4.272l8.181-.599v4.382Z"/>
  <path fill="#fff" stroke="#363636" stroke-miterlimit="10" d="m123.83 148.153-11.162.568v-4.257l11.162-.709v4.398Z"/>
  <path fill="#363636" stroke="#363636" stroke-miterlimit="10" d="m136.796 144.196-8.876.536v-4.453l8.876-.647v4.564Z"/>
  <path fill="#fff" stroke="#363636" stroke-miterlimit="10" d="m138.459 147.412-12.107.615v-4.43l12.107-.772v4.587Z"/>
  <path fill="#363636" stroke="#363636" stroke-miterlimit="10" d="m152.56 143.25-9.663.584v-4.643l9.663-.701v4.76Z"/>
  <path fill="#fff" stroke="#363636" stroke-miterlimit="10" d="m154.373 146.6-13.179.67v-4.619l13.179-.835v4.784Z"/>
  <path fill="#363636" stroke="#363636" stroke-miterlimit="10" d="m169.775 142.218-10.562.638v-4.855l10.562-.765v4.982Z"/>
  <path fill="#fff" stroke="#363636" stroke-miterlimit="10" d="m171.761 145.717-14.408.734v-4.824l14.408-.915v5.005Z"/>
  <path fill="#363636" stroke="#363636" stroke-miterlimit="10" d="m188.645 141.083-11.587.701v-5.076l11.587-.843v5.218Z"/>
  <path fill="#fff" stroke="#363636" stroke-miterlimit="10" d="m190.828 144.748-15.804.804v-5.053l15.804-1.001v5.25Zm38.103 20.525h-27.352l21.881-95.382 5.471 5.817v89.565Z"/>
  <path fill="#fff" stroke="#363636" stroke-miterlimit="10" d="M223.46 165.273h-27.343v-89.51l27.343-5.872v95.382Z"/>
  <path fill="#363636" d="M235.623 179.839a6.897 6.897 0 0 0-6.897 6.897c0 3.815 6.897 11.603 6.897 11.603s6.904-7.788 6.904-11.603a6.902 6.902 0 0 0-6.904-6.897Zm0 9.396a2.364 2.364 0 1 1 0-4.728 2.364 2.364 0 0 1 0 4.728Zm27.485-.93c-.473-.323-7.457-4.588-7.882-4.903l.149-.165 1.577-1.624a.392.392 0 0 1 .465-.126l2.443.788 3.689 1.214 2.743.922.402.11c.095-.094.189-.173.268-.26l3.539-3.681a2.096 2.096 0 0 1 1.033-.63 1.83 1.83 0 0 1 1.947.788 1.773 1.773 0 0 1-.111 2.097c-.278.317-.572.62-.882.906l-3.067 2.94-.086.087a.356.356 0 0 0-.119.465c.276.788.529 1.576.789 2.365.315.938.63 1.883.938 2.821.404 1.204.804 2.404 1.198 3.603a.34.34 0 0 1 0 .078c.094.347.189.339-.158.678-.481.465-.946.938-1.419 1.411-.086.087-.181.158-.252.229-.071.071-.158-.095-.197-.166a149.83 149.83 0 0 1-1.994-3.232c-.788-1.292-1.577-2.593-2.404-3.893-.071-.111-.134-.237-.213-.347a1.197 1.197 0 0 0-.174-.189c-.244.22-.472.433-.693.654a708.991 708.991 0 0 0-3.066 2.94c-.402.378-.402.386-.308.954l.237 1.45c0 .173.055.347.079.528a9.647 9.647 0 0 1-.883.914 8.415 8.415 0 0 1-.891.86 7.954 7.954 0 0 1-.473-1.238c-.15-.402-.291-.788-.433-1.229-.142-.442-.292-.789-.442-1.246-1.237-.457-2.483-.875-3.752-1.34a.727.727 0 0 1 .103-.15c.488-.488.985-.977 1.466-1.474a.476.476 0 0 1 .481-.149c.425.078.859.142 1.284.213l.789.126a.356.356 0 0 0 .219.004.36.36 0 0 0 .183-.123c.062-.074.131-.142.205-.205l3.389-3.539c.15-.031.15-.118.284-.236Zm33.073-6.708h-9.458a.836.836 0 0 0-.788.631l-1.183 4.958h13.4l-1.182-4.958a.84.84 0 0 0-.789-.631Z"/>
  <path fill="#fff" d="M295.543 182.527h-8.158l-1.017 4.249h10.192l-1.017-4.249Z"/>
  <path fill="#363636" d="M283.862 192.553h3.152v4.02a.457.457 0 0 1-.457.457h-2.223a.46.46 0 0 1-.457-.457v-4.02h-.015Zm12.375 0h3.152v4.02a.46.46 0 0 1-.133.324.46.46 0 0 1-.324.133h-2.223a.46.46 0 0 1-.457-.457v-4.02h-.015Zm-3.177-10.333h-3.011v1.119h3.011v-1.119Z"/>
  <path fill="#363636" d="M299.374 186.287h-15.378c-.693 0-1.254.561-1.254 1.253v5.092c0 .692.561 1.253 1.254 1.253h15.378c.692 0 1.253-.561 1.253-1.253v-5.092c0-.692-.561-1.253-1.253-1.253Z"/>
  <path fill="#fff" d="M288.559 189.645a2.013 2.013 0 0 1-1.24 1.87 2.015 2.015 0 0 1-2.202-.433 2.019 2.019 0 0 1 1.424-3.447 2.016 2.016 0 0 1 2.018 2.01Zm10.428 0a2.012 2.012 0 0 1-1.24 1.857 2.01 2.01 0 1 1 1.24-1.857Zm-5.036-1.222h-4.469v.773h4.469v-.773Zm0 1.356h-4.469v.772h4.469v-.772Z"/>
  <path fill="#fff" stroke="#363636" stroke-miterlimit="10" d="M208.382 195.872h-54.143v19.965h54.143v-19.965Z"/>
  <path fill="#fff" stroke="#363636" stroke-miterlimit="10" d="M157.352 212.763h47.869a3.15 3.15 0 0 1 2.229.924 3.15 3.15 0 0 1 .924 2.229v14.141H154.2V215.9a3.152 3.152 0 0 1 3.152-3.137Z"/>
  <path fill="#0157E4" stroke="#363636" stroke-miterlimit="10" d="m171.801 212.251-2.334-.536h-10.254l-2.877.536.725-2.152v-5.935l-.725-2.16 2.971.631h10.61l1.884-.631-.718 2.515v5.036l.718 2.696Zm16.544 0-2.333-.536h-10.255l-2.877.536.726-2.152v-5.935l-.726-2.16 2.972.631h10.609l1.884-.631-.717 2.515v5.036l.717 2.696Zm16.545 0-2.333-.536h-10.255l-2.877.536.717-2.152v-5.935l-.717-2.16 2.972.631h10.609l1.884-.631-.717 2.515v5.036l.717 2.696Z"/>
  <path stroke="#363636" stroke-miterlimit="10" d="M142.305 230.049h77.671m-70.072-22.11h-1.206v5.226h1.206v-5.226Z"/>
  <path fill="#363636" d="M153.325 198.489h-8.04v10.049h8.04v-10.049Z"/>
  <path stroke="#363636" stroke-miterlimit="10" d="M153.727 213.567h-8.844v16.482h8.844v-16.482Z"/>
  <path fill="#363636" stroke="#363636" stroke-miterlimit="10" d="M153.727 213.567h-8.844v2.412h8.844v-2.412Z"/>
  <path stroke="#363636" stroke-miterlimit="10" d="M152.119 217.587h-6.03v3.815h6.03v-3.815Zm0 5.628h-6.03v3.815h6.03v-3.815Zm62.103-15.276h-1.206v5.226h1.206v-5.226Z"/>
  <path fill="#363636" d="M217.635 198.489h-8.039v10.049h8.039v-10.049Z"/>
  <path stroke="#363636" stroke-miterlimit="10" d="M218.037 213.567h-8.843v16.482h8.843v-16.482Z"/>
  <path fill="#363636" stroke="#363636" stroke-miterlimit="10" d="M218.037 213.567h-8.843v2.412h8.843v-2.412Z"/>
  <path stroke="#363636" stroke-miterlimit="10" d="M216.429 217.587H210.4v3.815h6.029v-3.815Zm0 5.628H210.4v3.815h6.029v-3.815Zm-62.702 58.289h-8.844v16.481h8.844v-16.481Z"/>
  <path fill="#363636" stroke="#363636" stroke-miterlimit="10" d="M153.727 281.504h-8.844v2.412h8.844v-2.412Z"/>
  <path stroke="#363636" stroke-miterlimit="10" d="M152.119 285.524h-6.03v3.815h6.03v-3.815Zm0 5.628h-6.03v3.815h6.03v-3.815Zm65.918-9.648h-8.843v16.481h8.843v-16.481Z"/>
  <path fill="#363636" stroke="#363636" stroke-miterlimit="10" d="M218.037 281.504h-8.843v2.412h8.843v-2.412Z"/>
  <path stroke="#363636" stroke-miterlimit="10" d="M216.429 285.524H210.4v3.815h6.029v-3.815Zm0 5.628H210.4v3.815h6.029v-3.815Z"/>
  <path stroke="#363636" stroke-miterlimit="10" d="M220.079 251.741h-77.553v52.999h77.553v-52.999Z"/>
  <path fill="#363636" stroke="#363636" stroke-miterlimit="10" d="M208.382 263.808h-54.143v19.966h54.143v-19.966Z"/>
  <path fill="#fff" stroke="#363636" stroke-miterlimit="10" d="M157.352 280.708h47.869a3.152 3.152 0 0 1 3.153 3.153v14.14H154.2v-14.156a3.15 3.15 0 0 1 3.152-3.137Z"/>
  <path stroke="#363636" stroke-miterlimit="10" d="M142.305 297.985h77.671"/>
  <path fill="#363636" d="M77.9 51.194v5.376h-1.332V44.62H77.9v5.376h2.932v-5.375h1.332V56.57h-1.332v-5.376H77.9Zm5.533-3.689c0-1.828.899-3.01 2.728-3.01 1.828 0 2.75 1.182 2.75 3.01v6.18c0 1.813-.906 3.003-2.75 3.003-1.845 0-2.728-1.19-2.728-3.003v-6.18Zm1.309 6.251c0 1.088.465 1.718 1.419 1.718.953 0 1.418-.63 1.418-1.718V47.45c0-1.08-.441-1.726-1.418-1.726-.978 0-1.42.646-1.42 1.726v6.306Zm7.188 2.814V45.827h-2.199V44.62h5.739v1.206h-2.207V56.57H91.93Zm8.671-6.66v1.198h-2.924v4.248h3.586v1.214h-4.919V44.62h4.919v1.207h-3.587v4.083h2.925Zm1.915 6.66V44.62h1.332v10.736h3.413v1.214h-4.745Zm11.083-11.95c1.86 0 2.593.883 2.593 2.641v.591c0 1.261-.355 2.05-1.395 2.365 1.158.323 1.576 1.245 1.576 2.562v1.009c0 1.789-.867 2.798-2.727 2.798h-2.751V44.62h2.704Zm-.324 5.069c1.057 0 1.577-.34 1.577-1.577v-.693c0-1.064-.355-1.577-1.309-1.577h-1.316v3.863l1.048-.016Zm.394 5.667c.97 0 1.411-.512 1.411-1.624v-1.056c0-1.332-.528-1.773-1.671-1.773h-1.158v4.453h1.418Zm3.839-7.851c0-1.828.907-3.01 2.727-3.01 1.821 0 2.751 1.182 2.751 3.01v6.18c0 1.813-.906 3.003-2.751 3.003-1.844 0-2.727-1.19-2.727-3.003v-6.18Zm1.316 6.251c0 1.088.458 1.718 1.411 1.718.954 0 1.419-.63 1.419-1.718V47.45c0-1.08-.441-1.726-1.419-1.726-.977 0-1.411.646-1.411 1.726v6.306Zm5.321-6.251c0-1.828.906-3.01 2.735-3.01 1.829 0 2.751 1.182 2.751 3.01v6.18c0 1.813-.907 3.003-2.751 3.003-1.844 0-2.735-1.19-2.735-3.003v-6.18Zm1.316 6.251c0 1.088.465 1.718 1.419 1.718s1.419-.63 1.419-1.718V47.45c0-1.08-.45-1.726-1.419-1.726-.97 0-1.419.646-1.419 1.726v6.306Zm7.457-2.38-.702 1.182v4.012h-1.332V44.62h1.332v5.77l3.153-5.77h1.348l-3.011 5.447 3.153 6.503h-1.364l-2.577-5.194Zm6.305-6.756v11.95h-1.332V44.62h1.332Zm2.531 11.95h-1.198V44.62h1.686l2.767 8.671v-8.67h1.182V56.57h-1.387l-3.05-9.664v9.664Zm11.074-9.065v1.025h-1.261v-1.096c0-1.08-.426-1.726-1.403-1.726-.977 0-1.395.647-1.395 1.727v6.305c0 1.072.441 1.719 1.395 1.719s1.403-.647 1.403-1.719v-2.364h-1.23V50.17h2.491v3.515c0 1.813-.851 3.003-2.696 3.003-1.844 0-2.68-1.19-2.68-3.003v-6.18c0-1.812.852-3.01 2.68-3.01 1.829 0 2.696 1.198 2.696 3.01Z"/>
  <path stroke="#363636" stroke-miterlimit="10" d="M122.127 64.665H76.568v7.677h45.559v-7.677Zm53.749 0h-45.559v7.677h45.559v-7.677Zm48.625-35.832h44.534m34.776 202.698h-12.792v7.677h12.792v-7.677Zm-15.354 0h-12.793v7.677h12.793v-7.677Zm-56.815-21.495h73.194m-73.194 5.628h73.194m-73.194 5.628h73.194m-73.194 5.636h73.194"/>
  <path fill="#363636" d="M235.623 247.516a6.893 6.893 0 0 0-6.897 6.897c0 3.815 6.897 11.602 6.897 11.602s6.904-7.787 6.904-11.602a6.906 6.906 0 0 0-6.904-6.897Zm0 9.395a2.363 2.363 0 0 1-.462-4.683 2.362 2.362 0 0 1 2.826 2.319c0 .627-.249 1.228-.692 1.672a2.367 2.367 0 0 1-1.672.692Zm27.485-.93c-.473-.323-7.457-4.587-7.882-4.902a1.68 1.68 0 0 1 .149-.166l1.577-1.624a.395.395 0 0 1 .465-.126l2.443.788 3.689 1.214 2.743.922.402.111c.095-.095.189-.174.268-.26l3.539-3.681a2.098 2.098 0 0 1 1.033-.631 1.839 1.839 0 0 1 1.947.788 1.776 1.776 0 0 1-.111 2.097c-.278.318-.572.62-.882.907l-3.067 2.94-.086.086a.356.356 0 0 0-.119.465c.276.789.529 1.577.789 2.365.315.938.63 1.884.938 2.822.404 1.208.804 2.409 1.198 3.602a.348.348 0 0 1 0 .079c.094.347.189.339-.158.678-.481.465-.946.938-1.419 1.411-.086.086-.181.157-.252.228-.071.071-.158-.094-.197-.165a152.324 152.324 0 0 1-1.994-3.232c-.788-1.293-1.577-2.593-2.404-3.894-.071-.11-.134-.236-.213-.347a1.197 1.197 0 0 0-.174-.189c-.244.221-.472.434-.693.654a854.373 854.373 0 0 0-3.066 2.94c-.402.379-.402.379-.308.954l.237 1.45c0 .174.055.347.079.529a9.768 9.768 0 0 1-.883.914 8.406 8.406 0 0 1-.891.859 7.943 7.943 0 0 1-.473-1.237c-.15-.402-.291-.789-.433-1.23-.142-.441-.292-.788-.442-1.253-1.237-.45-2.483-.867-3.752-1.332a.677.677 0 0 1 .103-.15c.488-.497.985-.978 1.466-1.474a.468.468 0 0 1 .481-.15c.425.079.859.142 1.284.213l.789.126a.358.358 0 0 0 .402-.126c.064-.07.133-.136.205-.197l3.389-3.539c.15-.032.15-.118.284-.237Zm33.073-6.707h-9.458a.835.835 0 0 0-.788.63l-1.183 4.958h13.4l-1.182-4.958a.84.84 0 0 0-.789-.63Z"/>
  <path fill="#fff" d="M295.543 250.204h-8.158l-1.017 4.248h10.192l-1.017-4.248Z"/>
  <path fill="#363636" d="M283.862 260.23h3.152v4.02a.456.456 0 0 1-.457.457h-2.223a.456.456 0 0 1-.457-.457v-4.02h-.015Zm12.375 0h3.152v4.02a.46.46 0 0 1-.457.457h-2.223a.456.456 0 0 1-.457-.457v-4.02h-.015Zm-3.177-10.334h-3.011v1.12h3.011v-1.12Z"/>
  <path fill="#363636" d="M299.374 253.963h-15.378c-.693 0-1.254.562-1.254 1.254v5.092c0 .692.561 1.253 1.254 1.253h15.378c.692 0 1.253-.561 1.253-1.253v-5.092c0-.692-.561-1.254-1.253-1.254Z"/>
  <path fill="#fff" d="M288.559 257.321a2.017 2.017 0 1 1-4.035.017 2.017 2.017 0 0 1 4.035-.017Zm10.428 0a2.01 2.01 0 1 1-3.126-1.671 2.007 2.007 0 0 1 2.538.25c.377.377.588.888.588 1.421Zm-5.036-1.221h-4.469v.772h4.469v-.772Zm0 1.355h-4.469v.773h4.469v-.773Z"/>
  <path stroke="#363636" stroke-miterlimit="10" d="M303.811 299.207h-12.792v7.677h12.792v-7.677Zm-15.354 0h-12.793v7.677h12.793v-7.677Zm-56.815-21.495h73.194m-73.194 5.628h73.194m-73.194 5.628h73.194m-73.194 5.636h73.194"/>
  <path stroke="#fff" stroke-miterlimit="10" d="M151.307 28.833h44.526m-113.117 0h44.527"/>
  <path fill="#0157E4" stroke="#363636" stroke-miterlimit="10" d="m164.831 265.316-6.989 6.989 6.989 6.99 6.989-6.99-6.989-6.989Zm16.363.001-6.989 6.989 6.989 6.989 6.989-6.989-6.989-6.989Zm16.358-.002-6.99 6.989 6.99 6.989 6.989-6.989-6.989-6.989Z"/>
  <path stroke="#363636" stroke-miterlimit="10" d="M207.239 253.483h-51.865v5.919h51.865v-5.919Z"/>
  <path stroke="#363636" stroke-miterlimit="10" d="M201.926 257.92h-41.239v1.482h41.239v-1.482Z"/>
  <path fill="#D9D9D9" d="M315.154 171.965h-6.172v135.842h6.172V171.965Z"/>
  <path fill="#D9D9D9" d="M315.154 211.975h-6.172v32.27h6.172v-32.27Z"/>
  <path fill="#fff" stroke="#363636" stroke-miterlimit="10" d="M105.44 113.353s.852 4.927-.22 7.496c-1.072 2.57-2.57 3.208-2.995 4.28-.426 1.072.425 3.642.646 4.73.221 1.087.638 2.143-1.072 2.364a22.83 22.83 0 0 1-2.365.213s-4.067 5.139-6.85 5.139c-2.782 0-5.13-4.303-8.536-10.113-3.405-5.809-1.072-9.206 2.995-11.988 4.068-2.783 18.397-2.121 18.397-2.121Z"/>
  <path fill="#363636" d="M99.608 125.153c-.347.883-.899 1.49-1.23 1.356-.331-.134-.315-.946 0-1.829s.899-1.482 1.23-1.356c.33.126.354.985 0 1.829Z"/>
  <path stroke="#363636" stroke-miterlimit="10" d="M99.024 121.275s2.136-1.711 3.208.859"/>
  <path fill="#363636" stroke="#363636" stroke-miterlimit="10" d="m94.516 114.851-.639 52.251s-4.075.213-9.214 0c-5.14-.213-12.414-2.365-20.77-7.709-8.355-5.344-4.926-22.472-4.926-22.472l12.848-15.63 22.7-6.44Z"/>
  <path fill="#FFB100" stroke="#363636" stroke-miterlimit="10" d="M76.954 98.582s-4.493 5.565-6.424 10.491c-1.93 4.927.434 10.066.434 10.066l34.256-11.563s0-2.791-4.493-6.645c-4.493-3.855-17.774-5.352-20.77-4.919-2.995.434-3.003 2.57-3.003 2.57Z"/>
  <path fill="#fff" stroke="#363636" stroke-miterlimit="10" d="M79.098 85.3s-9.206 2.79-10.917 7.094c-1.71 4.304 2.996 8.561 6.204 9.633 3.208 1.072 12.848-2.365 14.353-5.565 1.506-3.2.828-6.834-1.931-9.656-2.759-2.822-6.637-1.907-7.709-1.505Z"/>
  <path fill="#FFB100" stroke="#363636" stroke-miterlimit="10" d="M76.741 114.212s-5.564 2.136-7.094 2.996c-1.529.859-.859 2.569-.212 3.854.646 1.285.425 2.57 1.497 2.57s21.408-6.637 28.479-8.348c7.07-1.71 7.708 0 8.134-2.144.426-2.144.859-6.636-.638-7.708-1.498-1.072-18.815 3.854-30.166 8.78Z"/>
  <path fill="#363636" stroke="#363636" stroke-miterlimit="10" d="m43.77 226.526 4.919 42.382s-6.637 10.491-8.347 18.2-10.492 25.909-10.492 25.909l7.922 4.28s14.558-21.629 19.272-29.125c4.713-7.496 7.094-10.704 7.094-13.486 0-2.783 5.998-43.447 5.998-43.447l-26.366-4.713Z"/>
  <path fill="#FFB100" stroke="#363636" stroke-miterlimit="10" d="M42.486 317.068s3.018 1.293 2.301 3.311c-.717 2.018-9.057 5.178-9.348 5.604-.292.426 7.047-8.915 7.047-8.915Z"/>
  <path fill="#FFB100" stroke="#363636" stroke-miterlimit="10" d="M26.232 308.295c.434.434 17.12 8.198 17.12 8.198s-6.762 10.389-8.173 12.659c-1.411 2.27 2.151 7.48 3.153 9.348 1 1.868 6.904 5.179 8.055 5.754 1.151.575.284 1.293 0 3.303-.284 2.009-.867 2.443-2.301 2.443-1.435 0-10.791-1.001-13.81-2.727s-3.736-4.73-5.029-5.896c-1.293-1.167-1.726-1.151-1.726-1.151l-1.3 1.868s-1.719.142-4.596-1.726a10.406 10.406 0 0 1-3.886-4.603s3.019-5.463 5.037-6.905c2.018-1.442 3.736-4.453 4.311-6.306.576-1.852 3.145-14.259 3.145-14.259Z"/>
  <path stroke="#363636" stroke-miterlimit="10" d="M37.811 325.439s3.555-4.154 5.1-2.365c1.545 1.79-5.1 2.365-5.1 2.365Zm0 0s7.599 2.018 5.817 2.609c-1.78.591-5.817-2.609-5.817-2.609Z"/>
  <path stroke="#363636" stroke-miterlimit="10" d="M37.93 331.256a10.861 10.861 0 0 1-.119-5.817c.9 2.98 1.496 6.044 1.782 9.143"/>
  <path fill="#fff" stroke="#363636" stroke-miterlimit="10" d="M41.335 347.557c-3.595-.284-11.217-2.444-13.952-6.905-2.301-3.752-3.878-2.01-7.882-4.454a7.956 7.956 0 0 1-3.523-4.051 53.874 53.874 0 0 0-2.231 3.618 10.406 10.406 0 0 0 3.886 4.603c2.877 1.868 4.595 1.726 4.595 1.726l1.3-1.868s.427 0 1.727 1.151 2.01 4.17 5.029 5.896S42.65 350 44.094 350c1.442 0 1.986-.418 2.277-2.365-1.403.063-3.24.063-5.036-.078Z"/>
  <path fill="#363636" stroke="#363636" stroke-miterlimit="10" d="m50.407 228.882 20.983 44.519s-1.711 9.853.425 17.128 12.612 27.193 12.612 27.193l1.072 3.216 8.993-4.5s-5.565-17.767-6.85-24.837c-1.284-7.07-.212-16.702-2.364-23.339-2.152-6.637-8.994-39.805-8.994-39.805l-25.877.425Z"/>
  <path stroke="#363636" stroke-miterlimit="10" d="m51.219 233.99 12.351 26.997"/>
  <path fill="#FFB100" stroke="#363636" stroke-miterlimit="10" d="M98.236 319.165s1.19-7.244 2.136-7.244c.946 0 4.73.71 3.208 3.09-1.521 2.38-4.729 8.426-4.729 8.426l-.615-4.272Z"/>
  <path fill="#FFB100" stroke="#363636" stroke-miterlimit="10" d="m97.511 312.804-17.128 7.922 10.491 17.34a28.08 28.08 0 0 0 1.931 6.637c1.285 2.57 1.924 3.642 1.924 3.642l9.206-2.995s0-1.498 1.072-1.711a5.136 5.136 0 0 1 1.655.047 4.413 4.413 0 0 0 2.696-.402c3.429-1.702 12.154-6.045 13.691-6.904 1.931-1.072 2.089-3.878 1.443-4.95-.647-1.072-2.783-2.365-4.927-2.365-2.144 0-10.246 1.072-13.273.213-3.027-.859-3.642-.426-4.927-1.923-1.284-1.498-3.854-14.551-3.854-14.551Z"/>
  <path stroke="#363636" stroke-miterlimit="10" d="M98.827 323.437s3.563-4.154 5.108-2.365c1.545 1.79-5.108 2.365-5.108 2.365Zm0 0s7.599 2.018 5.817 2.617c-1.781.599-5.817-2.617-5.817-2.617Z"/>
  <path stroke="#363636" stroke-miterlimit="10" d="M98.946 329.246a10.963 10.963 0 0 1-.119-5.817 45.964 45.964 0 0 1 1.782 9.144"/>
  <path fill="#fff" stroke="#363636" stroke-miterlimit="10" d="M123.049 336.38c1.734-1.522 2.097-4.139 1.348-5.084a73.887 73.887 0 0 1-14.976 9.04c-10.247 4.643-14.283 4.643-16.34 4.895 1.104 2.176.788 3.003 1.663 3.153 7.094.883 9.207-2.995 9.207-2.995s0-1.498 1.072-1.71a4.79 4.79 0 0 1 1.576 0c1.033.157 3.153.472 4.067 0 3.547-1.774 8.852-4.186 12.383-7.299Z"/>
  <path fill="#FFB100" stroke="#363636" stroke-miterlimit="10" d="M78.46 155.539s9.458 51.076 12.848 61.355a85.867 85.867 0 0 1 4.067 17.955l-15.851 1.498-1.064-80.808Z"/>
  <path fill="#FFB100" stroke="#363636" stroke-miterlimit="10" d="M60.04 134.123s-7.095 7.283-12.415 21.841c-5.32 14.559-8.781 53.646-10.066 60.693-1.285 7.047-1.931 17.183-.646 17.609 1.285.426 20.99 6.211 32.12 6.211 11.13 0 17.561.213 17.561-1.285 0-1.497-2.364-67.187-4.5-78.325-2.137-11.137-5.352-12.202-8.773-18.846-3.421-6.645-13.282-7.898-13.282-7.898Z"/>
  <path fill="#fff" stroke="#363636" stroke-miterlimit="10" d="M78.026 147.168a53.057 53.057 0 0 0-7.094-11.13c-4.5-5.352-7.709-10.712-10.49-8.993-2.783 1.718-5.574 5.352-4.927 7.708.646 2.357 13.557 8.363 16.3 10.05 2.743 1.687 5.573 4.95 6.211 2.365Z"/>
  <path fill="#363636" stroke="#363636" stroke-miterlimit="10" d="M78.53 151.535s-7.637-4.509-13.32-2.365a26.108 26.108 0 0 0-9.6 6.857l-1.963-7.842s7.835-6.07 13.518-6.07c5.683 0 9.97 3.342 11.366 9.42Zm32.192 11.744-1.033-.788 9.829-16.971a.667.667 0 0 1 .183-.202.66.66 0 0 1 .524-.104c.09.021.174.061.247.117a.64.64 0 0 1 .165.836l-9.915 17.112Z"/>
  <path fill="#fff" stroke="#363636" stroke-miterlimit="10" d="M99.962 168.395a8.247 8.247 0 0 0 2.869-4.446c.552-2.727 1.159-6.755 2.207-7.638 1.049-.883 5.518-2.365 6.227-2.664.71-.3 2.136 0 1.293 2.034-.843 2.033-3.791 2.703-3.791 2.703l3.57 1.821s2.152-4.154 2.783-4.02c.63.134.875 1.048 1.292 3.318.418 2.27-.433 3.153-1.615 4.73-1.183 1.576-.978 2.64-1.947 4.193-.97 1.553-8.308 6.329-9.222 6.613-.915.284-3.666-6.644-3.666-6.644Z"/>
  <path fill="#FFB100" d="M63.68 152.756s-3.428 5.139 0 14.133c3.43 8.994 10.925 32.758 13.495 32.317 2.57-.441 28.478-19.918 28.904-21.842.426-1.923-5.139-8.78-5.778-9.458-.638-.678-5.36 3.208-8.568 4.493-3.208 1.284-8.134 3.933-8.134 3.933s-2.57-22.07-6.424-25.909c-3.854-3.838-7.93-1.497-8.568-1.285"/>
  <path stroke="#363636" stroke-miterlimit="10" d="M63.68 152.756s-3.428 5.139 0 14.133c3.43 8.994 10.925 32.758 13.495 32.317 2.57-.441 28.478-19.918 28.904-21.842.426-1.923-5.139-8.78-5.778-9.458-.638-.678-5.36 3.208-8.568 4.493-3.208 1.284-8.134 3.933-8.134 3.933s-2.57-22.07-6.424-25.909c-3.854-3.838-7.93-1.497-8.568-1.285"/>
  <path fill="#fff" stroke="#363636" stroke-miterlimit="10" d="m99.016 183.379-3.003-4.714 2.783-2.144 2.79 4.926-2.57 1.932Z"/>
  <path fill="#0157E4" stroke="#363636" stroke-miterlimit="10" d="M54.561 146.994c.229.852.213 16.025-.426 31.198-.638 15.173-3.846 32.033-5.344 38.686-1.497 6.652-5.344 7.472-11.965 7.047-6.621-.426-16.032-2.137-20.304-5.557-4.273-3.421-3.847-10.894-1.498-17.097 2.349-6.203 5.967-25.853 5.967-34.185 0-6.085.638-12.493 2.695-18.247 3.453-9.601 11.24-9.553 20.163-9.27 5.116.166 9.293 2.2 10.712 7.425Z"/>
  <path fill="#0157E4" stroke="#363636" stroke-miterlimit="10" d="M54.01 145.442c-1.774-4.075-5.59-5.723-10.145-5.873-8.939-.291-16.726-.331-20.163 9.27-2.057 5.754-2.696 12.162-2.696 18.247 0 8.332-3.633 27.99-5.982 34.185-2.215 5.841-2.72 12.809.788 16.458-.74-3.153.741-9.797 5.187-20.304 5.344-12.612 4.918-33.973 4.918-33.973s0-14.322 1.71-17.742c1.711-3.421 8.332-2.988 18.374-1.924a38.48 38.48 0 0 1 8.008 1.656Z"/>
  <path fill="#363636" stroke="#363636" stroke-miterlimit="10" d="m54.348 150.628.331-.292c.019-1.115-.02-2.23-.118-3.342-1.419-5.225-5.596-7.259-10.696-7.425-8.939-.291-16.726-.331-20.163 9.27-2.057 5.754-2.696 12.162-2.696 18.247a70.346 70.346 0 0 1-.614 8.048c1.355.906 3.35 1.852 4.035.071 1.072-2.783 2.365-20.494 2.996-25.649.63-5.155 7.26-4.91 15.173-3.846 7.914 1.064 11.752 4.918 11.752 4.918Z"/>
  <path fill="#fff" stroke="#363636" stroke-miterlimit="10" d="m35.754 198.284-1.497-23.726 11.965 1.072-1.49 23.718-8.978-1.064Z"/>
  <path fill="#fff" stroke="#363636" stroke-miterlimit="10" d="m28.061 195.722.213-13.896 11.54 1.923-1.498 15.386-10.255-3.413Z"/>
  <path fill="#363636" stroke="#363636" stroke-miterlimit="10" d="M49.855 194.461c-16.237 1.71-25.002-2.57-25.002-2.57s-4.91 13.471-6.408 18.594c-1.498 5.124 1.497 6.196 8.331 8.553 6.834 2.356 17.097 4.485 19.02.851 1.923-3.634 4.06-25.428 4.06-25.428Z"/>
  <path stroke="#363636" stroke-miterlimit="10" d="M347.313 350h5.778M6.803 350H339.43"/>
</svg>
